<svg viewBox="0 0 329 324" fill="none" xmlns="http://www.w3.org/2000/svg">
<g filter="url(#filter0_f_1_5003)">
<path d="M74 193.963C74 144.257 114.294 103.963 164 103.963C213.706 103.963 254 144.257 254 193.963C254 243.669 213.706 283.963 164 283.963C114.294 283.963 74 243.669 74 193.963Z" fill="url(#paint0_linear_1_5003)"/>
</g>
<mask id="mask0_1_5003" style="mask-type:alpha" maskUnits="userSpaceOnUse" x="57" y="58" width="215" height="216">
<path d="M164.5 273.963C223.871 273.963 272 225.833 272 166.463C272 107.092 223.871 58.9629 164.5 58.9629C105.129 58.9629 57 107.092 57 166.463C57 225.833 105.129 273.963 164.5 273.963Z" fill="url(#paint1_linear_1_5003)"/>
</mask>
<g mask="url(#mask0_1_5003)">
<rect x="57" y="58.9629" width="1440" height="215" fill="url(#paint2_linear_1_5003)"/>
<path d="M271.5 166.463C271.5 225.557 223.594 273.463 164.5 273.463C105.406 273.463 57.5 225.557 57.5 166.463C57.5 107.368 105.406 59.4629 164.5 59.4629C223.594 59.4629 271.5 107.368 271.5 166.463Z" stroke="white" stroke-opacity="0.5"/>
</g>
<g filter="url(#filter1_b_1_5003)">
<path d="M164.5 0.216797C73.8199 0.216797 0 74.0367 0 164.717V165.856H72.6808V164.717C72.6808 114.136 113.806 72.8975 164.5 72.8975C215.08 72.8975 256.319 114.023 256.319 164.717V165.856H329V164.717C329 74.0367 255.18 0.216797 164.5 0.216797Z" fill="white" fill-opacity="0.3"/>
<path d="M0.5 164.717C0.5 74.3129 74.0961 0.716797 164.5 0.716797C254.904 0.716797 328.5 74.3129 328.5 164.717V165.356H256.819V164.717C256.819 113.746 215.356 72.3975 164.5 72.3975C113.529 72.3975 72.1808 113.861 72.1808 164.717V165.356H0.5V164.717Z" stroke="white"/>
</g>
<path d="M290.108 130.637C282.332 103.096 265.685 78.8912 242.75 61.7758C219.815 44.6604 191.873 35.5911 163.258 35.9746C134.643 36.358 106.954 46.1728 84.4862 63.8966C62.0179 81.6205 46.0258 106.263 38.9901 134.002" stroke="#E2DFEB" stroke-width="8" stroke-linecap="round"/>
<path d="M198.646 40.3925C182.018 35.937 164.67 34.8284 147.61 37.1312C130.55 39.434 114.117 45.1023 99.2651 53.8071C84.4132 62.5118 71.438 74.0798 61.0927 87.8394C50.7474 101.599 43.238 117.276 39.0003 133.962" stroke="url(#paint3_linear_1_5003)" stroke-width="8" stroke-linecap="round"/>
<g opacity="0.9" filter="url(#filter2_d_1_5003)">
<path d="M164.5 240.963C205.645 240.963 239 207.608 239 166.463C239 125.318 205.645 91.9629 164.5 91.9629C123.355 91.9629 90 125.318 90 166.463C90 207.608 123.355 240.963 164.5 240.963Z" fill="url(#paint4_linear_1_5003)"/>
<path d="M238.5 166.463C238.5 207.332 205.369 240.463 164.5 240.463C123.631 240.463 90.5 207.332 90.5 166.463C90.5 125.594 123.631 92.4629 164.5 92.4629C205.369 92.4629 238.5 125.594 238.5 166.463Z" stroke="white"/>
</g>
<path d="M113.207 182.403C111.527 182.403 109.941 182.23 108.447 181.883C106.954 181.536 105.727 181.15 104.767 180.723L105.927 175.403C106.781 175.643 107.834 175.896 109.087 176.163C110.341 176.43 111.541 176.563 112.687 176.563C113.807 176.563 114.741 176.416 115.487 176.123C116.261 175.803 116.847 175.376 117.247 174.843C117.647 174.31 117.847 173.696 117.847 173.003C117.847 171.696 117.154 170.75 115.767 170.163C114.407 169.55 112.447 169.243 109.887 169.243C109.221 169.243 108.634 169.27 108.127 169.323C107.621 169.376 107.061 169.43 106.447 169.483L106.407 169.443L107.727 154.243H123.687L123.367 160.083H113.367L113.007 163.883C113.247 163.856 113.514 163.843 113.807 163.843C114.127 163.816 114.461 163.803 114.807 163.803C118.114 163.803 120.687 164.563 122.527 166.083C124.367 167.576 125.287 169.67 125.287 172.363C125.287 174.336 124.794 176.083 123.807 177.603C122.821 179.096 121.421 180.27 119.607 181.123C117.794 181.976 115.661 182.403 113.207 182.403ZM138.769 182.403C136.449 182.403 134.476 182.07 132.849 181.403C131.223 180.71 129.983 179.79 129.129 178.643C128.303 177.47 127.889 176.176 127.889 174.763C127.889 173.243 128.383 171.83 129.369 170.523C130.356 169.19 131.809 168.203 133.729 167.563L138.889 170.403C138.383 170.43 137.849 170.616 137.289 170.963C136.729 171.283 136.249 171.71 135.849 172.243C135.476 172.776 135.289 173.403 135.289 174.123C135.289 174.656 135.436 175.176 135.729 175.683C136.023 176.19 136.449 176.603 137.009 176.923C137.569 177.243 138.236 177.403 139.009 177.403C139.783 177.403 140.423 177.256 140.929 176.963C141.463 176.67 141.863 176.283 142.129 175.803C142.423 175.323 142.569 174.816 142.569 174.283C142.569 173.563 142.316 172.923 141.809 172.363C141.329 171.803 140.729 171.363 140.009 171.043C139.289 170.696 138.583 170.456 137.889 170.323L133.009 168.403V167.723C131.623 166.976 130.569 166.056 129.849 164.963C129.156 163.87 128.809 162.696 128.809 161.443C128.809 159.79 129.276 158.403 130.209 157.283C131.169 156.163 132.423 155.31 133.969 154.723C135.543 154.136 137.263 153.843 139.129 153.843C141.236 153.843 143.023 154.19 144.489 154.883C145.956 155.55 147.063 156.43 147.809 157.523C148.583 158.616 148.969 159.816 148.969 161.123C148.969 162.536 148.543 163.83 147.689 165.003C146.836 166.15 145.676 167.03 144.209 167.643L138.929 165.003C139.303 164.95 139.716 164.776 140.169 164.483C140.649 164.19 141.049 163.803 141.369 163.323C141.716 162.843 141.889 162.296 141.889 161.683C141.889 161.23 141.783 160.79 141.569 160.363C141.356 159.91 141.023 159.536 140.569 159.243C140.143 158.923 139.569 158.763 138.849 158.763C138.183 158.763 137.623 158.91 137.169 159.203C136.743 159.47 136.423 159.816 136.209 160.243C135.996 160.643 135.889 161.056 135.889 161.483C135.889 162.336 136.289 163.096 137.089 163.763C137.889 164.43 138.889 164.87 140.089 165.083L144.809 166.803V167.483C145.743 167.856 146.596 168.363 147.369 169.003C148.169 169.616 148.796 170.35 149.249 171.203C149.729 172.056 149.969 173.056 149.969 174.203C149.969 175.83 149.503 177.256 148.569 178.483C147.663 179.71 146.369 180.67 144.689 181.363C143.036 182.056 141.063 182.403 138.769 182.403ZM152.217 186.803L153.697 174.723H160.817L157.617 187.563L152.217 186.803ZM175.098 182.403C172.778 182.403 170.804 182.07 169.178 181.403C167.551 180.71 166.311 179.79 165.458 178.643C164.631 177.47 164.218 176.176 164.218 174.763C164.218 173.243 164.711 171.83 165.698 170.523C166.684 169.19 168.138 168.203 170.058 167.563L175.218 170.403C174.711 170.43 174.178 170.616 173.618 170.963C173.058 171.283 172.578 171.71 172.178 172.243C171.804 172.776 171.618 173.403 171.618 174.123C171.618 174.656 171.764 175.176 172.058 175.683C172.351 176.19 172.778 176.603 173.338 176.923C173.898 177.243 174.564 177.403 175.338 177.403C176.111 177.403 176.751 177.256 177.258 176.963C177.791 176.67 178.191 176.283 178.458 175.803C178.751 175.323 178.898 174.816 178.898 174.283C178.898 173.563 178.644 172.923 178.138 172.363C177.658 171.803 177.058 171.363 176.338 171.043C175.618 170.696 174.911 170.456 174.218 170.323L169.338 168.403V167.723C167.951 166.976 166.898 166.056 166.178 164.963C165.484 163.87 165.138 162.696 165.138 161.443C165.138 159.79 165.604 158.403 166.538 157.283C167.498 156.163 168.751 155.31 170.298 154.723C171.871 154.136 173.591 153.843 175.458 153.843C177.564 153.843 179.351 154.19 180.818 154.883C182.284 155.55 183.391 156.43 184.138 157.523C184.911 158.616 185.298 159.816 185.298 161.123C185.298 162.536 184.871 163.83 184.018 165.003C183.164 166.15 182.004 167.03 180.538 167.643L175.258 165.003C175.631 164.95 176.044 164.776 176.498 164.483C176.978 164.19 177.378 163.803 177.698 163.323C178.044 162.843 178.218 162.296 178.218 161.683C178.218 161.23 178.111 160.79 177.898 160.363C177.684 159.91 177.351 159.536 176.898 159.243C176.471 158.923 175.898 158.763 175.178 158.763C174.511 158.763 173.951 158.91 173.497 159.203C173.071 159.47 172.751 159.816 172.538 160.243C172.324 160.643 172.218 161.056 172.218 161.483C172.218 162.336 172.618 163.096 173.418 163.763C174.218 164.43 175.218 164.87 176.418 165.083L181.138 166.803V167.483C182.071 167.856 182.924 168.363 183.698 169.003C184.498 169.616 185.124 170.35 185.578 171.203C186.058 172.056 186.298 173.056 186.298 174.203C186.298 175.83 185.831 177.256 184.898 178.483C183.991 179.71 182.698 180.67 181.018 181.363C179.364 182.056 177.391 182.403 175.098 182.403ZM211.265 155.043H215.625L201.185 181.963H196.825L211.265 155.043ZM196.705 169.643C195.212 169.643 193.932 169.296 192.865 168.603C191.798 167.91 190.985 166.99 190.425 165.843C189.865 164.696 189.585 163.456 189.585 162.123C189.585 160.763 189.865 159.523 190.425 158.403C190.985 157.256 191.798 156.336 192.865 155.643C193.932 154.95 195.212 154.603 196.705 154.603C198.198 154.603 199.478 154.95 200.545 155.643C201.612 156.336 202.425 157.256 202.985 158.403C203.545 159.523 203.825 160.763 203.825 162.123C203.825 163.456 203.545 164.696 202.985 165.843C202.425 166.99 201.612 167.91 200.545 168.603C199.478 169.296 198.198 169.643 196.705 169.643ZM196.705 166.043C197.452 166.043 197.972 165.683 198.265 164.963C198.585 164.216 198.745 163.27 198.745 162.123C198.745 160.95 198.585 160.003 198.265 159.283C197.972 158.563 197.452 158.203 196.705 158.203C195.985 158.203 195.465 158.563 195.145 159.283C194.825 160.003 194.665 160.95 194.665 162.123C194.665 163.27 194.825 164.216 195.145 164.963C195.465 165.683 195.985 166.043 196.705 166.043ZM215.705 182.403C214.212 182.403 212.932 182.056 211.865 181.363C210.825 180.67 210.025 179.75 209.465 178.603C208.905 177.456 208.625 176.216 208.625 174.883C208.625 173.523 208.905 172.283 209.465 171.163C210.025 170.016 210.825 169.096 211.865 168.403C212.932 167.71 214.212 167.363 215.705 167.363C217.252 167.363 218.545 167.71 219.585 168.403C220.652 169.096 221.452 170.016 221.985 171.163C222.545 172.283 222.825 173.523 222.825 174.883C222.825 176.216 222.545 177.456 221.985 178.603C221.452 179.75 220.652 180.67 219.585 181.363C218.545 182.056 217.252 182.403 215.705 182.403ZM215.705 178.803C216.452 178.803 216.985 178.443 217.305 177.723C217.625 176.976 217.785 176.03 217.785 174.883C217.785 173.71 217.625 172.763 217.305 172.043C216.985 171.323 216.452 170.963 215.705 170.963C215.012 170.963 214.492 171.323 214.145 172.043C213.825 172.763 213.665 173.71 213.665 174.883C213.665 176.03 213.825 176.976 214.145 177.723C214.492 178.443 215.012 178.803 215.705 178.803Z" fill="#00215F"/>
<defs>
<filter id="filter0_f_1_5003" x="34" y="63.9629" width="260" height="260" filterUnits="userSpaceOnUse" color-interpolation-filters="sRGB">
<feFlood flood-opacity="0" result="BackgroundImageFix"/>
<feBlend mode="normal" in="SourceGraphic" in2="BackgroundImageFix" result="shape"/>
<feGaussianBlur stdDeviation="20" result="effect1_foregroundBlur_1_5003"/>
</filter>
<filter id="filter1_b_1_5003" x="-15" y="-14.7832" width="359" height="195.639" filterUnits="userSpaceOnUse" color-interpolation-filters="sRGB">
<feFlood flood-opacity="0" result="BackgroundImageFix"/>
<feGaussianBlur in="BackgroundImageFix" stdDeviation="7.5"/>
<feComposite in2="SourceAlpha" operator="in" result="effect1_backgroundBlur_1_5003"/>
<feBlend mode="normal" in="SourceGraphic" in2="effect1_backgroundBlur_1_5003" result="shape"/>
</filter>
<filter id="filter2_d_1_5003" x="85" y="86.9629" width="169" height="169" filterUnits="userSpaceOnUse" color-interpolation-filters="sRGB">
<feFlood flood-opacity="0" result="BackgroundImageFix"/>
<feColorMatrix in="SourceAlpha" type="matrix" values="0 0 0 0 0 0 0 0 0 0 0 0 0 0 0 0 0 0 127 0" result="hardAlpha"/>
<feOffset dx="5" dy="5"/>
<feGaussianBlur stdDeviation="5"/>
<feComposite in2="hardAlpha" operator="out"/>
<feColorMatrix type="matrix" values="0 0 0 0 0 0 0 0 0 0 0 0 0 0 0 0 0 0 0.3 0"/>
<feBlend mode="normal" in2="BackgroundImageFix" result="effect1_dropShadow_1_5003"/>
<feBlend mode="normal" in="SourceGraphic" in2="effect1_dropShadow_1_5003" result="shape"/>
</filter>
<linearGradient id="paint0_linear_1_5003" x1="74" y1="193.963" x2="1279.58" y2="193.963" gradientUnits="userSpaceOnUse">
<stop stop-color="#F599FC"/>
<stop offset="0.25" stop-color="#7D76FE"/>
<stop offset="0.54" stop-color="#6174FC"/>
<stop offset="0.775" stop-color="#619EFD"/>
<stop offset="1" stop-color="#7FECF8"/>
</linearGradient>
<linearGradient id="paint1_linear_1_5003" x1="82.1213" y1="235.599" x2="246.844" y2="97.3736" gradientUnits="userSpaceOnUse">
<stop stop-color="#FBC6EB"/>
<stop offset="1" stop-color="#4331ED"/>
</linearGradient>
<linearGradient id="paint2_linear_1_5003" x1="57" y1="166.463" x2="1497" y2="166.463" gradientUnits="userSpaceOnUse">
<stop stop-color="#F599FC"/>
<stop offset="0.25" stop-color="#7D76FE"/>
<stop offset="0.54" stop-color="#6174FC"/>
<stop offset="0.775" stop-color="#619EFD"/>
<stop offset="1" stop-color="#7FECF8"/>
</linearGradient>
<linearGradient id="paint3_linear_1_5003" x1="35" y1="165.963" x2="295" y2="165.963" gradientUnits="userSpaceOnUse">
<stop stop-color="#F599FC"/>
<stop offset="0.25" stop-color="#7D76FE"/>
<stop offset="0.54" stop-color="#6174FC"/>
<stop offset="0.775" stop-color="#619EFD"/>
<stop offset="1" stop-color="#7FECF8"/>
</linearGradient>
<linearGradient id="paint4_linear_1_5003" x1="90.044" y1="166.429" x2="239.035" y2="166.429" gradientUnits="userSpaceOnUse">
<stop stop-color="#F8F8F8"/>
<stop offset="1" stop-color="#CCBDE3"/>
</linearGradient>
</defs>
</svg>
