<svg viewBox="0 0 329 324" fill="none" xmlns="http://www.w3.org/2000/svg">
<g filter="url(#filter0_f_1_5033)">
<path d="M74 193.963C74 144.257 114.294 103.963 164 103.963C213.706 103.963 254 144.257 254 193.963C254 243.669 213.706 283.963 164 283.963C114.294 283.963 74 243.669 74 193.963Z" fill="url(#paint0_linear_1_5033)"/>
</g>
<mask id="mask0_1_5033" style="mask-type:alpha" maskUnits="userSpaceOnUse" x="57" y="58" width="215" height="216">
<path d="M164.5 273.963C223.871 273.963 272 225.833 272 166.463C272 107.092 223.871 58.9629 164.5 58.9629C105.129 58.9629 57 107.092 57 166.463C57 225.833 105.129 273.963 164.5 273.963Z" fill="url(#paint1_linear_1_5033)"/>
</mask>
<g mask="url(#mask0_1_5033)">
<rect x="-681" y="58.9629" width="1440" height="215" fill="url(#paint2_linear_1_5033)"/>
<path d="M271.5 166.463C271.5 225.557 223.594 273.463 164.5 273.463C105.406 273.463 57.5 225.557 57.5 166.463C57.5 107.368 105.406 59.4629 164.5 59.4629C223.594 59.4629 271.5 107.368 271.5 166.463Z" stroke="white" stroke-opacity="0.5"/>
</g>
<g filter="url(#filter1_b_1_5033)">
<path d="M164.5 0.216797C73.8199 0.216797 0 74.0367 0 164.717V165.856H72.6808V164.717C72.6808 114.136 113.806 72.8975 164.5 72.8975C215.08 72.8975 256.319 114.023 256.319 164.717V165.856H329V164.717C329 74.0367 255.18 0.216797 164.5 0.216797Z" fill="white" fill-opacity="0.3"/>
<path d="M0.5 164.717C0.5 74.3129 74.0961 0.716797 164.5 0.716797C254.904 0.716797 328.5 74.3129 328.5 164.717V165.356H256.819V164.717C256.819 113.746 215.356 72.3975 164.5 72.3975C113.529 72.3975 72.1808 113.861 72.1808 164.717V165.356H0.5V164.717Z" stroke="white"/>
</g>
<path d="M290.108 130.637C282.332 103.096 265.685 78.8912 242.75 61.7758C219.815 44.6604 191.873 35.5911 163.258 35.9746C134.643 36.358 106.954 46.1728 84.4862 63.8966C62.0179 81.6205 46.0258 106.263 38.9901 134.002" stroke="#E2DFEB" stroke-width="8" stroke-linecap="round"/>
<path d="M82.0619 65.8566C60.8346 83.4434 45.7472 107.323 38.9791 134.045" stroke="url(#paint3_linear_1_5033)" stroke-width="8" stroke-linecap="round"/>
<g opacity="0.9" filter="url(#filter2_d_1_5033)">
<path d="M164.5 240.963C205.645 240.963 239 207.608 239 166.463C239 125.318 205.645 91.9629 164.5 91.9629C123.355 91.9629 90 125.318 90 166.463C90 207.608 123.355 240.963 164.5 240.963Z" fill="url(#paint4_linear_1_5033)"/>
<path d="M238.5 166.463C238.5 207.332 205.369 240.463 164.5 240.463C123.631 240.463 90.5 207.332 90.5 166.463C90.5 125.594 123.631 92.4629 164.5 92.4629C205.369 92.4629 238.5 125.594 238.5 166.463Z" stroke="white"/>
</g>
<path d="M114.444 182.403C112.631 182.403 110.924 182.19 109.324 181.763C107.724 181.31 106.431 180.843 105.444 180.363L106.924 175.203C107.751 175.47 108.791 175.763 110.044 176.083C111.324 176.403 112.604 176.563 113.884 176.563C114.951 176.563 115.818 176.43 116.484 176.163C117.178 175.87 117.684 175.483 118.004 175.003C118.351 174.523 118.524 173.963 118.524 173.323C118.524 172.816 118.404 172.363 118.164 171.963C117.951 171.563 117.618 171.23 117.164 170.963C116.738 170.696 116.218 170.496 115.604 170.363C114.991 170.203 114.311 170.123 113.564 170.123H110.884L111.124 164.803H113.364C113.898 164.803 114.431 164.763 114.964 164.683C115.498 164.603 115.978 164.47 116.404 164.283C116.858 164.096 117.218 163.83 117.484 163.483C117.751 163.136 117.884 162.71 117.884 162.203C117.884 161.536 117.591 160.936 117.004 160.403C116.418 159.843 115.351 159.563 113.804 159.563C112.791 159.563 111.764 159.67 110.724 159.883C109.711 160.096 108.818 160.35 108.044 160.643L106.844 155.523C107.884 155.043 109.178 154.63 110.724 154.283C112.271 153.936 113.858 153.763 115.484 153.763C117.351 153.763 119.004 154.043 120.444 154.603C121.911 155.163 123.058 155.963 123.884 157.003C124.711 158.043 125.124 159.31 125.124 160.803C125.124 162.35 124.684 163.683 123.804 164.803C122.924 165.896 121.551 166.723 119.684 167.283V167.363C120.911 167.55 121.991 167.95 122.924 168.563C123.884 169.176 124.631 169.95 125.164 170.883C125.724 171.816 126.004 172.896 126.004 174.123C126.004 175.776 125.498 177.23 124.484 178.483C123.498 179.71 122.124 180.67 120.364 181.363C118.631 182.056 116.658 182.403 114.444 182.403ZM128.973 177.563C130.84 175.91 132.533 174.443 134.053 173.163C135.573 171.883 136.88 170.696 137.973 169.603C139.093 168.483 139.946 167.43 140.533 166.443C141.12 165.456 141.413 164.456 141.413 163.443C141.413 162.643 141.24 161.963 140.893 161.403C140.573 160.843 140.106 160.416 139.493 160.123C138.88 159.83 138.133 159.683 137.253 159.683C136.24 159.683 135.213 159.83 134.173 160.123C133.16 160.416 132.186 160.816 131.253 161.323L129.293 156.283C130.413 155.67 131.786 155.11 133.413 154.603C135.04 154.07 136.786 153.803 138.653 153.803C140.733 153.803 142.52 154.163 144.013 154.883C145.533 155.576 146.706 156.603 147.533 157.963C148.36 159.296 148.773 160.896 148.773 162.763C148.773 164.39 148.4 165.883 147.653 167.243C146.933 168.576 145.986 169.816 144.813 170.963C143.64 172.11 142.386 173.19 141.053 174.203C139.72 175.216 138.453 176.19 137.253 177.123L136.093 176.083L149.173 176.123L148.853 181.963H128.973V177.563ZM152.08 186.803L153.56 174.723H160.68L157.48 187.563L152.08 186.803ZM164.481 177.563C166.347 175.91 168.041 174.443 169.561 173.163C171.081 171.883 172.387 170.696 173.481 169.603C174.601 168.483 175.454 167.43 176.041 166.443C176.627 165.456 176.921 164.456 176.921 163.443C176.921 162.643 176.747 161.963 176.401 161.403C176.081 160.843 175.614 160.416 175.001 160.123C174.387 159.83 173.641 159.683 172.761 159.683C171.747 159.683 170.721 159.83 169.681 160.123C168.667 160.416 167.694 160.816 166.761 161.323L164.801 156.283C165.921 155.67 167.294 155.11 168.921 154.603C170.547 154.07 172.294 153.803 174.161 153.803C176.241 153.803 178.027 154.163 179.521 154.883C181.041 155.576 182.214 156.603 183.041 157.963C183.867 159.296 184.281 160.896 184.281 162.763C184.281 164.39 183.907 165.883 183.161 167.243C182.441 168.576 181.494 169.816 180.321 170.963C179.147 172.11 177.894 173.19 176.561 174.203C175.227 175.216 173.961 176.19 172.761 177.123L171.601 176.083L184.681 176.123L184.361 181.963H164.481V177.563ZM210.308 155.043H214.668L200.228 181.963H195.868L210.308 155.043ZM195.748 169.643C194.255 169.643 192.975 169.296 191.908 168.603C190.841 167.91 190.028 166.99 189.468 165.843C188.908 164.696 188.628 163.456 188.628 162.123C188.628 160.763 188.908 159.523 189.468 158.403C190.028 157.256 190.841 156.336 191.908 155.643C192.975 154.95 194.255 154.603 195.748 154.603C197.241 154.603 198.521 154.95 199.588 155.643C200.655 156.336 201.468 157.256 202.028 158.403C202.588 159.523 202.868 160.763 202.868 162.123C202.868 163.456 202.588 164.696 202.028 165.843C201.468 166.99 200.655 167.91 199.588 168.603C198.521 169.296 197.241 169.643 195.748 169.643ZM195.748 166.043C196.495 166.043 197.015 165.683 197.308 164.963C197.628 164.216 197.788 163.27 197.788 162.123C197.788 160.95 197.628 160.003 197.308 159.283C197.015 158.563 196.495 158.203 195.748 158.203C195.028 158.203 194.508 158.563 194.188 159.283C193.868 160.003 193.708 160.95 193.708 162.123C193.708 163.27 193.868 164.216 194.188 164.963C194.508 165.683 195.028 166.043 195.748 166.043ZM214.748 182.403C213.255 182.403 211.975 182.056 210.908 181.363C209.868 180.67 209.068 179.75 208.508 178.603C207.948 177.456 207.668 176.216 207.668 174.883C207.668 173.523 207.948 172.283 208.508 171.163C209.068 170.016 209.868 169.096 210.908 168.403C211.975 167.71 213.255 167.363 214.748 167.363C216.295 167.363 217.588 167.71 218.628 168.403C219.695 169.096 220.495 170.016 221.028 171.163C221.588 172.283 221.868 173.523 221.868 174.883C221.868 176.216 221.588 177.456 221.028 178.603C220.495 179.75 219.695 180.67 218.628 181.363C217.588 182.056 216.295 182.403 214.748 182.403ZM214.748 178.803C215.495 178.803 216.028 178.443 216.348 177.723C216.668 176.976 216.828 176.03 216.828 174.883C216.828 173.71 216.668 172.763 216.348 172.043C216.028 171.323 215.495 170.963 214.748 170.963C214.055 170.963 213.535 171.323 213.188 172.043C212.868 172.763 212.708 173.71 212.708 174.883C212.708 176.03 212.868 176.976 213.188 177.723C213.535 178.443 214.055 178.803 214.748 178.803Z" fill="#00215F"/>
<defs>
<filter id="filter0_f_1_5033" x="34" y="63.9629" width="260" height="260" filterUnits="userSpaceOnUse" color-interpolation-filters="sRGB">
<feFlood flood-opacity="0" result="BackgroundImageFix"/>
<feBlend mode="normal" in="SourceGraphic" in2="BackgroundImageFix" result="shape"/>
<feGaussianBlur stdDeviation="20" result="effect1_foregroundBlur_1_5033"/>
</filter>
<filter id="filter1_b_1_5033" x="-15" y="-14.7832" width="359" height="195.639" filterUnits="userSpaceOnUse" color-interpolation-filters="sRGB">
<feFlood flood-opacity="0" result="BackgroundImageFix"/>
<feGaussianBlur in="BackgroundImageFix" stdDeviation="7.5"/>
<feComposite in2="SourceAlpha" operator="in" result="effect1_backgroundBlur_1_5033"/>
<feBlend mode="normal" in="SourceGraphic" in2="effect1_backgroundBlur_1_5033" result="shape"/>
</filter>
<filter id="filter2_d_1_5033" x="85" y="86.9629" width="169" height="169" filterUnits="userSpaceOnUse" color-interpolation-filters="sRGB">
<feFlood flood-opacity="0" result="BackgroundImageFix"/>
<feColorMatrix in="SourceAlpha" type="matrix" values="0 0 0 0 0 0 0 0 0 0 0 0 0 0 0 0 0 0 127 0" result="hardAlpha"/>
<feOffset dx="5" dy="5"/>
<feGaussianBlur stdDeviation="5"/>
<feComposite in2="hardAlpha" operator="out"/>
<feColorMatrix type="matrix" values="0 0 0 0 0 0 0 0 0 0 0 0 0 0 0 0 0 0 0.3 0"/>
<feBlend mode="normal" in2="BackgroundImageFix" result="effect1_dropShadow_1_5033"/>
<feBlend mode="normal" in="SourceGraphic" in2="effect1_dropShadow_1_5033" result="shape"/>
</filter>
<linearGradient id="paint0_linear_1_5033" x1="-739" y1="193.963" x2="698" y2="193.963" gradientUnits="userSpaceOnUse">
<stop stop-color="#F599FC"/>
<stop offset="0.25" stop-color="#7D76FE"/>
<stop offset="0.54" stop-color="#6174FC"/>
<stop offset="0.775" stop-color="#619EFD"/>
<stop offset="1" stop-color="#7FECF8"/>
</linearGradient>
<linearGradient id="paint1_linear_1_5033" x1="82.1213" y1="235.599" x2="246.844" y2="97.3736" gradientUnits="userSpaceOnUse">
<stop stop-color="#FBC6EB"/>
<stop offset="1" stop-color="#4331ED"/>
</linearGradient>
<linearGradient id="paint2_linear_1_5033" x1="-681" y1="166.463" x2="759" y2="166.463" gradientUnits="userSpaceOnUse">
<stop stop-color="#F599FC"/>
<stop offset="0.25" stop-color="#7D76FE"/>
<stop offset="0.54" stop-color="#6174FC"/>
<stop offset="0.775" stop-color="#619EFD"/>
<stop offset="1" stop-color="#7FECF8"/>
</linearGradient>
<linearGradient id="paint3_linear_1_5033" x1="35" y1="165.963" x2="295" y2="165.963" gradientUnits="userSpaceOnUse">
<stop stop-color="#F599FC"/>
<stop offset="0.25" stop-color="#7D76FE"/>
<stop offset="0.54" stop-color="#6174FC"/>
<stop offset="0.775" stop-color="#619EFD"/>
<stop offset="1" stop-color="#7FECF8"/>
</linearGradient>
<linearGradient id="paint4_linear_1_5033" x1="90.044" y1="166.429" x2="239.035" y2="166.429" gradientUnits="userSpaceOnUse">
<stop stop-color="#F8F8F8"/>
<stop offset="1" stop-color="#D4D9E8"/>
</linearGradient>
</defs>
</svg>
