<svg viewBox="0 0 329 324" fill="none" xmlns="http://www.w3.org/2000/svg">
<g filter="url(#filter0_f_1_5018)">
<path d="M74 193.963C74 144.257 114.294 103.963 164 103.963C213.706 103.963 254 144.257 254 193.963C254 243.669 213.706 283.963 164 283.963C114.294 283.963 74 243.669 74 193.963Z" fill="url(#paint0_linear_1_5018)"/>
</g>
<mask id="mask0_1_5018" style="mask-type:alpha" maskUnits="userSpaceOnUse" x="57" y="58" width="215" height="216">
<path d="M164.5 273.963C223.871 273.963 272 225.833 272 166.463C272 107.092 223.871 58.9629 164.5 58.9629C105.129 58.9629 57 107.092 57 166.463C57 225.833 105.129 273.963 164.5 273.963Z" fill="url(#paint1_linear_1_5018)"/>
</mask>
<g mask="url(#mask0_1_5018)">
<rect x="-312" y="58.9629" width="1440" height="215" fill="url(#paint2_linear_1_5018)"/>
<path d="M271.5 166.463C271.5 225.557 223.594 273.463 164.5 273.463C105.406 273.463 57.5 225.557 57.5 166.463C57.5 107.368 105.406 59.4629 164.5 59.4629C223.594 59.4629 271.5 107.368 271.5 166.463Z" stroke="white" stroke-opacity="0.5"/>
</g>
<g filter="url(#filter1_b_1_5018)">
<path d="M164.5 0.216797C73.8199 0.216797 0 74.0367 0 164.717V165.856H72.6808V164.717C72.6808 114.136 113.806 72.8975 164.5 72.8975C215.08 72.8975 256.319 114.023 256.319 164.717V165.856H329V164.717C329 74.0367 255.18 0.216797 164.5 0.216797Z" fill="white" fill-opacity="0.3"/>
<path d="M0.5 164.717C0.5 74.3129 74.0961 0.716797 164.5 0.716797C254.904 0.716797 328.5 74.3129 328.5 164.717V165.356H256.819V164.717C256.819 113.746 215.356 72.3975 164.5 72.3975C113.529 72.3975 72.1808 113.861 72.1808 164.717V165.356H0.5V164.717Z" stroke="white"/>
</g>
<path d="M290.108 130.637C282.332 103.096 265.685 78.8912 242.75 61.7758C219.815 44.6604 191.873 35.5911 163.258 35.9746C134.643 36.358 106.954 46.1728 84.4862 63.8966C62.0179 81.6205 46.0258 106.263 38.9901 134.002" stroke="#E2DFEB" stroke-width="8" stroke-linecap="round"/>
<path d="M211.957 44.7399C194.796 38.0924 176.42 35.1643 158.042 36.1492C139.665 37.1341 121.707 42.0097 105.355 50.4533C89.0028 58.897 74.6298 70.7163 63.1866 85.1295C51.7435 99.5427 43.4909 116.221 38.9749 134.062" stroke="url(#paint3_linear_1_5018)" stroke-width="8" stroke-linecap="round"/>
<g opacity="0.9" filter="url(#filter2_d_1_5018)">
<path d="M164.5 240.963C205.645 240.963 239 207.608 239 166.463C239 125.318 205.645 91.9629 164.5 91.9629C123.355 91.9629 90 125.318 90 166.463C90 207.608 123.355 240.963 164.5 240.963Z" fill="url(#paint4_linear_1_5018)"/>
<path d="M238.5 166.463C238.5 207.332 205.369 240.463 164.5 240.463C123.631 240.463 90.5 207.332 90.5 166.463C90.5 125.594 123.631 92.4629 164.5 92.4629C205.369 92.4629 238.5 125.594 238.5 166.463Z" stroke="white"/>
</g>
<path d="M132.907 182.403C130.427 182.403 128.36 181.856 126.707 180.763C125.053 179.67 123.813 178.203 122.987 176.363C122.187 174.523 121.787 172.456 121.787 170.163C121.787 167.55 122.227 165.203 123.107 163.123C124.013 161.016 125.28 159.243 126.907 157.803C128.56 156.363 130.52 155.296 132.787 154.603C135.053 153.91 137.56 153.63 140.307 153.763V159.403C138.44 159.323 136.76 159.47 135.267 159.843C133.8 160.19 132.56 160.803 131.547 161.683C130.533 162.536 129.773 163.71 129.267 165.203H129.387C130.027 164.616 130.813 164.163 131.747 163.843C132.707 163.523 133.733 163.363 134.827 163.363C136.533 163.363 138.04 163.736 139.347 164.483C140.68 165.203 141.72 166.243 142.467 167.603C143.24 168.936 143.627 170.523 143.627 172.363C143.627 174.31 143.173 176.043 142.267 177.563C141.387 179.083 140.133 180.27 138.507 181.123C136.907 181.976 135.04 182.403 132.907 182.403ZM132.907 176.963C133.547 176.963 134.12 176.803 134.627 176.483C135.16 176.136 135.56 175.643 135.827 175.003C136.12 174.363 136.267 173.616 136.267 172.763C136.267 171.99 136.133 171.296 135.867 170.683C135.6 170.07 135.2 169.576 134.667 169.203C134.133 168.83 133.467 168.643 132.667 168.643C132.187 168.643 131.72 168.723 131.267 168.883C130.813 169.016 130.413 169.23 130.067 169.523C129.72 169.79 129.413 170.123 129.147 170.523C129.013 171.43 129.04 172.39 129.227 173.403C129.413 174.39 129.8 175.23 130.387 175.923C131 176.616 131.84 176.963 132.907 176.963ZM157.078 182.403C154.758 182.403 152.785 182.07 151.158 181.403C149.531 180.71 148.291 179.79 147.438 178.643C146.611 177.47 146.198 176.176 146.198 174.763C146.198 173.243 146.691 171.83 147.678 170.523C148.665 169.19 150.118 168.203 152.038 167.563L157.198 170.403C156.691 170.43 156.158 170.616 155.598 170.963C155.038 171.283 154.558 171.71 154.158 172.243C153.785 172.776 153.598 173.403 153.598 174.123C153.598 174.656 153.745 175.176 154.038 175.683C154.331 176.19 154.758 176.603 155.318 176.923C155.878 177.243 156.545 177.403 157.318 177.403C158.091 177.403 158.731 177.256 159.238 176.963C159.771 176.67 160.171 176.283 160.438 175.803C160.731 175.323 160.878 174.816 160.878 174.283C160.878 173.563 160.625 172.923 160.118 172.363C159.638 171.803 159.038 171.363 158.318 171.043C157.598 170.696 156.891 170.456 156.198 170.323L151.318 168.403V167.723C149.931 166.976 148.878 166.056 148.158 164.963C147.465 163.87 147.118 162.696 147.118 161.443C147.118 159.79 147.585 158.403 148.518 157.283C149.478 156.163 150.731 155.31 152.278 154.723C153.851 154.136 155.571 153.843 157.438 153.843C159.545 153.843 161.331 154.19 162.798 154.883C164.265 155.55 165.371 156.43 166.118 157.523C166.891 158.616 167.278 159.816 167.278 161.123C167.278 162.536 166.851 163.83 165.998 165.003C165.145 166.15 163.985 167.03 162.518 167.643L157.238 165.003C157.611 164.95 158.025 164.776 158.478 164.483C158.958 164.19 159.358 163.803 159.678 163.323C160.025 162.843 160.198 162.296 160.198 161.683C160.198 161.23 160.091 160.79 159.878 160.363C159.665 159.91 159.331 159.536 158.878 159.243C158.451 158.923 157.878 158.763 157.158 158.763C156.491 158.763 155.931 158.91 155.478 159.203C155.051 159.47 154.731 159.816 154.518 160.243C154.305 160.643 154.198 161.056 154.198 161.483C154.198 162.336 154.598 163.096 155.398 163.763C156.198 164.43 157.198 164.87 158.398 165.083L163.118 166.803V167.483C164.051 167.856 164.905 168.363 165.678 169.003C166.478 169.616 167.105 170.35 167.558 171.203C168.038 172.056 168.278 173.056 168.278 174.203C168.278 175.83 167.811 177.256 166.878 178.483C165.971 179.71 164.678 180.67 162.998 181.363C161.345 182.056 159.371 182.403 157.078 182.403ZM193.245 155.043H197.605L183.165 181.963H178.805L193.245 155.043ZM178.685 169.643C177.192 169.643 175.912 169.296 174.845 168.603C173.779 167.91 172.965 166.99 172.405 165.843C171.845 164.696 171.565 163.456 171.565 162.123C171.565 160.763 171.845 159.523 172.405 158.403C172.965 157.256 173.779 156.336 174.845 155.643C175.912 154.95 177.192 154.603 178.685 154.603C180.179 154.603 181.459 154.95 182.525 155.643C183.592 156.336 184.405 157.256 184.965 158.403C185.525 159.523 185.805 160.763 185.805 162.123C185.805 163.456 185.525 164.696 184.965 165.843C184.405 166.99 183.592 167.91 182.525 168.603C181.459 169.296 180.179 169.643 178.685 169.643ZM178.685 166.043C179.432 166.043 179.952 165.683 180.245 164.963C180.565 164.216 180.725 163.27 180.725 162.123C180.725 160.95 180.565 160.003 180.245 159.283C179.952 158.563 179.432 158.203 178.685 158.203C177.965 158.203 177.445 158.563 177.125 159.283C176.805 160.003 176.645 160.95 176.645 162.123C176.645 163.27 176.805 164.216 177.125 164.963C177.445 165.683 177.965 166.043 178.685 166.043ZM197.685 182.403C196.192 182.403 194.912 182.056 193.845 181.363C192.805 180.67 192.005 179.75 191.445 178.603C190.885 177.456 190.605 176.216 190.605 174.883C190.605 173.523 190.885 172.283 191.445 171.163C192.005 170.016 192.805 169.096 193.845 168.403C194.912 167.71 196.192 167.363 197.685 167.363C199.232 167.363 200.525 167.71 201.565 168.403C202.632 169.096 203.432 170.016 203.965 171.163C204.525 172.283 204.805 173.523 204.805 174.883C204.805 176.216 204.525 177.456 203.965 178.603C203.432 179.75 202.632 180.67 201.565 181.363C200.525 182.056 199.232 182.403 197.685 182.403ZM197.685 178.803C198.432 178.803 198.965 178.443 199.285 177.723C199.605 176.976 199.765 176.03 199.765 174.883C199.765 173.71 199.605 172.763 199.285 172.043C198.965 171.323 198.432 170.963 197.685 170.963C196.992 170.963 196.472 171.323 196.125 172.043C195.805 172.763 195.645 173.71 195.645 174.883C195.645 176.03 195.805 176.976 196.125 177.723C196.472 178.443 196.992 178.803 197.685 178.803Z" fill="#00215F"/>
<defs>
<filter id="filter0_f_1_5018" x="34" y="63.9629" width="260" height="260" filterUnits="userSpaceOnUse" color-interpolation-filters="sRGB">
<feFlood flood-opacity="0" result="BackgroundImageFix"/>
<feBlend mode="normal" in="SourceGraphic" in2="BackgroundImageFix" result="shape"/>
<feGaussianBlur stdDeviation="20" result="effect1_foregroundBlur_1_5018"/>
</filter>
<filter id="filter1_b_1_5018" x="-15" y="-14.7832" width="359" height="195.639" filterUnits="userSpaceOnUse" color-interpolation-filters="sRGB">
<feFlood flood-opacity="0" result="BackgroundImageFix"/>
<feGaussianBlur in="BackgroundImageFix" stdDeviation="7.5"/>
<feComposite in2="SourceAlpha" operator="in" result="effect1_backgroundBlur_1_5018"/>
<feBlend mode="normal" in="SourceGraphic" in2="effect1_backgroundBlur_1_5018" result="shape"/>
</filter>
<filter id="filter2_d_1_5018" x="85" y="86.9629" width="169" height="169" filterUnits="userSpaceOnUse" color-interpolation-filters="sRGB">
<feFlood flood-opacity="0" result="BackgroundImageFix"/>
<feColorMatrix in="SourceAlpha" type="matrix" values="0 0 0 0 0 0 0 0 0 0 0 0 0 0 0 0 0 0 127 0" result="hardAlpha"/>
<feOffset dx="5" dy="5"/>
<feGaussianBlur stdDeviation="5"/>
<feComposite in2="hardAlpha" operator="out"/>
<feColorMatrix type="matrix" values="0 0 0 0 0 0 0 0 0 0 0 0 0 0 0 0 0 0 0.3 0"/>
<feBlend mode="normal" in2="BackgroundImageFix" result="effect1_dropShadow_1_5018"/>
<feBlend mode="normal" in="SourceGraphic" in2="effect1_dropShadow_1_5018" result="shape"/>
</filter>
<linearGradient id="paint0_linear_1_5018" x1="-365" y1="193.963" x2="1068.5" y2="193.963" gradientUnits="userSpaceOnUse">
<stop stop-color="#F599FC"/>
<stop offset="0.25" stop-color="#7D76FE"/>
<stop offset="0.54" stop-color="#6174FC"/>
<stop offset="0.775" stop-color="#619EFD"/>
<stop offset="1" stop-color="#7FECF8"/>
</linearGradient>
<linearGradient id="paint1_linear_1_5018" x1="82.1213" y1="235.599" x2="246.844" y2="97.3736" gradientUnits="userSpaceOnUse">
<stop stop-color="#FBC6EB"/>
<stop offset="1" stop-color="#4331ED"/>
</linearGradient>
<linearGradient id="paint2_linear_1_5018" x1="-312" y1="166.463" x2="1128" y2="166.463" gradientUnits="userSpaceOnUse">
<stop stop-color="#F599FC"/>
<stop offset="0.25" stop-color="#7D76FE"/>
<stop offset="0.54" stop-color="#6174FC"/>
<stop offset="0.775" stop-color="#619EFD"/>
<stop offset="1" stop-color="#7FECF8"/>
</linearGradient>
<linearGradient id="paint3_linear_1_5018" x1="35" y1="165.963" x2="295" y2="165.963" gradientUnits="userSpaceOnUse">
<stop stop-color="#F599FC"/>
<stop offset="0.25" stop-color="#7D76FE"/>
<stop offset="0.54" stop-color="#6174FC"/>
<stop offset="0.775" stop-color="#619EFD"/>
<stop offset="1" stop-color="#7FECF8"/>
</linearGradient>
<linearGradient id="paint4_linear_1_5018" x1="90.044" y1="166.429" x2="239.035" y2="166.429" gradientUnits="userSpaceOnUse">
<stop stop-color="#F8F8F8"/>
<stop offset="1" stop-color="#D3D4E4"/>
</linearGradient>
</defs>
</svg>
