<svg viewBox="0 0 329 324" fill="none" xmlns="http://www.w3.org/2000/svg">
<g filter="url(#filter0_f_1_5048)">
<path d="M74 193.963C74 144.257 114.294 103.963 164 103.963C213.706 103.963 254 144.257 254 193.963C254 243.669 213.706 283.963 164 283.963C114.294 283.963 74 243.669 74 193.963Z" fill="url(#paint0_linear_1_5048)"/>
</g>
<mask id="mask0_1_5048" style="mask-type:alpha" maskUnits="userSpaceOnUse" x="57" y="58" width="215" height="216">
<path d="M164.5 273.963C223.871 273.963 272 225.833 272 166.463C272 107.092 223.871 58.9629 164.5 58.9629C105.129 58.9629 57 107.092 57 166.463C57 225.833 105.129 273.963 164.5 273.963Z" fill="url(#paint1_linear_1_5048)"/>
</mask>
<g mask="url(#mask0_1_5048)">
<rect x="-1050" y="58.9629" width="1440" height="215" fill="url(#paint2_linear_1_5048)"/>
<path d="M271.5 166.463C271.5 225.557 223.594 273.463 164.5 273.463C105.406 273.463 57.5 225.557 57.5 166.463C57.5 107.368 105.406 59.4629 164.5 59.4629C223.594 59.4629 271.5 107.368 271.5 166.463Z" stroke="white" stroke-opacity="0.5"/>
</g>
<g filter="url(#filter1_b_1_5048)">
<path d="M164.5 0.216797C73.8199 0.216797 0 74.0367 0 164.717V165.856H72.6808V164.717C72.6808 114.136 113.806 72.8975 164.5 72.8975C215.08 72.8975 256.319 114.023 256.319 164.717V165.856H329V164.717C329 74.0367 255.18 0.216797 164.5 0.216797Z" fill="white" fill-opacity="0.3"/>
<path d="M0.5 164.717C0.5 74.3129 74.0961 0.716797 164.5 0.716797C254.904 0.716797 328.5 74.3129 328.5 164.717V165.356H256.819V164.717C256.819 113.746 215.356 72.3975 164.5 72.3975C113.529 72.3975 72.1808 113.861 72.1808 164.717V165.356H0.5V164.717Z" stroke="white"/>
</g>
<path d="M290.108 130.637C282.332 103.096 265.685 78.8912 242.75 61.7758C219.815 44.6604 191.873 35.5911 163.258 35.9746C134.643 36.358 106.954 46.1728 84.4862 63.8966C62.0179 81.6205 46.0258 106.263 38.9901 134.002" stroke="#E2DFEB" stroke-width="8" stroke-linecap="round"/>
<path d="M52.4167 100.963C46.4743 111.255 41.9714 122.314 39.0338 133.83" stroke="url(#paint3_linear_1_5048)" stroke-width="8" stroke-linecap="round"/>
<g opacity="0.9" filter="url(#filter2_d_1_5048)">
<path d="M164.5 240.963C205.645 240.963 239 207.608 239 166.463C239 125.318 205.645 91.9629 164.5 91.9629C123.355 91.9629 90 125.318 90 166.463C90 207.608 123.355 240.963 164.5 240.963Z" fill="url(#paint4_linear_1_5048)"/>
<path d="M238.5 166.463C238.5 207.332 205.369 240.463 164.5 240.463C123.631 240.463 90.5 207.332 90.5 166.463C90.5 125.594 123.631 92.4629 164.5 92.4629C205.369 92.4629 238.5 125.594 238.5 166.463Z" stroke="white"/>
</g>
<path d="M127.105 153.723C129.585 153.723 131.638 154.27 133.265 155.363C134.891 156.456 136.118 157.923 136.945 159.763C137.798 161.603 138.225 163.67 138.225 165.963C138.225 168.576 137.771 170.923 136.865 173.003C135.985 175.083 134.718 176.843 133.065 178.283C131.438 179.723 129.491 180.803 127.225 181.523C124.958 182.216 122.438 182.496 119.665 182.363V176.683C121.531 176.763 123.198 176.63 124.665 176.283C126.158 175.936 127.425 175.323 128.465 174.443C129.505 173.563 130.265 172.376 130.745 170.883H130.625C129.985 171.47 129.185 171.936 128.225 172.283C127.265 172.603 126.238 172.763 125.145 172.763C123.465 172.763 121.958 172.403 120.625 171.683C119.318 170.936 118.278 169.896 117.505 168.563C116.731 167.203 116.345 165.603 116.345 163.763C116.345 161.79 116.798 160.056 117.705 158.563C118.611 157.043 119.865 155.856 121.465 155.003C123.065 154.15 124.945 153.723 127.105 153.723ZM127.065 159.163C126.425 159.163 125.851 159.336 125.345 159.683C124.838 160.003 124.438 160.483 124.145 161.123C123.878 161.736 123.745 162.47 123.745 163.323C123.745 164.07 123.865 164.763 124.105 165.403C124.371 166.043 124.771 166.55 125.305 166.923C125.838 167.296 126.505 167.483 127.305 167.483C127.785 167.483 128.251 167.416 128.705 167.283C129.158 167.123 129.571 166.896 129.945 166.603C130.318 166.31 130.625 165.976 130.865 165.603C130.998 164.696 130.958 163.75 130.745 162.763C130.558 161.75 130.171 160.896 129.585 160.203C128.998 159.51 128.158 159.163 127.065 159.163ZM140.596 186.803L142.076 174.723H149.196L145.996 187.563L140.596 186.803ZM163.836 182.403C161.356 182.403 159.29 181.856 157.636 180.763C155.983 179.67 154.743 178.203 153.916 176.363C153.116 174.523 152.716 172.456 152.716 170.163C152.716 167.55 153.156 165.203 154.036 163.123C154.943 161.016 156.21 159.243 157.836 157.803C159.49 156.363 161.45 155.296 163.716 154.603C165.983 153.91 168.49 153.63 171.236 153.763V159.403C169.37 159.323 167.69 159.47 166.196 159.843C164.73 160.19 163.49 160.803 162.476 161.683C161.463 162.536 160.703 163.71 160.196 165.203H160.316C160.956 164.616 161.743 164.163 162.676 163.843C163.636 163.523 164.663 163.363 165.756 163.363C167.463 163.363 168.97 163.736 170.276 164.483C171.61 165.203 172.65 166.243 173.396 167.603C174.17 168.936 174.556 170.523 174.556 172.363C174.556 174.31 174.103 176.043 173.196 177.563C172.316 179.083 171.063 180.27 169.436 181.123C167.836 181.976 165.97 182.403 163.836 182.403ZM163.836 176.963C164.476 176.963 165.05 176.803 165.556 176.483C166.09 176.136 166.49 175.643 166.756 175.003C167.05 174.363 167.196 173.616 167.196 172.763C167.196 171.99 167.063 171.296 166.796 170.683C166.53 170.07 166.13 169.576 165.596 169.203C165.063 168.83 164.396 168.643 163.596 168.643C163.116 168.643 162.65 168.723 162.196 168.883C161.743 169.016 161.343 169.23 160.996 169.523C160.65 169.79 160.343 170.123 160.076 170.523C159.943 171.43 159.97 172.39 160.156 173.403C160.343 174.39 160.73 175.23 161.316 175.923C161.93 176.616 162.77 176.963 163.836 176.963ZM199.488 155.043H203.848L189.408 181.963H185.048L199.488 155.043ZM184.928 169.643C183.434 169.643 182.154 169.296 181.088 168.603C180.021 167.91 179.208 166.99 178.648 165.843C178.088 164.696 177.808 163.456 177.808 162.123C177.808 160.763 178.088 159.523 178.648 158.403C179.208 157.256 180.021 156.336 181.088 155.643C182.154 154.95 183.434 154.603 184.928 154.603C186.421 154.603 187.701 154.95 188.768 155.643C189.834 156.336 190.648 157.256 191.208 158.403C191.768 159.523 192.048 160.763 192.048 162.123C192.048 163.456 191.768 164.696 191.208 165.843C190.648 166.99 189.834 167.91 188.768 168.603C187.701 169.296 186.421 169.643 184.928 169.643ZM184.928 166.043C185.674 166.043 186.194 165.683 186.488 164.963C186.808 164.216 186.968 163.27 186.968 162.123C186.968 160.95 186.808 160.003 186.488 159.283C186.194 158.563 185.674 158.203 184.928 158.203C184.208 158.203 183.688 158.563 183.368 159.283C183.048 160.003 182.888 160.95 182.888 162.123C182.888 163.27 183.048 164.216 183.368 164.963C183.688 165.683 184.208 166.043 184.928 166.043ZM203.928 182.403C202.434 182.403 201.154 182.056 200.088 181.363C199.048 180.67 198.248 179.75 197.688 178.603C197.128 177.456 196.848 176.216 196.848 174.883C196.848 173.523 197.128 172.283 197.688 171.163C198.248 170.016 199.048 169.096 200.088 168.403C201.154 167.71 202.434 167.363 203.928 167.363C205.474 167.363 206.768 167.71 207.808 168.403C208.874 169.096 209.674 170.016 210.208 171.163C210.768 172.283 211.048 173.523 211.048 174.883C211.048 176.216 210.768 177.456 210.208 178.603C209.674 179.75 208.874 180.67 207.808 181.363C206.768 182.056 205.474 182.403 203.928 182.403ZM203.928 178.803C204.674 178.803 205.208 178.443 205.528 177.723C205.848 176.976 206.008 176.03 206.008 174.883C206.008 173.71 205.848 172.763 205.528 172.043C205.208 171.323 204.674 170.963 203.928 170.963C203.234 170.963 202.714 171.323 202.368 172.043C202.048 172.763 201.888 173.71 201.888 174.883C201.888 176.03 202.048 176.976 202.368 177.723C202.714 178.443 203.234 178.803 203.928 178.803Z" fill="#00215F"/>
<defs>
<filter id="filter0_f_1_5048" x="34" y="63.9629" width="260" height="260" filterUnits="userSpaceOnUse" color-interpolation-filters="sRGB">
<feFlood flood-opacity="0" result="BackgroundImageFix"/>
<feBlend mode="normal" in="SourceGraphic" in2="BackgroundImageFix" result="shape"/>
<feGaussianBlur stdDeviation="20" result="effect1_foregroundBlur_1_5048"/>
</filter>
<filter id="filter1_b_1_5048" x="-15" y="-14.7832" width="359" height="195.639" filterUnits="userSpaceOnUse" color-interpolation-filters="sRGB">
<feFlood flood-opacity="0" result="BackgroundImageFix"/>
<feGaussianBlur in="BackgroundImageFix" stdDeviation="7.5"/>
<feComposite in2="SourceAlpha" operator="in" result="effect1_backgroundBlur_1_5048"/>
<feBlend mode="normal" in="SourceGraphic" in2="effect1_backgroundBlur_1_5048" result="shape"/>
</filter>
<filter id="filter2_d_1_5048" x="85" y="86.9629" width="169" height="169" filterUnits="userSpaceOnUse" color-interpolation-filters="sRGB">
<feFlood flood-opacity="0" result="BackgroundImageFix"/>
<feColorMatrix in="SourceAlpha" type="matrix" values="0 0 0 0 0 0 0 0 0 0 0 0 0 0 0 0 0 0 127 0" result="hardAlpha"/>
<feOffset dx="5" dy="5"/>
<feGaussianBlur stdDeviation="5"/>
<feComposite in2="hardAlpha" operator="out"/>
<feColorMatrix type="matrix" values="0 0 0 0 0 0 0 0 0 0 0 0 0 0 0 0 0 0 0.3 0"/>
<feBlend mode="normal" in2="BackgroundImageFix" result="effect1_dropShadow_1_5048"/>
<feBlend mode="normal" in="SourceGraphic" in2="effect1_dropShadow_1_5048" result="shape"/>
</filter>
<linearGradient id="paint0_linear_1_5048" x1="-1106.5" y1="193.963" x2="327.5" y2="193.963" gradientUnits="userSpaceOnUse">
<stop stop-color="#F599FC"/>
<stop offset="0.25" stop-color="#7D76FE"/>
<stop offset="0.54" stop-color="#6174FC"/>
<stop offset="0.775" stop-color="#619EFD"/>
<stop offset="1" stop-color="#7FECF8"/>
</linearGradient>
<linearGradient id="paint1_linear_1_5048" x1="82.1213" y1="235.599" x2="246.844" y2="97.3736" gradientUnits="userSpaceOnUse">
<stop stop-color="#FBC6EB"/>
<stop offset="1" stop-color="#4331ED"/>
</linearGradient>
<linearGradient id="paint2_linear_1_5048" x1="-1050" y1="166.463" x2="390" y2="166.463" gradientUnits="userSpaceOnUse">
<stop stop-color="#F599FC"/>
<stop offset="0.25" stop-color="#7D76FE"/>
<stop offset="0.54" stop-color="#6174FC"/>
<stop offset="0.775" stop-color="#619EFD"/>
<stop offset="1" stop-color="#7FECF8"/>
</linearGradient>
<linearGradient id="paint3_linear_1_5048" x1="35" y1="165.963" x2="295" y2="165.963" gradientUnits="userSpaceOnUse">
<stop stop-color="#F599FC"/>
<stop offset="0.25" stop-color="#7D76FE"/>
<stop offset="0.54" stop-color="#6174FC"/>
<stop offset="0.775" stop-color="#619EFD"/>
<stop offset="1" stop-color="#7FECF8"/>
</linearGradient>
<linearGradient id="paint4_linear_1_5048" x1="90.044" y1="166.429" x2="239.035" y2="166.429" gradientUnits="userSpaceOnUse">
<stop stop-color="#F8F8F8"/>
<stop offset="1" stop-color="#D0E0E8"/>
</linearGradient>
</defs>
</svg>
