<svg viewBox="0 0 30 31" xmlns="http://www.w3.org/2000/svg">
<g clip-path="url(#clip0_1_6489)">
<path d="M25.8891 23.5712L26.2307 16.3262C26.2307 14.9602 25.1189 13.8467 23.7401 13.8467C23.3032 13.8467 22.8928 13.9596 22.5366 14.1616C22.3759 12.9489 21.3331 12.0107 20.068 12.0107C19.632 12.0116 19.2216 12.1245 18.8645 12.3237C18.702 11.1129 17.6601 10.1737 16.396 10.1747C15.9682 10.1747 15.5661 10.283 15.2145 10.4749L15.2145 7.22139C15.2145 5.85538 14.1028 4.74185 12.7239 4.74185C11.357 4.74095 10.2444 5.85358 10.2444 7.22139L10.2444 19.721L5.95547 16.5961C4.81069 15.7377 3.18491 15.8525 2.17233 16.8651C1.41312 17.6243 1.41312 18.8599 2.17233 19.6191L10.8283 28.2751C12.1768 29.6236 13.9697 30.3663 15.8773 30.3663L18.7654 30.3663C20.6702 30.3672 22.4613 29.6245 23.808 28.2778C25.0657 27.0201 25.8047 25.3484 25.8891 23.5712ZM18.7654 29.0682L15.8773 29.0682C14.3167 29.0682 12.8497 28.4604 11.7463 27.357L3.09033 18.701C2.83695 18.4477 2.83695 18.0364 3.09033 17.783C3.64849 17.2248 4.54536 17.1615 5.1843 17.6407L10.5116 21.5211C10.7089 21.6652 10.9696 21.6855 11.1881 21.5753C11.4048 21.4651 11.5425 21.2412 11.5425 20.997L11.5425 7.22135C11.5425 6.56958 12.0731 6.03896 12.735 6.03806C13.0608 6.03896 13.3565 6.17115 13.5704 6.38506C13.7843 6.59898 13.9164 6.89456 13.9165 7.22139L13.9165 16.407C13.9165 16.7651 14.2075 17.0561 14.5655 17.0561C14.7446 17.0552 14.907 16.9827 15.0246 16.8652C15.1421 16.7476 15.2146 16.5852 15.2146 16.4052V12.6542C15.2146 12.0025 15.7443 11.4728 16.4071 11.4728C17.057 11.4728 17.5886 12.0043 17.5886 12.6542V16.4071C17.5886 16.7651 17.8796 17.0561 18.2376 17.0561C18.4166 17.0552 18.5791 16.9827 18.6966 16.8652C18.8142 16.7476 18.8867 16.5852 18.8867 16.4052L18.8867 14.4902C18.8867 13.8385 19.4164 13.3088 20.0792 13.3088C20.7291 13.3088 21.2606 13.8403 21.2606 14.4902L21.2606 16.4144C21.2616 16.4171 21.2606 16.4162 21.2606 16.4162V16.418C21.2606 16.4198 21.2606 16.4198 21.2606 16.4198C21.2606 16.4216 21.2606 16.4216 21.2606 16.4216L21.2616 16.4225C21.2625 16.4234 21.2616 16.4243 21.2616 16.4243C21.2707 16.775 21.559 17.0559 21.9106 17.055C22.2686 17.055 22.5596 16.764 22.5596 16.4059L22.5596 16.327C22.5596 16.0112 22.6826 15.7138 22.9057 15.4907C23.1288 15.2676 23.4244 15.1446 23.7512 15.1446C24.403 15.1465 24.9309 15.6762 24.9336 16.2958L24.593 23.5105C24.5231 24.9628 23.9191 26.3307 22.89 27.3598C21.7884 28.4614 20.3241 29.0682 18.7654 29.0682Z" />
<path d="M18.1847 9.28963C18.9953 7.14242 18.4758 4.70966 16.8601 3.09395C14.5825 0.816358 10.8755 0.816358 8.59795 3.09395C6.98223 4.70966 6.46262 7.14238 7.27231 9.29053C7.30626 9.37956 7.35768 9.45672 7.42103 9.52006C7.59543 9.69447 7.86352 9.76057 8.10954 9.66878C8.44462 9.54119 8.61352 9.1666 8.48779 8.83155C7.85711 7.15985 8.26015 5.26783 9.51599 4.01199C11.2877 2.24024 14.1703 2.2402 15.9421 4.01199C17.1979 5.26783 17.601 7.15985 16.9703 8.83155C16.8427 9.16664 17.0116 9.54304 17.3476 9.66783C17.6835 9.79452 18.058 9.62562 18.1847 9.28963Z" />
</g>
<defs>
<clipPath id="clip0_1_6489">
<rect width="30" height="30" transform="translate(0 0.962891)"/>
</clipPath>
</defs>
</svg>
