<svg viewBox="0 0 40 40" fill="none" xmlns="http://www.w3.org/2000/svg">
<rect width="40" height="40" rx="20" transform="matrix(-1 0 0 1 40 0)" fill="#212121" fill-opacity="0.4"/>
<rect x="-0.5" y="0.5" width="39" height="39" rx="19.5" transform="matrix(-1 0 0 1 39 0)" stroke="white" stroke-opacity="0.6"/>
<g clip-path="url(#clip0_270_104947)">
<path d="M22.1553 15.281L17.4356 20.0007L22.1553 24.7204C22.2256 24.7899 22.2815 24.8726 22.3198 24.9637C22.358 25.0549 22.3779 25.1528 22.3782 25.2516C22.3785 25.3505 22.3592 25.4485 22.3215 25.5399C22.2838 25.6313 22.2284 25.7143 22.1585 25.7842C22.0886 25.8542 22.0056 25.9096 21.9142 25.9473C21.8228 25.9849 21.7248 26.0042 21.6259 26.0039C21.527 26.0036 21.4292 25.9838 21.338 25.9455C21.2469 25.9072 21.1641 25.8513 21.0947 25.781L15.8447 20.531C15.704 20.3904 15.625 20.1996 15.625 20.0007C15.625 19.8018 15.704 19.611 15.8447 19.4704L21.0947 14.2204C21.2356 14.0811 21.4259 14.0033 21.624 14.0039C21.8222 14.0045 22.012 14.0835 22.1521 14.2236C22.2922 14.3637 22.3712 14.5535 22.3718 14.7516C22.3724 14.9498 22.2945 15.1401 22.1553 15.281V15.281Z" fill="white"/>
</g>
<defs>
<clipPath id="clip0_270_104947">
<rect width="12" height="12" fill="white" transform="translate(13 14)"/>
</clipPath>
</defs>
</svg>
