<svg width="51" height="51" viewBox="0 0 51 51" fill="none" xmlns="http://www.w3.org/2000/svg">
<mask id="mask0_1_6997" style="mask-type:alpha" maskUnits="userSpaceOnUse" x="0" y="0" width="51" height="51">
<rect width="51" height="51" rx="25.5" fill="#D9D9D9"/>
</mask>
<g mask="url(#mask0_1_6997)">
<rect width="102" height="51" fill="url(#paint0_linear_1_6997)"/>
<rect x="0.5" y="0.5" width="50" height="50" rx="25" stroke="white" stroke-opacity="0.5"/>
</g>
<g clip-path="url(#clip0_1_6997)" filter="url(#filter0_d_1_6997)">
<path d="M35.9206 18.1444C35.2443 17.4673 34.1462 17.4677 33.469 18.1444L22.4352 29.1786L17.5312 24.2746C16.854 23.5975 15.7563 23.5975 15.0792 24.2746C14.402 24.9518 14.402 26.0495 15.0792 26.7266L21.2089 32.8564C21.5473 33.1948 21.991 33.3644 22.4347 33.3644C22.8785 33.3644 23.3226 33.1952 23.6609 32.8564L35.9206 20.5964C36.5977 19.9197 36.5977 18.8216 35.9206 18.1444Z" fill="white"/>
</g>
<defs>
<filter id="filter0_d_1_6997" x="12.5713" y="14.5713" width="25.8569" height="25.8574" filterUnits="userSpaceOnUse" color-interpolation-filters="sRGB">
<feFlood flood-opacity="0" result="BackgroundImageFix"/>
<feColorMatrix in="SourceAlpha" type="matrix" values="0 0 0 0 0 0 0 0 0 0 0 0 0 0 0 0 0 0 127 0" result="hardAlpha"/>
<feOffset dy="2"/>
<feGaussianBlur stdDeviation="1"/>
<feColorMatrix type="matrix" values="0 0 0 0 0 0 0 0 0 0 0 0 0 0 0 0 0 0 0.4 0"/>
<feBlend mode="normal" in2="BackgroundImageFix" result="effect1_dropShadow_1_6997"/>
<feBlend mode="normal" in="SourceGraphic" in2="effect1_dropShadow_1_6997" result="shape"/>
</filter>
<linearGradient id="paint0_linear_1_6997" x1="0" y1="25.5" x2="195.925" y2="25.5" gradientUnits="userSpaceOnUse">
<stop stop-color="#F599FC"/>
<stop offset="0.25" stop-color="#7D76FE"/>
<stop offset="0.54" stop-color="#6174FC"/>
<stop offset="0.775" stop-color="#619EFD"/>
<stop offset="1" stop-color="#7FECF8"/>
</linearGradient>
<clipPath id="clip0_1_6997">
<rect width="21.8571" height="21.8571" fill="white" transform="translate(14.5713 14.5713)"/>
</clipPath>
</defs>
</svg>
