<svg viewBox="0 0 40 40" fill="none" xmlns="http://www.w3.org/2000/svg">
<rect width="40" height="40" rx="20" fill="#212121" fill-opacity="0.4"/>
<rect x="0.5" y="0.5" width="39" height="39" rx="19.5" stroke="white" stroke-opacity="0.6"/>
<g clip-path="url(#clip0_270_104943)">
<path d="M17.8447 15.281L22.5644 20.0007L17.8447 24.7204C17.7744 24.7899 17.7185 24.8726 17.6802 24.9637C17.642 25.0549 17.6221 25.1528 17.6218 25.2516C17.6215 25.3505 17.6408 25.4485 17.6785 25.5399C17.7162 25.6313 17.7716 25.7143 17.8415 25.7842C17.9114 25.8542 17.9944 25.9096 18.0858 25.9473C18.1772 25.9849 18.2752 26.0042 18.3741 26.0039C18.473 26.0036 18.5708 25.9838 18.662 25.9455C18.7531 25.9072 18.8359 25.8513 18.9053 25.781L24.1553 20.531C24.296 20.3904 24.375 20.1996 24.375 20.0007C24.375 19.8018 24.296 19.611 24.1553 19.4704L18.9053 14.2204C18.7644 14.0811 18.5741 14.0033 18.376 14.0039C18.1778 14.0045 17.988 14.0835 17.8479 14.2236C17.7078 14.3637 17.6288 14.5535 17.6282 14.7516C17.6276 14.9498 17.7055 15.1401 17.8447 15.281V15.281Z" fill="white"/>
</g>
<defs>
<clipPath id="clip0_270_104943">
<rect width="12" height="12" fill="white" transform="matrix(-1 0 0 1 27 14)"/>
</clipPath>
</defs>
</svg>
