<svg viewBox="0 0 24 25" xmlns="http://www.w3.org/2000/svg">
<g filter="url(#filter0_d_1_5104)">
<path d="M21 19.9629H3C2.73478 19.9629 2.48043 20.0682 2.29289 20.2558C2.10536 20.4433 2 20.6977 2 20.9629C2 21.2281 2.10536 21.4825 2.29289 21.67C2.48043 21.8575 2.73478 21.9629 3 21.9629H21C21.2652 21.9629 21.5196 21.8575 21.7071 21.67C21.8946 21.4825 22 21.2281 22 20.9629C22 20.6977 21.8946 20.4433 21.7071 20.2558C21.5196 20.0682 21.2652 19.9629 21 19.9629Z" />
<path d="M12.0002 2.96289C11.735 2.96289 11.4806 3.06825 11.2931 3.25578C11.1055 3.44332 11.0002 3.69767 11.0002 3.96289V14.5529L7.71019 11.2529C7.52188 11.0646 7.26649 10.9588 7.00019 10.9588C6.73388 10.9588 6.47849 11.0646 6.29019 11.2529C6.10188 11.4412 5.99609 11.6966 5.99609 11.9629C5.99609 12.2292 6.10188 12.4846 6.29019 12.6729L11.2902 17.6729C11.3831 17.7666 11.4937 17.841 11.6156 17.8918C11.7375 17.9426 11.8682 17.9687 12.0002 17.9687C12.1322 17.9687 12.2629 17.9426 12.3848 17.8918C12.5066 17.841 12.6172 17.7666 12.7102 17.6729L17.7102 12.6729C17.8034 12.5797 17.8774 12.469 17.9278 12.3471C17.9783 12.2253 18.0043 12.0948 18.0043 11.9629C18.0043 11.831 17.9783 11.7005 17.9278 11.5786C17.8774 11.4568 17.8034 11.3461 17.7102 11.2529C17.6169 11.1597 17.5063 11.0857 17.3844 11.0352C17.2626 10.9848 17.132 10.9588 17.0002 10.9588C16.8683 10.9588 16.7378 10.9848 16.6159 11.0352C16.4941 11.0857 16.3834 11.1597 16.2902 11.2529L13.0002 14.5529V3.96289C13.0002 3.69767 12.8948 3.44332 12.7073 3.25578C12.5198 3.06825 12.2654 2.96289 12.0002 2.96289Z" />
</g>
<defs>
<filter id="filter0_d_1_5104" x="-1" y="0.962891" width="26" height="26" filterUnits="userSpaceOnUse" color-interpolation-filters="sRGB">
<feFlood flood-opacity="0" result="BackgroundImageFix"/>
<feColorMatrix in="SourceAlpha" type="matrix" values="0 0 0 0 0 0 0 0 0 0 0 0 0 0 0 0 0 0 127 0" result="hardAlpha"/>
<feOffset dy="1"/>
<feGaussianBlur stdDeviation="0.5"/>
<feColorMatrix type="matrix" values="0 0 0 0 0 0 0 0 0 0 0 0 0 0 0 0 0 0 0.4 0"/>
<feBlend mode="normal" in2="BackgroundImageFix" result="effect1_dropShadow_1_5104"/>
<feBlend mode="normal" in="SourceGraphic" in2="effect1_dropShadow_1_5104" result="shape"/>
</filter>
</defs>
</svg>
