<svg viewBox="0 0 30 30" fill="none" xmlns="http://www.w3.org/2000/svg">
<path fill-rule="evenodd" clip-rule="evenodd" d="M10.4412 0.16342C10.0746 0.434781 7.7977 2.76467 7.7521 2.91512C7.6469 3.26203 7.73083 3.37456 9.14296 4.77978C9.8924 5.52558 10.5677 6.16735 10.6436 6.20597C10.9937 6.38391 11.4727 6.05072 11.4727 5.62926C11.4727 5.34289 11.401 5.24455 10.601 4.43386C9.92135 3.74521 9.92135 3.74521 15.5089 3.74521C21.0963 3.74521 21.0963 3.74521 21.2956 3.54593C21.5911 3.25043 21.5517 2.82246 21.2074 2.58849C21.0651 2.49179 20.6954 2.48411 15.4913 2.46928C9.92744 2.45346 9.92744 2.45346 10.7 1.67319C11.4584 0.907406 11.4727 0.888123 11.4714 0.634052C11.4685 0.0600337 10.9196 -0.190755 10.4412 0.16342ZM18.9128 5.81962C18.2975 6.05599 18.1677 6.17579 13.8068 10.5299C9.43014 14.8997 9.43014 14.8997 9.39498 14.6998C9.37564 14.5899 9.18979 13.4187 8.98196 12.097C8.77413 10.7754 8.58049 9.61492 8.55165 9.51821C8.2885 8.63679 7.55676 7.89837 6.66859 7.61804C5.59165 7.27817 4.59219 7.66898 4.15537 8.60069C4 8.93212 4 8.93212 4 15.467C4 21.5681 4.00709 22.0349 4.10673 22.4974C4.24188 23.1245 4.39632 23.578 4.67635 24.1705C5.07624 25.0165 5.51856 25.5525 7.12434 27.137C8.74072 28.732 9.10861 29.0166 10.1185 29.4531C11.5415 30.0684 13.2218 30.1694 14.7492 29.7314C15.4133 29.541 16.3202 29.0944 16.8603 28.6918C17.393 28.2947 22.5464 23.6209 22.7882 23.3156C22.8838 23.195 23.034 22.9424 23.1222 22.7543C23.2633 22.4531 23.2824 22.3422 23.2824 21.8262C23.2824 21.2889 23.2668 21.2072 23.0958 20.846C22.8511 20.3296 22.4511 19.908 21.9904 19.6812C21.6238 19.5008 21.6238 19.5008 21.7889 19.1868C22.2769 18.2591 22.1054 17.146 21.3569 16.3833C21.191 16.2142 20.9234 16.0138 20.7622 15.9378C20.6011 15.8619 20.4578 15.7903 20.4438 15.7789C20.4297 15.7674 21.5144 14.6574 22.8542 13.3121C25.5137 10.6417 25.5732 10.568 25.722 9.7598C25.8619 9.00069 25.5712 8.16135 24.9827 7.62496C24.2114 6.922 23.1946 6.78052 22.2742 7.24822C21.9311 7.42258 21.9311 7.42258 21.7643 7.06753C21.55 6.61137 21.1071 6.18013 20.6168 5.95008C20.2878 5.79577 20.1574 5.76875 19.678 5.75527C19.3129 5.74501 19.0494 5.76717 18.9128 5.81962ZM20.0639 7.09255C20.5558 7.24136 20.8729 7.99326 20.6713 8.5327C20.6373 8.62343 19.164 10.1483 17.3972 11.9212C15.6304 13.6941 14.1417 15.2099 14.0889 15.2896C13.93 15.5295 13.9645 15.8399 14.1732 16.0486C14.3228 16.1982 14.4 16.229 14.6256 16.229C14.8976 16.229 14.8976 16.229 18.8263 12.309C23.0694 8.07526 22.9072 8.21562 23.4926 8.27183C24.0102 8.32159 24.4204 8.73185 24.4702 9.24943C24.5264 9.83406 24.6654 9.67341 20.4327 13.9162C16.5097 17.8486 16.4733 17.8885 16.5084 18.2217C16.5532 18.6452 17.0938 18.8919 17.4524 18.6523C17.5321 18.5991 17.9402 18.2195 18.3593 17.8086C19.1037 17.0789 19.3234 16.9329 19.678 16.9329C20.2467 16.9329 20.7869 17.4815 20.7903 18.0624C20.7925 18.4575 20.6358 18.6936 19.8283 19.5111C18.9742 20.3757 18.8999 20.5081 19.0571 20.8844C19.1199 21.0346 19.2094 21.1241 19.3596 21.1869C19.632 21.3007 19.8207 21.2572 20.1351 21.0084C20.5299 20.6959 21.069 20.6312 21.4735 20.8477C21.6853 20.961 21.9563 21.317 21.9974 21.5355C22.0517 21.8253 21.9975 22.2347 21.8814 22.4119C21.7465 22.6179 16.5049 27.3797 16.0735 27.6882C15.5891 28.0347 14.989 28.3261 14.3692 28.5159C13.8847 28.6642 13.7712 28.6759 12.8207 28.6759C11.8737 28.6759 11.7555 28.6638 11.28 28.5181C10.7336 28.3507 10.0908 28.0502 9.65579 27.7586C9.32904 27.5397 6.74959 24.9935 6.40257 24.5474C5.95227 23.9685 5.68613 23.4233 5.41746 22.5295C5.29597 22.1251 5.29386 22.0269 5.27493 15.7308C5.26438 12.2172 5.27094 9.28079 5.28958 9.20553C5.39765 8.76872 5.98386 8.65015 6.55642 8.94929C6.9079 9.13292 7.21929 9.49735 7.30755 9.82837C7.33944 9.94788 7.59105 11.4789 7.86674 13.2306C8.1425 14.9824 8.39387 16.4639 8.42546 16.5229C8.58517 16.8213 8.97586 16.9546 9.26405 16.809C9.33443 16.7734 11.558 14.5811 14.2053 11.9372C18.7658 7.38261 19.0336 7.1262 19.3043 7.05481C19.5872 6.9802 19.7132 6.98647 20.0639 7.09255Z" fill="white"/>
<path fill-rule="evenodd" clip-rule="evenodd" d="M10.4412 0.16342C10.0746 0.434781 7.7977 2.76467 7.7521 2.91512C7.6469 3.26203 7.73083 3.37456 9.14296 4.77978C9.8924 5.52558 10.5677 6.16735 10.6436 6.20597C10.9937 6.38391 11.4727 6.05072 11.4727 5.62926C11.4727 5.34289 11.401 5.24455 10.601 4.43386C9.92135 3.74521 9.92135 3.74521 15.5089 3.74521C21.0963 3.74521 21.0963 3.74521 21.2956 3.54593C21.5911 3.25043 21.5517 2.82246 21.2074 2.58849C21.0651 2.49179 20.6954 2.48411 15.4913 2.46928C9.92744 2.45346 9.92744 2.45346 10.7 1.67319C11.4584 0.907406 11.4727 0.888123 11.4714 0.634052C11.4685 0.0600337 10.9196 -0.190755 10.4412 0.16342ZM18.9128 5.81962C18.2975 6.05599 18.1677 6.17579 13.8068 10.5299C9.43014 14.8997 9.43014 14.8997 9.39498 14.6998C9.37564 14.5899 9.18979 13.4187 8.98196 12.097C8.77413 10.7754 8.58049 9.61492 8.55165 9.51821C8.2885 8.63679 7.55676 7.89837 6.66859 7.61804C5.59165 7.27817 4.59219 7.66898 4.15537 8.60069C4 8.93212 4 8.93212 4 15.467C4 21.5681 4.00709 22.0349 4.10673 22.4974C4.24188 23.1245 4.39632 23.578 4.67635 24.1705C5.07624 25.0165 5.51856 25.5525 7.12434 27.137C8.74072 28.732 9.10861 29.0166 10.1185 29.4531C11.5415 30.0684 13.2218 30.1694 14.7492 29.7314C15.4133 29.541 16.3202 29.0944 16.8603 28.6918C17.393 28.2947 22.5464 23.6209 22.7882 23.3156C22.8838 23.195 23.034 22.9424 23.1222 22.7543C23.2633 22.4531 23.2824 22.3422 23.2824 21.8262C23.2824 21.2889 23.2668 21.2072 23.0958 20.846C22.8511 20.3296 22.4511 19.908 21.9904 19.6812C21.6238 19.5008 21.6238 19.5008 21.7889 19.1868C22.2769 18.2591 22.1054 17.146 21.3569 16.3833C21.191 16.2142 20.9234 16.0138 20.7622 15.9378C20.6011 15.8619 20.4578 15.7903 20.4438 15.7789C20.4297 15.7674 21.5144 14.6574 22.8542 13.3121C25.5137 10.6417 25.5732 10.568 25.722 9.7598C25.8619 9.00069 25.5712 8.16135 24.9827 7.62496C24.2114 6.922 23.1946 6.78052 22.2742 7.24822C21.9311 7.42258 21.9311 7.42258 21.7643 7.06753C21.55 6.61137 21.1071 6.18013 20.6168 5.95008C20.2878 5.79577 20.1574 5.76875 19.678 5.75527C19.3129 5.74501 19.0494 5.76717 18.9128 5.81962ZM20.0639 7.09255C20.5558 7.24136 20.8729 7.99326 20.6713 8.5327C20.6373 8.62343 19.164 10.1483 17.3972 11.9212C15.6304 13.6941 14.1417 15.2099 14.0889 15.2896C13.93 15.5295 13.9645 15.8399 14.1732 16.0486C14.3228 16.1982 14.4 16.229 14.6256 16.229C14.8976 16.229 14.8976 16.229 18.8263 12.309C23.0694 8.07526 22.9072 8.21562 23.4926 8.27183C24.0102 8.32159 24.4204 8.73185 24.4702 9.24943C24.5264 9.83406 24.6654 9.67341 20.4327 13.9162C16.5097 17.8486 16.4733 17.8885 16.5084 18.2217C16.5532 18.6452 17.0938 18.8919 17.4524 18.6523C17.5321 18.5991 17.9402 18.2195 18.3593 17.8086C19.1037 17.0789 19.3234 16.9329 19.678 16.9329C20.2467 16.9329 20.7869 17.4815 20.7903 18.0624C20.7925 18.4575 20.6358 18.6936 19.8283 19.5111C18.9742 20.3757 18.8999 20.5081 19.0571 20.8844C19.1199 21.0346 19.2094 21.1241 19.3596 21.1869C19.632 21.3007 19.8207 21.2572 20.1351 21.0084C20.5299 20.6959 21.069 20.6312 21.4735 20.8477C21.6853 20.961 21.9563 21.317 21.9974 21.5355C22.0517 21.8253 21.9975 22.2347 21.8814 22.4119C21.7465 22.6179 16.5049 27.3797 16.0735 27.6882C15.5891 28.0347 14.989 28.3261 14.3692 28.5159C13.8847 28.6642 13.7712 28.6759 12.8207 28.6759C11.8737 28.6759 11.7555 28.6638 11.28 28.5181C10.7336 28.3507 10.0908 28.0502 9.65579 27.7586C9.32904 27.5397 6.74959 24.9935 6.40257 24.5474C5.95227 23.9685 5.68613 23.4233 5.41746 22.5295C5.29597 22.1251 5.29386 22.0269 5.27493 15.7308C5.26438 12.2172 5.27094 9.28079 5.28958 9.20553C5.39765 8.76872 5.98386 8.65015 6.55642 8.94929C6.9079 9.13292 7.21929 9.49735 7.30755 9.82837C7.33944 9.94788 7.59105 11.4789 7.86674 13.2306C8.1425 14.9824 8.39387 16.4639 8.42546 16.5229C8.58517 16.8213 8.97586 16.9546 9.26405 16.809C9.33443 16.7734 11.558 14.5811 14.2053 11.9372C18.7658 7.38261 19.0336 7.1262 19.3043 7.05481C19.5872 6.9802 19.7132 6.98647 20.0639 7.09255Z" fill="#00215F" fill-opacity="0.5"/>
</svg>
