<svg viewBox="0 0 206 206" fill="none" xmlns="http://www.w3.org/2000/svg">
<g opacity="0.3" filter="url(#filter0_b_1_8761)">
<circle cx="103" cy="103" r="93" stroke="white" stroke-opacity="0.6" stroke-width="5"/>
</g>
<g filter="url(#filter1_b_1_8761)">
<path d="M30.168 30.168C10.8518 49.4842 5.64463e-06 75.6827 0 103C-5.64463e-06 130.317 10.8517 156.516 30.168 175.832L44.3137 161.686C28.7491 146.122 20.005 125.012 20.005 103C20.005 80.9883 28.7491 59.8783 44.3137 44.3137L30.168 30.168Z" fill="#F17F27"/>
</g>
<g filter="url(#filter2_b_1_8761)">
<path d="M172.296 172.296C190.675 153.918 201 128.991 201 103C201 77.0088 190.675 52.0821 172.296 33.7035L165.346 40.6544C181.881 57.1895 191.17 79.6159 191.17 103C191.17 126.384 181.881 148.811 165.346 165.346L172.296 172.296Z" fill="#17A0DC"/>
</g>
<g filter="url(#filter3_d_1_8761)">
<path d="M103.5 176.961C144.645 176.961 178 143.606 178 102.461C178 61.3157 144.645 27.9609 103.5 27.9609C62.3548 27.9609 29 61.3157 29 102.461C29 143.606 62.3548 176.961 103.5 176.961Z" fill="url(#paint0_linear_1_8761)"/>
<path d="M177.5 102.461C177.5 143.33 144.369 176.461 103.5 176.461C62.631 176.461 29.5 143.33 29.5 102.461C29.5 61.5919 62.631 28.4609 103.5 28.4609C144.369 28.4609 177.5 61.5919 177.5 102.461Z" stroke="white"/>
</g>
<path d="M73.5401 126.568C72.819 126.568 72.51 126.156 72.407 125.95V128.01H71.377V122.551H72.407V123.169C72.613 122.86 72.9221 122.551 73.5401 122.551C74.3641 122.551 75.1882 123.272 75.1882 124.611C75.2912 125.538 74.7762 126.568 73.5401 126.568ZM73.3341 123.375C72.7161 123.375 72.407 123.993 72.407 124.611C72.407 125.126 72.613 125.847 73.2311 125.847C73.8491 125.847 74.1581 125.332 74.1581 124.714C74.1581 123.993 74.0551 123.375 73.3341 123.375Z" fill="#024995"/>
<path d="M78.1754 126.566C77.1453 126.566 76.1152 125.948 76.1152 124.505C76.1152 123.063 77.0423 122.445 78.1754 122.445C79.2054 122.445 80.1325 123.063 80.1325 124.505C80.2355 125.948 79.3084 126.566 78.1754 126.566ZM78.1754 123.269C77.3513 123.269 77.2483 123.99 77.2483 124.505C77.2483 125.02 77.4543 125.742 78.1754 125.742C78.9994 125.742 79.1024 125.02 79.1024 124.505C79.1024 123.99 78.9994 123.269 78.1754 123.269Z" fill="#024995"/>
<path d="M83.0167 126.568C82.0897 126.568 81.1626 126.259 81.1626 125.229H82.1927C82.1927 125.538 82.3987 125.847 83.0167 125.847C83.5318 125.847 83.8408 125.641 83.8408 125.332C83.8408 125.023 83.6348 124.817 83.2227 124.817H82.8107V124.199H83.2227C83.5317 124.199 83.8408 124.096 83.8408 123.787C83.8408 123.581 83.6348 123.375 83.2227 123.375C82.7077 123.375 82.5017 123.684 82.5017 123.89H81.4716C81.6776 122.963 82.2957 122.551 83.2227 122.551C84.1498 122.551 84.8708 122.963 84.8708 123.581C84.8708 124.199 84.4588 124.405 84.0468 124.508C84.5618 124.611 85.0769 124.817 85.0769 125.538C84.7678 126.259 83.9438 126.568 83.0167 126.568Z" fill="#024995"/>
<path d="M88.0644 126.36C87.6524 127.596 87.4464 128.008 86.5193 128.008C86.4163 128.008 86.2103 128.008 86.0043 128.008V127.184H86.2103C86.6223 127.184 86.8283 127.184 86.9313 126.566L85.4893 122.445H86.6223L87.4464 125.329L88.2704 122.445H89.4035L88.0644 126.36Z" fill="#024995"/>
<path d="M92.3903 126.465H90.4331V122.551H92.1842C93.0083 122.551 93.7293 122.86 93.7293 123.581C93.7293 123.993 93.4203 124.302 93.0083 124.405C93.4203 124.508 93.8323 124.714 93.8323 125.435C93.8323 126.156 93.2143 126.465 92.3903 126.465ZM92.0812 123.272H91.3602V124.199H92.0812C92.3902 124.199 92.6993 124.096 92.6993 123.787C92.6993 123.375 92.4932 123.272 92.0812 123.272ZM92.1842 124.714H91.4632V125.744H92.1842C92.5963 125.744 92.8023 125.641 92.8023 125.229C92.8023 124.92 92.5963 124.714 92.1842 124.714Z" fill="#024995"/>
<path d="M97.3349 126.463C97.2319 126.257 97.2319 126.257 97.2319 125.947C97.0259 126.154 96.6139 126.463 95.9959 126.463C95.3778 126.463 94.7598 126.154 94.7598 125.329C94.7598 124.402 95.5838 124.093 96.6139 123.99C97.0259 123.99 97.2319 123.784 97.2319 123.681C97.2319 123.269 96.8199 123.269 96.5109 123.269C95.9959 123.269 95.8928 123.578 95.8928 123.784H94.8628C94.9658 122.548 95.7898 122.445 96.6139 122.445C97.1289 122.445 98.159 122.651 98.159 123.578V125.742C98.159 126.154 98.262 126.257 98.365 126.36V126.566H97.3349V126.463ZM97.1289 124.505C97.0259 124.608 96.8199 124.608 96.4079 124.711C95.9958 124.814 95.6868 124.917 95.6868 125.329C95.6868 125.742 95.9958 125.845 96.2018 125.845C96.6139 125.845 97.1289 125.536 97.1289 125.02V124.505Z" fill="#024995"/>
<path d="M101.867 123.99C101.867 123.784 101.661 123.372 101.146 123.372C100.528 123.372 100.322 123.99 100.322 124.505C100.322 124.917 100.322 125.742 101.146 125.742C101.661 125.742 101.867 125.226 101.867 125.02H102.897C102.897 125.432 102.588 126.566 101.146 126.566C99.704 126.566 99.292 125.432 99.292 124.608C99.292 123.372 99.807 122.445 101.146 122.445C101.764 122.445 102.794 122.754 102.897 123.99H101.867Z" fill="#024995"/>
<path d="M105.987 123.375V126.465H104.957V123.375H103.721V122.551H107.12V123.375H105.987Z" fill="#024995"/>
<path d="M110.519 126.463C110.416 126.257 110.417 126.257 110.417 125.947C110.211 126.154 109.798 126.463 109.18 126.463C108.562 126.463 107.944 126.154 107.944 125.329C107.944 124.402 108.768 124.093 109.798 123.99C110.21 123.99 110.417 123.784 110.417 123.681C110.417 123.269 110.004 123.269 109.695 123.269C109.18 123.269 109.077 123.578 109.077 123.784H108.047C108.15 122.548 108.974 122.445 109.798 122.445C110.314 122.445 111.344 122.651 111.344 123.578V125.742C111.344 126.154 111.447 126.257 111.55 126.36V126.566H110.519V126.463ZM110.313 124.505C110.21 124.608 110.004 124.608 109.592 124.711C109.18 124.814 108.871 124.917 108.871 125.329C108.871 125.742 109.18 125.845 109.386 125.845C109.798 125.845 110.313 125.536 110.313 125.02V124.505Z" fill="#024995"/>
<path d="M114.537 123.375V126.465H113.507V123.375H112.374V122.551H115.773V123.375H114.537Z" fill="#024995"/>
<path d="M119.378 126.465V123.993L117.833 126.465H116.7V122.551H117.73V125.023L119.275 122.551H120.408V126.465H119.378Z" fill="#024995"/>
<path d="M124.219 126.465V124.817H122.674V126.465H121.644V122.551H122.674V123.993H124.219V122.551H125.146V126.465H124.219Z" fill="#024995"/>
<path d="M151.001 102.98C151.001 102.877 151.001 102.774 151.001 102.568C151.001 102.259 151.001 102.155 150.589 102.155H150.074V103.083H149.559V100.816H150.692C151.31 100.816 151.413 101.228 151.413 101.434C151.413 101.64 151.31 101.949 151.104 101.949C151.31 102.052 151.413 102.156 151.413 102.568C151.413 102.877 151.413 102.98 151.516 102.98V103.083H151.001V102.98ZM150.692 101.022H150.074V101.64H150.692C150.898 101.64 151.104 101.537 151.104 101.331C151.104 101.228 151.001 101.022 150.692 101.022Z" fill="#024995"/>
<path d="M148.426 101.741C148.426 102.874 149.353 103.904 150.589 103.904C151.722 103.904 152.752 102.977 152.752 101.741C152.752 100.608 151.825 99.5781 150.589 99.5781C149.353 99.5781 148.426 100.608 148.426 101.741ZM148.838 101.741C148.838 100.814 149.559 100.093 150.486 100.093C151.413 100.093 152.134 100.814 152.134 101.741C152.134 102.668 151.413 103.389 150.486 103.389C149.559 103.389 148.838 102.668 148.838 101.741Z" fill="#024995"/>
<path d="M53.248 102.156H57.0593V108.131H57.1623L61.4886 102.156H66.2268L60.8705 109.058L66.6389 116.783H61.6946L57.1623 110.191H57.0593V116.783H53.248V102.156Z" fill="#024995"/>
<path d="M72.9224 102.156C73.3344 102.156 73.7465 102.156 74.1585 102.156C74.6735 102.156 75.0855 102.259 75.6006 102.362C76.1156 102.465 76.5276 102.568 77.0427 102.774C77.4547 102.98 77.8667 103.186 78.2787 103.598C78.5878 103.907 78.8968 104.319 79.1028 104.834C79.4118 105.349 79.5148 106.07 79.5148 106.895C79.5148 107.41 79.4118 107.925 79.3088 108.44C79.1028 108.955 78.8968 109.47 78.4848 109.882C78.0727 110.294 77.7637 110.603 77.2487 110.809C76.8367 111.015 76.4246 111.221 75.9096 111.324C75.4976 111.427 75.0855 111.53 74.6735 111.53C74.2615 111.53 73.9525 111.53 73.7465 111.53H72.2014V116.68H68.2871V102.156H72.9224ZM72.2014 108.955H73.2314C73.4374 108.955 73.7465 108.955 74.1585 108.852C74.4675 108.749 74.8795 108.646 75.0855 108.44C75.2916 108.234 75.4976 107.925 75.4976 107.719C75.6006 107.41 75.6006 107.204 75.6006 106.998C75.6006 106.689 75.6006 106.483 75.4976 106.174C75.3946 105.865 75.1885 105.658 74.9825 105.452C74.6735 105.246 74.3645 105.143 74.0555 105.04C73.7465 105.04 73.4374 104.937 73.2314 104.937H72.2014V108.955Z" fill="#024995"/>
<path d="M81.2656 102.156H91.5663V104.937H85.1799V108.028H91.2573V110.706H85.1799V114.105H91.7723V116.783H81.2656V102.156Z" fill="#024995"/>
<path d="M106.296 116.471C105.472 116.677 104.854 116.78 104.133 116.883C103.515 116.986 102.794 116.986 102.176 116.986C100.734 116.986 99.3948 116.78 98.3648 116.368C97.3347 115.956 96.4076 115.441 95.6866 114.72C94.9655 113.999 94.4505 113.277 94.1415 112.35C93.8325 111.423 93.6265 110.393 93.6265 109.363C93.6265 108.024 93.8325 106.891 94.3475 105.964C94.7595 104.934 95.3776 104.213 96.0986 103.595C96.8197 102.977 97.6437 102.565 98.6738 102.256C99.7038 101.947 100.837 101.844 101.97 101.844C102.382 101.844 102.897 101.844 103.618 101.947C104.339 102.05 105.266 102.256 106.296 102.565L105.987 105.758C105.575 105.552 104.957 105.346 104.339 105.037C103.721 104.831 103 104.728 102.176 104.728C101.352 104.728 100.734 104.831 100.219 105.14C99.7038 105.449 99.2918 105.655 98.9828 105.964C98.5708 106.376 98.2618 106.788 98.0558 107.406C97.8497 108.024 97.6437 108.642 97.6437 109.466C97.6437 110.187 97.7467 110.805 97.9527 111.423C98.1588 112.041 98.4678 112.453 98.8798 112.865C99.2918 113.277 99.8069 113.586 100.425 113.792C101.043 113.998 101.764 114.101 102.382 114.101C102.897 114.101 103.515 113.999 104.133 113.896C104.751 113.793 105.369 113.586 105.987 113.38L106.296 116.471Z" fill="#024995"/>
<path d="M110.623 105.04H107.018V102.156H118.039V105.04H114.434V116.783H110.623V105.04Z" fill="#024995"/>
<path d="M127.206 101.641C127.515 101.641 127.927 101.641 128.442 101.744C128.957 101.744 129.473 101.847 129.988 101.95C130.503 102.053 131.018 102.259 131.636 102.568C132.151 102.877 132.666 103.186 133.181 103.598C133.696 104.01 134.005 104.525 134.314 105.04C134.623 105.555 134.829 106.07 134.932 106.585C135.035 107.1 135.138 107.615 135.241 108.027C135.241 108.542 135.344 108.954 135.344 109.263C135.344 109.675 135.344 110.087 135.241 110.499C135.241 111.014 135.138 111.426 134.932 111.941C134.829 112.456 134.623 112.971 134.314 113.486C134.005 114.001 133.696 114.516 133.181 114.928C132.666 115.341 132.151 115.753 131.636 115.959C131.121 116.268 130.503 116.371 129.988 116.577C129.473 116.68 128.957 116.783 128.442 116.783C127.927 116.783 127.515 116.886 127.206 116.886C126.897 116.886 126.485 116.886 125.97 116.783C125.455 116.783 124.94 116.68 124.425 116.577C123.91 116.474 123.395 116.268 122.777 115.959C122.262 115.65 121.747 115.341 121.232 114.928C120.717 114.516 120.408 114.001 120.099 113.486C119.79 112.971 119.584 112.456 119.481 111.941C119.378 111.426 119.275 110.911 119.172 110.499C119.172 109.984 119.069 109.572 119.069 109.263C119.069 108.851 119.069 108.439 119.172 108.027C119.172 107.512 119.275 107.1 119.481 106.585C119.584 106.07 119.79 105.555 120.099 105.04C120.408 104.525 120.717 104.01 121.232 103.598C121.747 103.186 122.262 102.774 122.777 102.568C123.292 102.259 123.91 102.156 124.425 101.95C124.94 101.847 125.455 101.744 125.97 101.744C126.485 101.641 126.897 101.641 127.206 101.641ZM127.206 104.628C126.588 104.628 126.073 104.731 125.558 105.04C125.146 105.246 124.837 105.555 124.528 105.864C124.322 106.173 124.116 106.379 124.013 106.688C123.91 106.997 123.807 107.306 123.704 107.615C123.601 107.924 123.601 108.233 123.601 108.542C123.601 108.851 123.601 109.16 123.601 109.366C123.601 109.572 123.601 109.881 123.601 110.19C123.601 110.499 123.704 110.808 123.704 111.117C123.807 111.426 123.91 111.735 124.013 112.044C124.116 112.353 124.322 112.662 124.528 112.868C124.837 113.177 125.146 113.486 125.558 113.692C125.97 113.898 126.485 114.104 127.206 114.104C127.824 114.104 128.339 114.001 128.854 113.692C129.266 113.486 129.576 113.177 129.885 112.868C130.091 112.559 130.297 112.353 130.4 112.044C130.503 111.735 130.606 111.426 130.709 111.117C130.812 110.808 130.812 110.499 130.812 110.19C130.812 109.881 130.812 109.675 130.812 109.366C130.812 109.16 130.812 108.851 130.812 108.542C130.812 108.233 130.709 107.924 130.709 107.615C130.606 107.306 130.503 106.997 130.4 106.688C130.297 106.379 130.091 106.07 129.885 105.864C129.576 105.555 129.266 105.246 128.854 105.04C128.442 104.731 127.927 104.628 127.206 104.628Z" fill="#024995"/>
<path d="M142.143 102.156C142.555 102.156 142.967 102.156 143.379 102.156C143.894 102.156 144.306 102.259 144.821 102.362C145.336 102.465 145.748 102.568 146.263 102.774C146.675 102.98 147.087 103.186 147.499 103.598C147.808 103.907 148.117 104.319 148.323 104.834C148.632 105.349 148.735 106.07 148.735 106.895C148.735 107.41 148.632 107.925 148.529 108.44C148.323 108.955 148.117 109.47 147.705 109.882C147.396 110.294 146.984 110.603 146.469 110.809C146.057 111.015 145.645 111.221 145.13 111.324C144.718 111.427 144.306 111.53 143.894 111.53C143.482 111.53 143.173 111.53 142.967 111.53H141.422V116.68H137.507V102.156H142.143ZM141.422 108.955H142.452C142.658 108.955 142.967 108.955 143.379 108.852C143.688 108.749 144.1 108.646 144.306 108.44C144.512 108.234 144.718 107.925 144.718 107.719C144.821 107.41 144.821 107.204 144.821 106.998C144.821 106.689 144.821 106.483 144.718 106.174C144.615 105.865 144.409 105.658 144.203 105.452C143.894 105.246 143.585 105.143 143.276 105.04C142.967 105.04 142.658 104.937 142.452 104.937H141.422V108.955Z" fill="#024995"/>
<path d="M53.248 102.156H57.0593V108.131H57.1623L61.4886 102.156H66.2268L60.8705 109.058L66.6389 116.783H61.6946L57.1623 110.191H57.0593V116.783H53.248V102.156Z" fill="#024995"/>
<path d="M72.9224 102.156C73.3344 102.156 73.7465 102.156 74.1585 102.156C74.6735 102.156 75.0855 102.259 75.6006 102.362C76.1156 102.465 76.5276 102.568 77.0427 102.774C77.4547 102.98 77.8667 103.186 78.2787 103.598C78.5878 103.907 78.8968 104.319 79.1028 104.834C79.4118 105.349 79.5148 106.07 79.5148 106.895C79.5148 107.41 79.4118 107.925 79.3088 108.44C79.1028 108.955 78.8968 109.47 78.4848 109.882C78.0727 110.294 77.7637 110.603 77.2487 110.809C76.8367 111.015 76.4246 111.221 75.9096 111.324C75.4976 111.427 75.0855 111.53 74.6735 111.53C74.2615 111.53 73.9525 111.53 73.7465 111.53H72.2014V116.68H68.2871V102.156H72.9224ZM72.2014 108.955H73.2314C73.4374 108.955 73.7465 108.955 74.1585 108.852C74.4675 108.749 74.8795 108.646 75.0855 108.44C75.2916 108.234 75.4976 107.925 75.4976 107.719C75.6006 107.41 75.6006 107.204 75.6006 106.998C75.6006 106.689 75.6006 106.483 75.4976 106.174C75.3946 105.865 75.1885 105.658 74.9825 105.452C74.6735 105.246 74.3645 105.143 74.0555 105.04C73.7465 105.04 73.4374 104.937 73.2314 104.937H72.2014V108.955Z" fill="#024995"/>
<path d="M81.2656 102.156H91.5663V104.937H85.1799V108.028H91.2573V110.706H85.1799V114.105H91.7723V116.783H81.2656V102.156Z" fill="#024995"/>
<path d="M106.296 116.471C105.472 116.677 104.854 116.78 104.133 116.883C103.515 116.986 102.794 116.986 102.176 116.986C100.734 116.986 99.3948 116.78 98.3648 116.368C97.3347 115.956 96.4076 115.441 95.6866 114.72C94.9655 113.999 94.4505 113.277 94.1415 112.35C93.8325 111.423 93.6265 110.393 93.6265 109.363C93.6265 108.024 93.8325 106.891 94.3475 105.964C94.7595 104.934 95.3776 104.213 96.0986 103.595C96.8197 102.977 97.6437 102.565 98.6738 102.256C99.7038 101.947 100.837 101.844 101.97 101.844C102.382 101.844 102.897 101.844 103.618 101.947C104.339 102.05 105.266 102.256 106.296 102.565L105.987 105.758C105.575 105.552 104.957 105.346 104.339 105.037C103.721 104.831 103 104.728 102.176 104.728C101.352 104.728 100.734 104.831 100.219 105.14C99.7038 105.449 99.2918 105.655 98.9828 105.964C98.5708 106.376 98.2618 106.788 98.0558 107.406C97.8497 108.024 97.6437 108.642 97.6437 109.466C97.6437 110.187 97.7467 110.805 97.9527 111.423C98.1588 112.041 98.4678 112.453 98.8798 112.865C99.2918 113.277 99.8069 113.586 100.425 113.792C101.043 113.998 101.764 114.101 102.382 114.101C102.897 114.101 103.515 113.999 104.133 113.896C104.751 113.793 105.369 113.586 105.987 113.38L106.296 116.471Z" fill="#024995"/>
<path d="M110.623 105.04H107.018V102.156H118.039V105.04H114.434V116.783H110.623V105.04Z" fill="#024995"/>
<path d="M127.206 101.641C127.515 101.641 127.927 101.641 128.442 101.744C128.957 101.744 129.473 101.847 129.988 101.95C130.503 102.053 131.018 102.259 131.636 102.568C132.151 102.877 132.666 103.186 133.181 103.598C133.696 104.01 134.005 104.525 134.314 105.04C134.623 105.555 134.829 106.07 134.932 106.585C135.035 107.1 135.138 107.615 135.241 108.027C135.241 108.542 135.344 108.954 135.344 109.263C135.344 109.675 135.344 110.087 135.241 110.499C135.241 111.014 135.138 111.426 134.932 111.941C134.829 112.456 134.623 112.971 134.314 113.486C134.005 114.001 133.696 114.516 133.181 114.928C132.666 115.341 132.151 115.753 131.636 115.959C131.121 116.268 130.503 116.371 129.988 116.577C129.473 116.68 128.957 116.783 128.442 116.783C127.927 116.783 127.515 116.886 127.206 116.886C126.897 116.886 126.485 116.886 125.97 116.783C125.455 116.783 124.94 116.68 124.425 116.577C123.91 116.474 123.395 116.268 122.777 115.959C122.262 115.65 121.747 115.341 121.232 114.928C120.717 114.516 120.408 114.001 120.099 113.486C119.79 112.971 119.584 112.456 119.481 111.941C119.378 111.426 119.275 110.911 119.172 110.499C119.172 109.984 119.069 109.572 119.069 109.263C119.069 108.851 119.069 108.439 119.172 108.027C119.172 107.512 119.275 107.1 119.481 106.585C119.584 106.07 119.79 105.555 120.099 105.04C120.408 104.525 120.717 104.01 121.232 103.598C121.747 103.186 122.262 102.774 122.777 102.568C123.292 102.259 123.91 102.156 124.425 101.95C124.94 101.847 125.455 101.744 125.97 101.744C126.485 101.641 126.897 101.641 127.206 101.641ZM127.206 104.628C126.588 104.628 126.073 104.731 125.558 105.04C125.146 105.246 124.837 105.555 124.528 105.864C124.322 106.173 124.116 106.379 124.013 106.688C123.91 106.997 123.807 107.306 123.704 107.615C123.601 107.924 123.601 108.233 123.601 108.542C123.601 108.851 123.601 109.16 123.601 109.366C123.601 109.572 123.601 109.881 123.601 110.19C123.601 110.499 123.704 110.808 123.704 111.117C123.807 111.426 123.91 111.735 124.013 112.044C124.116 112.353 124.322 112.662 124.528 112.868C124.837 113.177 125.146 113.486 125.558 113.692C125.97 113.898 126.485 114.104 127.206 114.104C127.824 114.104 128.339 114.001 128.854 113.692C129.266 113.486 129.576 113.177 129.885 112.868C130.091 112.559 130.297 112.353 130.4 112.044C130.503 111.735 130.606 111.426 130.709 111.117C130.812 110.808 130.812 110.499 130.812 110.19C130.812 109.881 130.812 109.675 130.812 109.366C130.812 109.16 130.812 108.851 130.812 108.542C130.812 108.233 130.709 107.924 130.709 107.615C130.606 107.306 130.503 106.997 130.4 106.688C130.297 106.379 130.091 106.07 129.885 105.864C129.576 105.555 129.266 105.246 128.854 105.04C128.442 104.731 127.927 104.628 127.206 104.628Z" fill="#024995"/>
<path d="M142.143 102.156C142.555 102.156 142.967 102.156 143.379 102.156C143.894 102.156 144.306 102.259 144.821 102.362C145.336 102.465 145.748 102.568 146.263 102.774C146.675 102.98 147.087 103.186 147.499 103.598C147.808 103.907 148.117 104.319 148.323 104.834C148.632 105.349 148.735 106.07 148.735 106.895C148.735 107.41 148.632 107.925 148.529 108.44C148.323 108.955 148.117 109.47 147.705 109.882C147.396 110.294 146.984 110.603 146.469 110.809C146.057 111.015 145.645 111.221 145.13 111.324C144.718 111.427 144.306 111.53 143.894 111.53C143.482 111.53 143.173 111.53 142.967 111.53H141.422V116.68H137.507V102.156H142.143ZM141.422 108.955H142.452C142.658 108.955 142.967 108.955 143.379 108.852C143.688 108.749 144.1 108.646 144.306 108.44C144.512 108.234 144.718 107.925 144.718 107.719C144.821 107.41 144.821 107.204 144.821 106.998C144.821 106.689 144.821 106.483 144.718 106.174C144.615 105.865 144.409 105.658 144.203 105.452C143.894 105.246 143.585 105.143 143.276 105.04C142.967 105.04 142.658 104.937 142.452 104.937H141.422V108.955Z" fill="#024995"/>
<mask id="mask0_1_8761" style="mask-type:luminance" maskUnits="userSpaceOnUse" x="62" y="80" width="10" height="18">
<path d="M63.0339 93.2992C63.2399 96.3893 64.682 97.5224 67.8752 97.4194C69.5233 97.4194 70.9654 97.0074 71.2744 96.4923C72.3044 94.9472 70.1413 92.0631 68.5962 88.9729C67.0511 85.8827 64.579 80.4233 63.4459 80.3203C62.4158 80.4233 62.6218 87.9428 63.0339 93.2992Z" fill="white"/>
</mask>
<g mask="url(#mask0_1_8761)">
<path d="M72.4076 80.4219H62.416V97.5209H72.4076V80.4219Z" fill="url(#paint1_radial_1_8761)"/>
</g>
<mask id="mask1_1_8761" style="mask-type:luminance" maskUnits="userSpaceOnUse" x="128" y="80" width="10" height="18">
<path d="M136.992 80.4219C135.859 80.5249 133.387 85.9842 131.842 89.0744C130.297 92.1646 128.134 95.0487 129.164 96.5938C129.473 97.1089 131.018 97.4179 132.563 97.5209C135.756 97.6239 137.198 96.4908 137.404 93.4007C138.022 87.9413 138.125 80.4219 136.992 80.4219Z" fill="white"/>
</mask>
<g mask="url(#mask1_1_8761)">
<path d="M138.228 80.4219H128.236V97.5209H138.228V80.4219Z" fill="url(#paint2_radial_1_8761)"/>
</g>
<mask id="mask2_1_8761" style="mask-type:luminance" maskUnits="userSpaceOnUse" x="63" y="66" width="26" height="32">
<path d="M65.9178 66.821C64.3727 68.2631 64.1667 69.2931 63.3426 71.5593C62.5186 73.8254 65.4028 78.7697 67.9779 84.126C70.5531 89.3794 73.0252 95.2507 74.5703 96.5898C74.7763 96.7958 75.0854 97.5169 78.0725 97.5169C79.4116 97.5169 80.9567 97.5169 82.3988 97.5169C85.386 97.5169 88.0642 97.5169 88.3732 97.3109C88.8882 96.7958 88.2702 96.1778 87.5491 95.0447C83.9439 89.1733 75.0854 74.7525 74.5703 72.7953C74.1583 71.2503 75.7034 67.8511 74.7764 67.027C74.3643 66.615 72.5102 66.4089 70.6561 66.4089C68.493 66.2029 66.3298 66.409 65.9178 66.821Z" fill="white"/>
</mask>
<g mask="url(#mask2_1_8761)">
<path d="M88.8882 66.2031H62.6216V97.4141H88.8882V66.2031Z" fill="url(#paint3_linear_1_8761)"/>
</g>
<mask id="mask3_1_8761" style="mask-type:luminance" maskUnits="userSpaceOnUse" x="112" y="66" width="26" height="32">
<path d="M125.867 66.824C124.94 67.7511 126.486 71.0473 126.074 72.5924C125.455 74.5495 116.7 88.9704 113.095 94.8418C112.374 95.9749 111.756 96.5928 112.271 97.1079C112.58 97.4169 115.258 97.3139 118.245 97.3139C119.79 97.3139 121.335 97.3139 122.571 97.3139C125.455 97.4169 125.867 96.5929 126.074 96.3869C127.619 95.0478 130.091 89.2794 132.666 83.9231C135.241 78.6697 138.022 73.7254 137.301 71.3563C136.477 69.0901 136.271 68.0601 134.726 66.618C134.314 66.206 132.151 66 130.091 66C128.134 66.206 126.383 66.412 125.867 66.824Z" fill="white"/>
</mask>
<g mask="url(#mask3_1_8761)">
<path d="M138.022 66.2031H111.756V97.4141H138.022V66.2031Z" fill="url(#paint4_linear_1_8761)"/>
</g>
<mask id="mask4_1_8761" style="mask-type:luminance" maskUnits="userSpaceOnUse" x="76" y="66" width="48" height="31">
<path d="M90.433 83.3042C90.433 77.8449 94.8623 73.4156 100.322 73.4156C105.781 73.4156 110.21 77.8449 110.21 83.3042C110.21 88.7636 105.781 93.1928 100.322 93.1928C94.8623 93.1928 90.433 88.7636 90.433 83.3042ZM100.322 66.7202C97.6435 66.7202 81.6775 66.4112 79.6174 67.1322C77.8663 67.7503 76.8362 69.1924 76.7332 70.9435C76.6302 73.1066 78.9993 78.2569 84.4587 86.6005C89.918 94.944 90.6391 96.798 92.3902 96.798H99.9096H100.631H108.15C109.901 96.798 110.622 95.047 116.082 86.6005C121.541 78.2569 123.91 73.0036 123.807 70.9435C123.704 69.1924 122.674 67.7503 120.923 67.1322C119.79 66.7202 113.918 66.6172 108.665 66.6172C104.957 66.7202 101.455 66.7202 100.322 66.7202Z" fill="white"/>
</mask>
<g mask="url(#mask4_1_8761)">
<path d="M124.013 66.4141H76.6304V96.801H124.013V66.4141Z" fill="url(#paint5_radial_1_8761)"/>
</g>
<path d="M108.871 83.301C108.871 88.0393 105.06 91.9535 100.219 91.9535C95.4806 91.9535 91.5664 88.0393 91.5664 83.301C91.5664 78.5627 95.3776 74.6484 100.219 74.6484C105.06 74.6484 108.871 78.5627 108.871 83.301Z" fill="#FFDE14"/>
<path d="M55.5142 132.438C56.8533 132.438 57.7803 133.262 57.7803 134.704C57.7803 136.146 56.8533 136.97 55.5142 136.97C54.1751 136.97 53.248 136.146 53.248 134.704C53.248 133.262 54.1751 132.438 55.5142 132.438ZM55.5142 136.146C56.0292 136.146 56.5442 135.734 56.5442 134.704C56.5442 133.674 56.0292 133.262 55.5142 133.262C54.9991 133.262 54.4841 133.674 54.4841 134.704C54.3811 135.734 54.9991 136.146 55.5142 136.146Z" fill="#F07E26"/>
<path d="M62.6217 131.304C61.9006 131.407 61.4886 131.407 61.0766 131.407C59.6345 131.51 59.2225 132.231 59.2225 133.055V133.467C59.3255 133.055 59.7375 132.437 60.8706 132.437C62.1066 132.437 62.9307 133.261 62.9307 134.6C62.9307 136.145 61.9006 136.866 60.6645 136.866C58.6044 136.866 58.2954 135.218 58.2954 133.57C58.2954 132.231 58.5014 130.788 60.5615 130.479C61.1796 130.376 61.6946 130.479 62.5187 130.273V131.304H62.6217ZM60.6645 136.145C61.3856 136.145 61.6946 135.424 61.6946 134.806C61.6946 134.085 61.3856 133.467 60.6645 133.467C59.9435 133.467 59.6345 134.188 59.6345 134.806C59.6345 135.424 59.9435 136.145 60.6645 136.145Z" fill="#F07E26"/>
<path d="M65.5059 132.539V134.084H66.433C68.0811 134.084 68.2871 135.114 68.2871 135.526C68.2871 136.247 67.772 136.968 66.536 136.968H64.3728V133.466H63.2397V132.642H65.5059V132.539ZM65.5059 136.144H66.2269C66.742 136.144 67.051 135.938 67.051 135.526C67.051 135.217 66.845 134.908 66.2269 134.908H65.5059V136.144Z" fill="#F07E26"/>
<path d="M69.9353 135.014C69.9353 135.529 70.3473 136.044 71.2744 136.044C71.7894 136.044 72.2014 135.941 72.6134 135.735V136.559C72.2014 136.765 71.5834 136.868 71.0684 136.868C69.7293 136.868 68.6992 136.147 68.6992 134.602C68.6992 133.16 69.7293 132.336 70.8623 132.336C72.8194 132.336 72.9225 134.293 72.9225 134.705V135.014H69.9353ZM71.6864 134.293C71.6864 133.572 71.1714 133.263 70.7593 133.263C70.2443 133.263 69.8323 133.675 69.8323 134.293H71.6864Z" fill="#F07E26"/>
<path d="M77.7632 132.539V136.041H78.4843V137.998H77.4542V136.865H74.364V137.998H73.334V136.041H73.849C74.364 135.423 74.364 134.805 74.364 133.981V132.539H77.7632ZM76.6302 136.041V133.363H75.3941V133.981C75.3941 134.702 75.3941 135.32 74.9821 136.041H76.6302Z" fill="#F07E26"/>
<path d="M80.2356 132.539V134.805V135.629L82.0897 132.539H83.4288V136.865H82.2957V134.599V133.775L80.3386 136.865H79.1025V132.539H80.2356Z" fill="#F07E26"/>
<path d="M85.6951 132.539V134.187H87.4462V132.539H88.5792V136.865H87.4462V135.011H85.6951V136.865H84.459V132.539H85.6951Z" fill="#F07E26"/>
<path d="M93.3176 136.865H92.1845V135.217H91.6695L90.8454 136.865H89.5063L90.6394 135.114C89.9184 134.908 89.6094 134.393 89.6094 133.878C89.6094 132.951 90.4334 132.539 91.1545 132.539H93.4206V136.865H93.3176ZM91.4635 133.26C91.0514 133.26 90.7424 133.569 90.7424 133.878C90.7424 134.29 91.0514 134.496 91.4635 134.496H92.1845V133.26H91.4635Z" fill="#F07E26"/>
<path d="M95.3777 135.014C95.3777 135.529 95.7897 136.044 96.7168 136.044C97.2318 136.044 97.6438 135.941 98.0559 135.735V136.559C97.6438 136.765 97.0258 136.868 96.5108 136.868C95.1717 136.868 94.1416 136.147 94.1416 134.602C94.1416 133.16 95.1717 132.336 96.3047 132.336C98.2619 132.336 98.3649 134.293 98.3649 134.705V135.014H95.3777ZM97.2318 134.293C97.2318 133.572 96.7168 133.263 96.3047 133.263C95.7897 133.263 95.3777 133.675 95.3777 134.293H97.2318Z" fill="#F07E26"/>
<path d="M102.485 132.539V133.363H101.146V136.865H100.013V133.363H98.5708V132.539H102.485Z" fill="#F07E26"/>
<path d="M109.18 132.539V136.865H108.047V133.363H106.193V136.865H105.06V132.539H109.18Z" fill="#F07E26"/>
<path d="M112.271 132.438C113.61 132.438 114.537 133.262 114.537 134.704C114.537 136.146 113.61 136.97 112.271 136.97C110.932 136.97 110.005 136.146 110.005 134.704C110.005 133.262 110.932 132.438 112.271 132.438ZM112.271 136.146C112.786 136.146 113.301 135.734 113.301 134.704C113.301 133.674 112.786 133.262 112.271 133.262C111.756 133.262 111.241 133.674 111.241 134.704C111.138 135.734 111.756 136.146 112.271 136.146Z" fill="#F07E26"/>
<path d="M116.494 132.539V134.496L117.936 132.539H119.172L117.524 134.599L119.378 136.865H117.936L116.494 134.805V136.865H115.361V132.539H116.494Z" fill="#F07E26"/>
<path d="M121.748 132.438C123.087 132.438 124.014 133.262 124.014 134.704C124.014 136.146 123.087 136.97 121.748 136.97C120.409 136.97 119.481 136.146 119.481 134.704C119.481 133.262 120.409 132.438 121.748 132.438ZM121.748 136.146C122.263 136.146 122.778 135.734 122.778 134.704C122.778 133.674 122.263 133.262 121.748 133.262C121.233 133.262 120.718 133.674 120.718 134.704C120.718 135.734 121.233 136.146 121.748 136.146Z" fill="#F07E26"/>
<path d="M128.649 132.542V136.868H127.515V133.366H126.176V134.293C126.176 136.456 125.97 136.868 124.837 136.868C124.631 136.868 124.528 136.868 124.322 136.765V135.941H124.528C125.146 135.941 125.146 135.117 125.146 134.19V132.336H128.649V132.542Z" fill="#F07E26"/>
<path d="M130.709 135.014C130.709 135.529 131.121 136.044 132.048 136.044C132.563 136.044 132.975 135.941 133.387 135.735V136.559C132.975 136.765 132.357 136.868 131.842 136.868C130.503 136.868 129.473 136.147 129.473 134.602C129.473 133.16 130.503 132.336 131.636 132.336C133.593 132.336 133.696 134.293 133.696 134.705V135.014H130.709ZM132.46 134.293C132.46 133.572 131.945 133.263 131.533 133.263C131.018 133.263 130.606 133.675 130.606 134.293H132.46Z" fill="#F07E26"/>
<path d="M135.653 132.539V134.187H137.507V132.539H138.64V136.865H137.507V135.011H135.653V136.865H134.52V132.539H135.653Z" fill="#F07E26"/>
<path d="M140.906 132.539V134.805L140.804 135.629H140.906L142.761 132.539H143.997V136.865H142.864V134.599L142.967 133.775H142.864L141.01 136.865H139.773V132.539H140.906Z" fill="#F07E26"/>
<path d="M148.735 136.865H147.602V135.217H147.087L146.263 136.865H144.924L146.057 135.114C145.336 134.908 145.027 134.393 145.027 133.878C145.027 132.951 145.851 132.539 146.572 132.539H148.838V136.865H148.735ZM146.881 133.26C146.469 133.26 146.16 133.569 146.16 133.878C146.16 134.29 146.469 134.496 146.881 134.496H147.602V133.26H146.881Z" fill="#F07E26"/>
<defs>
<filter id="filter0_b_1_8761" x="2.5" y="2.5" width="201" height="201" filterUnits="userSpaceOnUse" color-interpolation-filters="sRGB">
<feFlood flood-opacity="0" result="BackgroundImageFix"/>
<feGaussianBlur in="BackgroundImageFix" stdDeviation="2.5"/>
<feComposite in2="SourceAlpha" operator="in" result="effect1_backgroundBlur_1_8761"/>
<feBlend mode="normal" in="SourceGraphic" in2="effect1_backgroundBlur_1_8761" result="shape"/>
</filter>
<filter id="filter1_b_1_8761" x="-15" y="15.168" width="74.3135" height="175.664" filterUnits="userSpaceOnUse" color-interpolation-filters="sRGB">
<feFlood flood-opacity="0" result="BackgroundImageFix"/>
<feGaussianBlur in="BackgroundImageFix" stdDeviation="7.5"/>
<feComposite in2="SourceAlpha" operator="in" result="effect1_backgroundBlur_1_8761"/>
<feBlend mode="normal" in="SourceGraphic" in2="effect1_backgroundBlur_1_8761" result="shape"/>
</filter>
<filter id="filter2_b_1_8761" x="150.346" y="18.7031" width="65.6543" height="168.594" filterUnits="userSpaceOnUse" color-interpolation-filters="sRGB">
<feFlood flood-opacity="0" result="BackgroundImageFix"/>
<feGaussianBlur in="BackgroundImageFix" stdDeviation="7.5"/>
<feComposite in2="SourceAlpha" operator="in" result="effect1_backgroundBlur_1_8761"/>
<feBlend mode="normal" in="SourceGraphic" in2="effect1_backgroundBlur_1_8761" result="shape"/>
</filter>
<filter id="filter3_d_1_8761" x="24" y="22.9609" width="169" height="169" filterUnits="userSpaceOnUse" color-interpolation-filters="sRGB">
<feFlood flood-opacity="0" result="BackgroundImageFix"/>
<feColorMatrix in="SourceAlpha" type="matrix" values="0 0 0 0 0 0 0 0 0 0 0 0 0 0 0 0 0 0 127 0" result="hardAlpha"/>
<feOffset dx="5" dy="5"/>
<feGaussianBlur stdDeviation="5"/>
<feComposite in2="hardAlpha" operator="out"/>
<feColorMatrix type="matrix" values="0 0 0 0 0 0 0 0 0 0 0 0 0 0 0 0 0 0 0.3 0"/>
<feBlend mode="normal" in2="BackgroundImageFix" result="effect1_dropShadow_1_8761"/>
<feBlend mode="normal" in="SourceGraphic" in2="effect1_dropShadow_1_8761" result="shape"/>
</filter>
<linearGradient id="paint0_linear_1_8761" x1="29.044" y1="102.427" x2="178.035" y2="102.427" gradientUnits="userSpaceOnUse">
<stop stop-color="#F8F8F8"/>
<stop offset="1" stop-color="#BDC6E3"/>
</linearGradient>
<radialGradient id="paint1_radial_1_8761" cx="0" cy="0" r="1" gradientUnits="userSpaceOnUse" gradientTransform="translate(67.1282 88.9456) rem(6.78873 6.78873)">
<stop stop-color="#80BBE7"/>
<stop offset="0.2747" stop-color="#72B5E5"/>
<stop offset="0.7551" stop-color="#45A7DE"/>
<stop offset="1" stop-color="#169FDB"/>
</radialGradient>
<radialGradient id="paint2_radial_1_8761" cx="0" cy="0" r="1" gradientUnits="userSpaceOnUse" gradientTransform="translate(133.431 88.9557) rem(6.78875 6.78873)">
<stop stop-color="#80BBE7"/>
<stop offset="0.2747" stop-color="#72B5E5"/>
<stop offset="0.7551" stop-color="#45A7DE"/>
<stop offset="1" stop-color="#169FDB"/>
</radialGradient>
<linearGradient id="paint3_linear_1_8761" x1="75.7135" y1="67.2825" x2="75.7135" y2="97.4322" gradientUnits="userSpaceOnUse">
<stop stop-color="#FFDA70"/>
<stop offset="0.0252893" stop-color="#FECD64"/>
<stop offset="0.0778697" stop-color="#FAB74F"/>
<stop offset="0.136" stop-color="#F6A23E"/>
<stop offset="0.2009" stop-color="#F39233"/>
<stop offset="0.2762" stop-color="#F1872B"/>
<stop offset="0.3715" stop-color="#F08027"/>
<stop offset="0.5521" stop-color="#F07E26"/>
<stop offset="0.7274" stop-color="#F08027"/>
<stop offset="0.8011" stop-color="#F1862B"/>
<stop offset="0.8557" stop-color="#F39032"/>
<stop offset="0.901" stop-color="#F6A03C"/>
<stop offset="0.9404" stop-color="#F9B24B"/>
<stop offset="0.9751" stop-color="#FDC85F"/>
<stop offset="1" stop-color="#FFDA70"/>
</linearGradient>
<linearGradient id="paint4_linear_1_8761" x1="124.86" y1="67.2825" x2="124.86" y2="97.4322" gradientUnits="userSpaceOnUse">
<stop stop-color="#FFDA70"/>
<stop offset="0.0252893" stop-color="#FECD64"/>
<stop offset="0.0778697" stop-color="#FAB74F"/>
<stop offset="0.136" stop-color="#F6A23E"/>
<stop offset="0.2009" stop-color="#F39233"/>
<stop offset="0.2762" stop-color="#F1872B"/>
<stop offset="0.3715" stop-color="#F08027"/>
<stop offset="0.5521" stop-color="#F07E26"/>
<stop offset="0.7274" stop-color="#F08027"/>
<stop offset="0.8011" stop-color="#F1862B"/>
<stop offset="0.8557" stop-color="#F39032"/>
<stop offset="0.901" stop-color="#F6A03C"/>
<stop offset="0.9404" stop-color="#F9B24B"/>
<stop offset="0.9751" stop-color="#FDC85F"/>
<stop offset="1" stop-color="#FFDA70"/>
</linearGradient>
<radialGradient id="paint5_radial_1_8761" cx="0" cy="0" r="1" gradientUnits="userSpaceOnUse" gradientTransform="translate(100.293 81.7956) rem(19.8087 19.8086)">
<stop stop-color="#80BBE7"/>
<stop offset="0.2747" stop-color="#72B5E5"/>
<stop offset="0.7551" stop-color="#45A7DE"/>
<stop offset="1" stop-color="#169FDB"/>
</radialGradient>
</defs>
</svg>
