<svg viewBox="0 0 120 31" fill="none" xmlns="http://www.w3.org/2000/svg">
<g clip-path="url(#clip0_1_8940)">
<path fill-rule="evenodd" clip-rule="evenodd" d="M3.87899 24.79L5.85318 19.4525L7.73638 24.79H3.87899ZM9.65482 30.169H11.465L6.76691 17.3203H4.97662L0.0600586 30.169H1.88751L3.33114 26.2312H8.2477L9.65482 30.169ZM15.4005 25.7317C13.723 25.3706 11.9904 24.9763 11.9904 22.9615C11.9904 21.1923 13.493 20.0771 15.7626 20.0771C17.2305 20.0771 18.6325 20.6213 19.3322 21.9515L17.8059 22.5857C17.6836 22.2304 16.8935 21.3359 15.5754 21.3359C14.2837 21.3359 13.6371 22.097 13.6371 22.7561C13.6371 23.6812 14.8655 24.0665 15.9131 24.2764C18.0821 24.7109 19.9679 25.2634 19.9679 27.2993C19.9679 28.8815 18.5563 30.368 15.8599 30.368C13.8749 30.368 12.4646 29.7071 11.786 28.3258L13.5269 28.0234C13.9639 28.7801 14.754 29.108 15.9311 29.108C17.3907 29.108 18.2442 28.5536 18.2442 27.5041C18.2449 26.3939 16.8442 26.0424 15.4005 25.7317ZM23.583 20.3731H25.3656V21.7391H23.583V27.2973C23.583 28.4502 23.583 28.9447 24.2872 28.9447C24.598 28.9447 25.0344 28.8202 25.3656 28.7182V30.0707C25.0754 30.1116 24.3904 30.2353 23.7682 30.2353C21.862 30.2353 21.862 29.3128 21.8825 28.0393V21.7391H20.3273V20.3731H21.8825V18.0393L23.583 17.335V20.3731ZM28.4977 20.398V22.1474C29.43 20.3017 31.1927 20.2602 31.8559 20.2398V21.9324C30.2393 21.9433 29.4466 22.2731 28.9129 23.1389C28.4746 23.8458 28.4977 24.8391 28.4977 25.6781V30.169H26.8516V20.398H28.4977ZM43.5863 28.6276H51.073V30.169H41.5929V28.5L48.9322 18.9064H41.5987V17.3222H50.8897V18.9249L43.5863 28.6276ZM63.0398 20.4656V21.8852C63.9561 20.2902 65.517 20.1454 66.0995 20.1454C67.3483 20.1454 68.8445 20.7674 69.3219 22.3796C69.4891 22.9564 69.4891 23.5542 69.4891 24.3791V30.169H67.8475V24.6471C67.8475 23.6569 67.8475 23.3692 67.743 23.0387C67.4521 22.1117 66.5365 21.6995 65.6413 21.6995C64.9134 21.6995 64.2887 21.926 63.7677 22.4409C63.0392 23.1625 63.0392 23.9032 63.0392 24.6267V30.169H61.3924V20.4656H63.0398ZM88.4255 28.4394C87.811 29.4002 86.6948 30.3674 84.6854 30.3674C81.2176 30.3674 79.9079 27.7063 79.9079 25.3157C79.9079 22.5538 81.4169 20.0509 84.5406 20.0509C85.7657 20.0509 87.4817 20.4184 88.4313 21.9937L86.8883 22.6348C86.5968 21.9949 85.9688 21.2555 84.6027 21.2555C81.8961 21.2555 81.7379 24.3262 81.7379 25.1926C81.7379 28.4119 83.5954 29.108 84.7052 29.108C85.9759 29.108 86.625 28.5012 86.9678 27.8326L88.4255 28.4394ZM53.4387 24.2834H58.6423C58.4968 21.7276 57.0173 21.2957 56.0305 21.2957C54.6222 21.2963 53.6245 22.3254 53.4387 24.2834ZM59.9969 28.313C59.4356 29.2643 58.352 30.3559 56.2157 30.3559C53.3195 30.3559 51.6535 28.396 51.6535 25.1103C51.6535 21.4399 54.0852 20.0369 56.1549 20.0369C57.9541 20.0369 59.679 21.0271 60.2589 23.4796C60.446 24.3045 60.446 25.0484 60.446 25.4612H53.3977C53.3566 27.0932 54.0435 29.1584 56.3612 29.1182C57.3069 29.1022 57.9727 28.6748 58.3975 28.0049L59.9969 28.313ZM72.1572 24.2834H77.3615C77.2167 21.7276 75.7372 21.2957 74.7497 21.2957C73.3426 21.2963 72.3443 22.3254 72.1572 24.2834ZM78.7167 28.313C78.1554 29.2643 77.0725 30.3559 74.9362 30.3559C72.04 30.3559 70.3733 28.396 70.3733 25.1103C70.3733 21.4399 72.805 20.0369 74.874 20.0369C76.674 20.0369 78.3976 21.0271 78.9781 23.4796C79.1646 24.3045 79.1646 25.0484 79.1646 25.4612H72.1162C72.0746 27.0932 72.764 29.1584 75.0797 29.1182C76.0255 29.1022 76.6932 28.6748 77.1167 28.0049L78.7167 28.313ZM97.4244 30.1792L95.7122 30.1856C95.7122 30.1856 95.5642 29.4972 95.5162 28.7456C95.0189 29.2598 94.0962 30.3234 92.2316 30.3234C90.3247 30.3234 88.9099 29.1973 88.9099 27.5474C88.9099 27.03 89.0554 26.5152 89.3463 26.08C89.9082 25.2538 90.9482 24.5929 93.8694 24.3664L95.422 24.2426V23.9944C95.422 22.9826 95.422 21.2899 93.2331 21.2899C91.8561 21.2899 91.3871 21.9547 91.2282 22.5551L89.7122 21.9248C89.7359 21.8724 89.7634 21.8188 89.7922 21.7646C90.3747 20.6915 91.5172 20.0305 93.1697 20.0305C94.0796 20.0305 95.2573 20.2583 96.0249 20.8567C97.1174 21.681 97.0912 23.3047 97.0912 23.3047L97.1572 28.3156C97.1572 28.3169 97.2155 29.7715 97.4244 30.1792ZM95.1734 27.4856C95.422 26.949 95.4431 26.7219 95.4431 25.2953C94.8024 25.3987 93.9354 25.5224 92.8743 25.7502C91.0507 26.1419 90.7399 26.8259 90.7399 27.5066C90.7399 28.2913 91.3621 28.953 92.584 28.953C93.7246 28.953 94.6979 28.4987 95.1734 27.4856ZM40.4306 30.1792L38.7185 30.1856C38.7185 30.1856 38.5698 29.4972 38.5224 28.7456C38.0252 29.2598 37.1037 30.3234 35.2385 30.3234C33.3303 30.3234 31.9161 29.1973 31.9161 27.5474C31.9161 27.03 32.0616 26.5152 32.3531 26.08C32.9151 25.2538 33.9544 24.5929 36.8743 24.3664L38.4288 24.2426V23.9944C38.4288 22.9826 38.4288 21.2899 36.2387 21.2899C34.8617 21.2899 34.394 21.9547 34.2338 22.5551L32.7177 21.9248C32.7427 21.8724 32.769 21.8188 32.7985 21.7646C33.3809 20.6915 34.524 20.0305 36.1753 20.0305C37.0845 20.0305 38.2635 20.2583 39.0305 20.8567C40.123 21.681 40.0967 23.3047 40.0967 23.3047L40.1627 28.3156C40.1627 28.3169 40.221 29.7715 40.4306 30.1792ZM38.1796 27.4856C38.4295 26.949 38.4487 26.7219 38.4487 25.2953C37.8092 25.3987 36.941 25.5224 35.8812 25.7502C34.0588 26.1419 33.7474 26.8259 33.7474 27.5066C33.7474 28.2913 34.3683 28.953 35.5903 28.953C36.7302 28.953 37.7035 28.4987 38.1796 27.4856Z" fill="white"/>
<path fill-rule="evenodd" clip-rule="evenodd" d="M119.926 16.6421C119.92 16.5822 119.913 16.5222 119.898 16.4641C119.867 16.3455 119.834 16.2268 119.789 16.1132C119.74 15.9927 119.679 15.8759 119.614 15.763C119.542 15.6386 119.461 15.5193 119.376 15.4025C119.326 15.3342 119.269 15.2704 119.21 15.2098C119.144 15.1422 119.076 15.0752 119.002 15.0165C118.834 14.8838 118.668 14.7486 118.484 14.6369C118.084 14.3926 117.686 14.1386 117.257 13.9504C116.738 13.7233 116.236 13.4541 115.701 13.269L112.095 12.0224C112.095 11.3397 112.115 10.6571 112.095 9.97505C112.065 8.96254 112.024 7.9494 111.945 6.93945C111.89 6.23637 111.806 5.53521 111.695 4.83852C111.61 4.29494 111.48 3.75902 111.358 3.22247C111.331 3.09933 111.289 2.98003 111.248 2.86136C111.212 2.75385 111.172 2.64766 111.128 2.543C111.088 2.44857 111.044 2.35543 110.998 2.26355C110.955 2.18122 110.909 2.10076 110.859 2.02239C110.814 1.9514 110.766 1.88243 110.715 1.81568C110.669 1.75519 110.62 1.69706 110.568 1.6415C110.521 1.59043 110.472 1.54167 110.42 1.4954C110.372 1.45343 110.323 1.41382 110.272 1.37674C110.225 1.34247 110.176 1.31074 110.125 1.28167C110.078 1.25488 110.031 1.22872 109.981 1.2083C109.894 1.17258 109.805 1.13876 109.715 1.11324C109.64 1.09219 109.562 1.0807 109.485 1.06986C109.428 1.06156 109.369 1.05774 109.312 1.05646C109.213 1.05455 109.113 1.05263 109.015 1.05965C108.91 1.06731 108.805 1.08007 108.702 1.10048C108.591 1.1217 108.482 1.15004 108.374 1.18534C108.259 1.22362 108.147 1.27019 108.039 1.32314C107.918 1.38248 107.802 1.45138 107.687 1.52284C107.566 1.59876 107.446 1.67787 107.331 1.76336C107.131 1.91393 106.926 2.06003 106.743 2.23102C105.99 2.93537 105.251 3.65375 104.528 4.38745C104.142 4.77855 103.769 5.18304 103.419 5.60539C102.03 7.28014 100.647 8.95999 99.3115 10.6768C98.7181 11.4386 98.1844 12.2444 97.6352 13.0368C97.4981 13.2352 97.37 13.44 97.2514 13.6499C97.0457 14.0168 96.8529 14.3906 96.6645 14.7664C96.6158 14.864 96.5773 14.9674 96.5402 15.0701C96.5043 15.1684 96.4716 15.2679 96.4453 15.3687C96.421 15.4638 96.3999 15.5607 96.389 15.6583C96.3793 15.7483 96.3781 15.8395 96.3838 15.9295C96.387 15.9748 96.4005 16.0195 96.4152 16.0622C96.4312 16.1088 96.4524 16.1534 96.4767 16.1962C96.5036 16.2428 96.535 16.2868 96.5677 16.3289C96.6036 16.3748 96.6401 16.4195 96.6811 16.4603C96.7702 16.5477 96.8612 16.6332 96.958 16.7123C97.0573 16.794 97.1598 16.8718 97.2674 16.942C97.4552 17.0645 97.6493 17.1787 97.8422 17.291C97.9268 17.3401 98.0158 17.3822 98.1017 17.4269C98.1325 17.4422 98.0408 17.395 98.0107 17.3784C98.0069 17.3771 97.9973 17.3714 98.0005 17.3727C98.0056 17.3739 98.0107 17.3778 98.0152 17.3803C98.0626 17.4052 98.11 17.4294 98.1581 17.4543C99.3454 18.0719 100.537 18.6805 101.719 19.3077C102.907 19.938 104.094 20.5703 105.267 21.2268L107.905 22.7025C106.989 23.3928 106.055 24.0595 105.158 24.7722C104.816 25.0446 104.497 25.3464 104.186 25.6545C103.934 25.9053 103.696 26.1713 103.472 26.4463C103.293 26.6664 103.129 26.8993 102.977 27.1385C102.857 27.3248 102.752 27.5219 102.658 27.7216C102.586 27.8735 102.528 28.0317 102.477 28.1918C102.441 28.3041 102.417 28.4196 102.397 28.5357C102.385 28.6053 102.382 28.6774 102.378 28.7488C102.377 28.7731 102.381 28.7973 102.381 28.8215C102.383 28.886 102.379 28.9498 102.383 29.0136C102.386 29.0736 102.394 29.1335 102.403 29.1916C102.412 29.2484 102.424 29.3045 102.44 29.36C102.454 29.4123 102.472 29.4646 102.492 29.5157C102.512 29.5648 102.534 29.6133 102.559 29.6605C102.583 29.7064 102.608 29.753 102.64 29.7945C102.7 29.8774 102.762 29.9597 102.834 30.0325C102.907 30.1052 102.986 30.1716 103.07 30.2322C103.153 30.2934 103.243 30.347 103.334 30.3968C103.426 30.4465 103.521 30.4899 103.619 30.5301C103.715 30.5703 103.813 30.613 103.915 30.6354C104.284 30.7164 104.655 30.7904 105.029 30.8408C105.212 30.8657 105.399 30.8759 105.583 30.8612C106.22 30.8115 106.857 30.747 107.489 30.6481C108.226 30.5327 108.958 30.3783 109.688 30.2194C110.548 30.0318 111.406 29.8334 112.259 29.6108C112.861 29.4532 113.474 29.3134 114.05 29.0787C114.505 28.8943 114.963 28.7182 115.414 28.5249C115.515 28.4821 115.611 28.426 115.705 28.3705C115.791 28.3207 115.876 28.2665 115.957 28.2091C116.028 28.1587 116.098 28.1051 116.162 28.0451C116.215 27.9947 116.265 27.9386 116.308 27.8786C116.346 27.8282 116.377 27.772 116.404 27.714C116.427 27.6629 116.444 27.6081 116.456 27.5526C116.468 27.5022 116.473 27.4492 116.473 27.3975C116.473 27.3471 116.467 27.2967 116.458 27.2476C116.447 27.1998 116.433 27.1519 116.415 27.1053C116.397 27.0585 116.375 27.0133 116.35 26.9701C116.325 26.9265 116.298 26.8843 116.268 26.8437C116.238 26.8029 116.207 26.7637 116.173 26.7264C116.107 26.6575 116.04 26.5879 115.969 26.5254C115.907 26.4705 115.84 26.4214 115.773 26.3742C115.707 26.3276 115.638 26.2842 115.569 26.2428C115.1 25.9608 114.632 25.673 114.159 25.3955L112.179 24.2311C113.381 23.419 114.595 22.6221 115.787 21.7927C116.296 21.4386 116.797 21.0724 117.28 20.6839C117.694 20.3508 118.088 19.9936 118.474 19.6299C118.658 19.457 118.821 19.265 118.988 19.0755C119.064 18.9893 119.133 18.8975 119.199 18.8037C119.26 18.7188 119.322 18.6333 119.37 18.5402C119.525 18.2339 119.677 17.9258 119.807 17.6081C119.859 17.4786 119.881 17.3388 119.91 17.2023C119.923 17.1391 119.929 17.0741 119.934 17.0096C119.939 16.9477 119.941 16.8852 119.94 16.8233C119.937 16.7634 119.933 16.7021 119.926 16.6421ZM105.142 8.58294C105.814 7.88943 106.487 7.1972 107.17 6.51454C107.294 6.39013 107.432 6.27848 107.566 6.163C107.612 6.12281 107.661 6.08453 107.711 6.04689C107.748 6.01818 107.786 5.98819 107.827 5.96267C107.856 5.94484 107.886 5.92948 107.918 5.91674C107.951 5.90334 107.984 5.88994 108.02 5.8842C108.057 5.87782 108.095 5.87846 108.133 5.88037C108.153 5.88101 108.172 5.88611 108.19 5.89249C108.21 5.89824 108.23 5.90717 108.248 5.91738C108.267 5.92822 108.286 5.94098 108.303 5.95502C108.322 5.97097 108.341 5.98883 108.358 6.00797C108.377 6.02966 108.395 6.05263 108.41 6.07688C108.428 6.10495 108.447 6.13366 108.459 6.16492C108.492 6.24913 108.521 6.33526 108.543 6.42331C108.574 6.54899 108.599 6.67659 108.619 6.80547C108.667 7.11937 108.712 7.4339 108.747 7.74907C108.793 8.15739 108.827 8.56699 108.865 8.97594L109.068 11.1534L106.632 10.5952L104.357 10.2226L103.807 10.1805L103.628 10.176C104.133 9.64457 104.633 9.10928 105.142 8.58294ZM103.614 11.6109L103.623 11.5975L103.636 11.5905L103.655 11.5885L103.684 11.593L103.769 11.6173L103.99 11.7015L104.29 11.8342C105.064 12.164 105.838 12.4939 106.612 12.8224C107.126 13.0406 107.639 13.2569 108.152 13.4751L109.166 13.9064L109.257 13.9466C109.311 14.7447 109.378 15.5422 109.42 16.341C109.453 16.965 109.467 17.5902 109.482 18.2148C109.484 18.2939 109.478 18.3724 109.472 18.4509C109.469 18.4949 109.465 18.5396 109.459 18.5836C109.452 18.6276 109.443 18.6716 109.43 18.7137C109.418 18.7552 109.403 18.7973 109.382 18.8356C109.362 18.8732 109.335 18.9077 109.307 18.9409C109.294 18.9574 109.275 18.9721 109.258 18.9855C109.239 18.9995 109.22 19.0123 109.2 19.0238C109.178 19.0353 109.155 19.0451 109.132 19.0531C109.106 19.0623 109.08 19.0696 109.053 19.0748C109.02 19.0804 108.987 19.0839 108.954 19.085C108.92 19.0857 108.885 19.085 108.85 19.0806C108.814 19.0759 108.778 19.0689 108.742 19.0595C108.704 19.0499 108.666 19.0397 108.63 19.0251C108.551 18.9919 108.472 18.9568 108.398 18.9147C108.314 18.8662 108.232 18.813 108.153 18.7552C108.066 18.6914 107.983 18.6231 107.902 18.5523C107.814 18.4745 107.727 18.3954 107.647 18.3105C107.472 18.1236 107.298 17.9335 107.135 17.735C106.841 17.3771 106.535 17.0256 106.277 16.6415C105.921 16.112 105.556 15.5888 105.209 15.0529C105.002 14.7332 104.79 14.4149 104.618 14.0742L103.835 12.5309L103.667 12.039L103.628 11.8929L103.605 11.7519L103.603 11.6498L103.614 11.6109ZM112.259 25.2902C112.47 25.4229 112.682 25.5537 112.89 25.6902C113.158 25.8663 113.427 26.0411 113.688 26.2287C113.875 26.3633 114.053 26.5088 114.23 26.6575C114.308 26.7238 114.382 26.7953 114.453 26.8705C114.51 26.9324 114.56 27.0001 114.61 27.0677C114.613 27.0722 114.614 27.0779 114.613 27.083C114.613 27.0951 114.612 27.1066 114.608 27.1181C114.606 27.1257 114.601 27.1321 114.596 27.1372C114.588 27.1443 114.58 27.1501 114.571 27.1545C114.558 27.1599 114.545 27.1638 114.532 27.1659C114.513 27.1697 114.495 27.1723 114.476 27.1736C113.448 27.2502 112.419 27.3203 111.392 27.4007L107.376 27.7146L107.251 27.7223L107.309 27.6604L107.562 27.4377C108.083 27.0524 108.586 26.6434 109.123 26.281L111.397 24.746C111.684 24.9272 111.972 25.1084 112.259 25.2902ZM115.352 17.4186C115.342 17.4555 115.327 17.4914 115.31 17.5258C115.289 17.5655 115.264 17.6029 115.236 17.6374C115.167 17.7184 115.095 17.7976 115.017 17.8697C114.849 18.0221 114.683 18.1784 114.497 18.3092C113.859 18.7597 113.228 19.2209 112.582 19.6605C112.138 19.9636 111.679 20.2468 111.225 20.5371L108.587 22.2246C108.214 22.0115 107.84 21.7978 107.466 21.5854L102.689 18.8662C101.61 18.2244 100.524 17.5934 99.4524 16.9401C99.2506 16.817 99.0609 16.674 98.8681 16.5375C98.8065 16.4941 98.7495 16.4444 98.6906 16.3984C98.672 16.3844 98.6515 16.3716 98.6342 16.3563C98.5938 16.3193 98.5528 16.281 98.515 16.2402C98.4919 16.2147 98.4727 16.1872 98.4535 16.1585C98.4349 16.1286 98.4163 16.0973 98.4035 16.0641C98.3901 16.0303 98.3779 15.9946 98.3727 15.9576C98.3668 15.9193 98.3665 15.8804 98.3721 15.8421C98.3779 15.8 98.3894 15.7592 98.4041 15.7196C98.4195 15.6768 98.4387 15.6347 98.4625 15.5958C98.5099 15.5154 98.5605 15.4357 98.6182 15.361C98.6846 15.2757 98.7559 15.1941 98.8315 15.1167C99.4486 14.4844 100.075 13.8611 100.696 13.2314L102.368 11.5324L102.447 11.8067L102.65 12.2891L102.664 12.3184C103.106 13.0815 103.521 13.8605 103.99 14.6076C104.529 15.4663 105.108 16.3002 105.686 17.1328C105.957 17.5226 106.241 17.9047 106.539 18.2754C106.799 18.5976 107.067 18.9141 107.359 19.2088C107.614 19.4672 107.894 19.7033 108.179 19.931C108.32 20.0433 108.478 20.1339 108.633 20.2264C108.706 20.2711 108.785 20.3068 108.864 20.3419C108.939 20.3744 109.015 20.4031 109.093 20.428C109.168 20.4523 109.245 20.4721 109.323 20.488C109.394 20.5027 109.466 20.5142 109.538 20.5205C109.603 20.5263 109.669 20.5276 109.735 20.525C109.796 20.5237 109.856 20.518 109.917 20.5084C109.972 20.5001 110.028 20.4874 110.082 20.472C110.133 20.458 110.183 20.4402 110.233 20.4191C110.278 20.4006 110.323 20.3783 110.367 20.354C110.408 20.3311 110.449 20.3074 110.487 20.2787C110.556 20.2264 110.625 20.1722 110.688 20.1129C110.742 20.0618 110.791 20.0057 110.836 19.947C110.894 19.8723 110.946 19.7932 110.994 19.7122C111.052 19.6139 111.107 19.5125 111.155 19.4085C111.209 19.2924 111.259 19.1744 111.299 19.0531C111.383 18.8005 111.462 18.5459 111.526 18.2869C111.611 17.9373 111.705 17.587 111.743 17.2285L111.959 15.1543C112.453 15.3834 112.959 15.5914 113.442 15.8421C113.914 16.0871 114.366 16.3704 114.824 16.6409C114.877 16.6728 114.927 16.7098 114.976 16.7493C115.043 16.8055 115.109 16.8648 115.171 16.928C115.204 16.9611 115.232 16.9988 115.258 17.0371C115.283 17.0747 115.306 17.1149 115.323 17.1564C115.339 17.1972 115.35 17.2412 115.359 17.2846C115.363 17.3063 115.361 17.3286 115.36 17.351C115.361 17.3738 115.358 17.3966 115.352 17.4186Z" fill="#EFAB00"/>
</g>
<defs>
<clipPath id="clip0_1_8940">
<rect width="120" height="30" fill="white" transform="translate(0 0.960938)"/>
</clipPath>
</defs>
</svg>
