<svg viewBox="0 0 120 30" fill="none" xmlns="http://www.w3.org/2000/svg">
<g clip-path="url(#clip0_270_109333)">
<path fill-rule="evenodd" clip-rule="evenodd" d="M3.87753 23.8252L5.85172 18.4877L7.73491 23.8252H3.87753ZM9.65335 29.2041H11.4635L6.76544 16.3555H4.97515L0.0585938 29.2041H1.88604L3.32968 25.2664H8.24624L9.65335 29.2041ZM15.3991 24.7668C13.7215 24.4057 11.9889 24.0115 11.9889 21.9967C11.9889 20.2275 13.4915 19.1123 15.7611 19.1123C17.2291 19.1123 18.6311 19.6565 19.3308 20.9867L17.8045 21.6209C17.6821 21.2655 16.892 20.371 15.574 20.371C14.2822 20.371 13.6357 21.1322 13.6357 21.7912C13.6357 22.7163 14.864 23.1017 15.9117 23.3116C18.0806 23.746 19.9664 24.2986 19.9664 26.3344C19.9664 27.9167 18.5548 29.4032 15.8585 29.4032C13.8734 29.4032 12.4631 28.7422 11.7845 27.361L13.5255 27.0585C13.9625 27.8152 14.7525 28.1431 15.9296 28.1431C17.3893 28.1431 18.2428 27.5887 18.2428 26.5392C18.2434 25.4291 16.8427 25.0776 15.3991 24.7668ZM23.5816 19.4083H25.3642V20.7743H23.5816V26.3325C23.5816 27.4854 23.5816 27.9798 24.2858 27.9798C24.5965 27.9798 25.0329 27.8554 25.3642 27.7533V29.1059C25.0739 29.1467 24.3889 29.2705 23.7668 29.2705C21.8605 29.2705 21.8605 28.3479 21.881 27.0745V20.7743H20.3259V19.4083H21.881V17.0745L23.5816 16.3701V19.4083ZM28.4962 19.4332V21.1826C29.4285 19.3368 31.1913 19.2954 31.8544 19.275V20.9676C30.2378 20.9784 29.4452 21.3083 28.9114 22.174C28.4731 22.8809 28.4962 23.8743 28.4962 24.7133V29.2041H26.8501V19.4332H28.4962ZM43.5849 27.6627H51.0715V29.2041H41.5914V27.5351L48.9307 17.9415H41.5972V16.3574H50.8883V17.96L43.5849 27.6627ZM63.0384 19.5008V20.9204C63.9547 19.3254 65.5155 19.1805 66.098 19.1805C67.3468 19.1805 68.843 19.8026 69.3204 21.4148C69.4876 21.9916 69.4876 22.5894 69.4876 23.4143V29.2041H67.846V23.6823C67.846 22.6921 67.846 22.4043 67.7416 22.0739C67.4506 21.1468 66.535 20.7347 65.6399 20.7347C64.912 20.7347 64.2872 20.9612 63.7663 21.476C63.0377 22.1976 63.0377 22.9383 63.0377 23.6618V29.2041H61.391V19.5008H63.0384ZM88.424 27.4745C87.8095 28.4353 86.6933 29.4026 84.6839 29.4026C81.2161 29.4026 79.9064 26.7415 79.9064 24.3509C79.9064 21.589 81.4154 19.0861 84.5391 19.0861C85.7642 19.0861 87.4802 19.4536 88.4298 21.0288L86.8869 21.67C86.5953 21.0301 85.9674 20.2906 84.6013 20.2906C81.8947 20.2906 81.7364 23.3613 81.7364 24.2277C81.7364 27.4471 83.594 28.1431 84.7038 28.1431C85.9744 28.1431 86.6235 27.5364 86.9663 26.8678L88.424 27.4745ZM53.4372 23.3186H58.6408C58.4954 20.7628 57.0159 20.3308 56.0291 20.3308C54.6207 20.3315 53.623 21.3606 53.4372 23.3186ZM59.9954 27.3482C59.4341 28.2994 58.3506 29.3911 56.2143 29.3911C53.318 29.3911 51.652 27.4311 51.652 24.1454C51.652 20.475 54.0837 19.0721 56.1534 19.0721C57.9526 19.0721 59.6776 20.0622 60.2575 22.5147C60.4446 23.3396 60.4446 24.0836 60.4446 24.4963H53.3962C53.3552 26.1283 54.0421 28.1935 56.3597 28.1533C57.3055 28.1374 57.9712 27.7099 58.396 27.04L59.9954 27.3482ZM72.1558 23.3186H77.36C77.2152 20.7628 75.7357 20.3308 74.7483 20.3308C73.3412 20.3315 72.3429 21.3606 72.1558 23.3186ZM78.7152 27.3482C78.1539 28.2994 77.071 29.3911 74.9347 29.3911C72.0385 29.3911 70.3719 27.4311 70.3719 24.1454C70.3719 20.475 72.8036 19.0721 74.8726 19.0721C76.6725 19.0721 78.3961 20.0622 78.9767 22.5147C79.1631 23.3396 79.1631 24.0836 79.1631 24.4963H72.1147C72.0731 26.1283 72.7626 28.1935 75.0783 28.1533C76.024 28.1374 76.6917 27.7099 77.1152 27.04L78.7152 27.3482ZM97.4229 29.2143L95.7108 29.2207C95.7108 29.2207 95.5628 28.5323 95.5147 27.7808C95.0175 28.295 94.0948 29.3585 92.2302 29.3585C90.3233 29.3585 88.9085 28.2325 88.9085 26.5826C88.9085 26.0652 89.0539 25.5503 89.3448 25.1152C89.9068 24.289 90.9467 23.628 93.8679 23.4015L95.4205 23.2778V23.0296C95.4205 22.0177 95.4205 20.3251 93.2317 20.3251C91.8547 20.3251 91.3856 20.9899 91.2267 21.5903L89.7107 20.9599C89.7344 20.9076 89.7619 20.854 89.7908 20.7998C90.3732 19.7267 91.5157 19.0657 93.1682 19.0657C94.0781 19.0657 95.2558 19.2935 96.0235 19.8919C97.116 20.7162 97.0897 22.3399 97.0897 22.3399L97.1557 27.3507C97.1557 27.352 97.214 28.8067 97.4229 29.2143ZM95.1719 26.5207C95.4205 25.9842 95.4417 25.757 95.4417 24.3305C94.8009 24.4338 93.9339 24.5576 92.8728 24.7854C91.0492 25.1771 90.7385 25.861 90.7385 26.5418C90.7385 27.3265 91.3607 27.9881 92.5826 27.9881C93.7231 27.9881 94.6965 27.5339 95.1719 26.5207ZM40.4291 29.2143L38.717 29.2207C38.717 29.2207 38.5683 28.5323 38.5209 27.7808C38.0237 28.295 37.1023 29.3585 35.237 29.3585C33.3288 29.3585 31.9147 28.2325 31.9147 26.5826C31.9147 26.0652 32.0601 25.5503 32.3517 25.1152C32.9136 24.289 33.9529 23.628 36.8729 23.4015L38.4274 23.2778V23.0296C38.4274 22.0177 38.4274 20.3251 36.2373 20.3251C34.8603 20.3251 34.3925 20.9899 34.2323 21.5903L32.7163 20.9599C32.7413 20.9076 32.7675 20.854 32.797 20.7998C33.3795 19.7267 34.5226 19.0657 36.1738 19.0657C37.0831 19.0657 38.2621 19.2935 39.029 19.8919C40.1215 20.7162 40.0953 22.3399 40.0953 22.3399L40.1613 27.3507C40.1613 27.352 40.2196 28.8067 40.4291 29.2143ZM38.1781 26.5207C38.428 25.9842 38.4472 25.757 38.4472 24.3305C37.8078 24.4338 36.9395 24.5576 35.8797 24.7854C34.0574 25.1771 33.746 25.861 33.746 26.5418C33.746 27.3265 34.3669 27.9881 35.5888 27.9881C36.7287 27.9881 37.702 27.5339 38.1781 26.5207Z" fill="#00215F"/>
<path fill-rule="evenodd" clip-rule="evenodd" d="M119.925 15.6812C119.918 15.6212 119.911 15.5613 119.896 15.5032C119.866 15.3845 119.833 15.2659 119.787 15.1523C119.738 15.0317 119.677 14.915 119.613 14.802C119.54 14.6776 119.459 14.5583 119.374 14.4416C119.325 14.3733 119.268 14.3095 119.209 14.2489C119.143 14.1813 119.075 14.1143 119.001 14.0556C118.833 13.9229 118.666 13.7876 118.483 13.676C118.083 13.4316 117.684 13.1777 117.255 12.9895C116.736 12.7624 116.234 12.4931 115.699 12.3081L112.094 11.0615C112.094 10.3788 112.114 9.69613 112.094 9.01411C112.064 8.00161 112.023 6.98846 111.944 5.97851C111.889 5.27544 111.804 4.57428 111.694 3.87758C111.608 3.33401 111.478 2.79809 111.357 2.26153C111.329 2.1384 111.288 2.01909 111.247 1.90042C111.21 1.79291 111.17 1.68673 111.126 1.58206C111.087 1.48764 111.043 1.39449 110.996 1.30262C110.954 1.22028 110.907 1.13982 110.858 1.06145C110.813 0.990465 110.765 0.921494 110.714 0.854741C110.668 0.794253 110.619 0.73612 110.567 0.680567C110.52 0.629489 110.47 0.58073 110.418 0.534465C110.371 0.492489 110.322 0.452884 110.27 0.415798C110.223 0.381532 110.174 0.3498 110.123 0.320736C110.077 0.29394 110.029 0.267782 109.979 0.247366C109.892 0.211638 109.804 0.177824 109.713 0.152304C109.638 0.13125 109.561 0.119766 109.484 0.10892C109.426 0.100626 109.368 0.096798 109.31 0.095522C109.212 0.093608 109.112 0.091694 109.014 0.098712C108.909 0.106368 108.804 0.119128 108.7 0.139544C108.589 0.160759 108.48 0.189103 108.373 0.224398C108.258 0.262678 108.145 0.309252 108.037 0.362206C107.916 0.42154 107.8 0.490444 107.685 0.561899C107.564 0.637821 107.444 0.716933 107.33 0.802425C107.129 0.952993 106.924 1.09909 106.742 1.27008C105.989 1.97443 105.249 2.69282 104.526 3.42652C104.141 3.81761 103.767 4.2221 103.418 4.64446C102.029 6.3192 100.646 7.99906 99.31 9.71591C98.7167 10.4777 98.1829 11.2835 97.6338 12.0759C97.4966 12.2743 97.3685 12.4791 97.25 12.689C97.0443 13.0558 96.8514 13.4297 96.663 13.8055C96.6143 13.9031 96.5759 14.0065 96.5387 14.1092C96.5028 14.2074 96.4701 14.307 96.4439 14.4078C96.4195 14.5028 96.3984 14.5998 96.3875 14.6974C96.3779 14.7874 96.3766 14.8786 96.3824 14.9686C96.3856 15.0139 96.399 15.0585 96.4138 15.1013C96.4298 15.1478 96.4509 15.1925 96.4753 15.2352C96.5022 15.2818 96.5336 15.3258 96.5663 15.3679C96.6021 15.4139 96.6387 15.4585 96.6797 15.4994C96.7687 15.5868 96.8597 15.6723 96.9565 15.7514C97.0558 15.833 97.1583 15.9109 97.266 15.9811C97.4537 16.1036 97.6479 16.2178 97.8407 16.33C97.9253 16.3792 98.0144 16.4213 98.1002 16.4659C98.131 16.4813 98.0394 16.434 98.0093 16.4175C98.0054 16.4162 97.9958 16.4104 97.999 16.4117C98.0041 16.413 98.0093 16.4168 98.0137 16.4194C98.0612 16.4443 98.1086 16.4685 98.1566 16.4934C99.344 17.111 100.536 17.7196 101.717 18.3468C102.905 18.9771 104.093 19.6094 105.266 20.2659L107.904 21.7416C106.988 22.4319 106.054 23.0986 105.157 23.8112C104.814 24.0837 104.496 24.3854 104.185 24.6936C103.932 24.9443 103.695 25.2104 103.47 25.4853C103.291 25.7054 103.128 25.9383 102.975 26.1776C102.855 26.3639 102.75 26.561 102.656 26.7607C102.584 26.9125 102.527 27.0708 102.476 27.2309C102.439 27.3432 102.416 27.4587 102.395 27.5748C102.383 27.6443 102.381 27.7164 102.377 27.7879C102.375 27.8121 102.38 27.8364 102.38 27.8606C102.381 27.925 102.378 27.9888 102.382 28.0526C102.385 28.1126 102.392 28.1726 102.402 28.2306C102.411 28.2874 102.423 28.3436 102.438 28.3991C102.452 28.4514 102.471 28.5037 102.491 28.5548C102.511 28.6039 102.533 28.6524 102.557 28.6996C102.582 28.7455 102.607 28.7921 102.638 28.8336C102.699 28.9165 102.76 28.9988 102.833 29.0715C102.905 29.1443 102.985 29.2106 103.068 29.2712C103.151 29.3325 103.241 29.3861 103.332 29.4358C103.424 29.4856 103.52 29.529 103.617 29.5692C103.714 29.6094 103.811 29.6521 103.914 29.6744C104.282 29.7555 104.653 29.8295 105.028 29.8799C105.211 29.9048 105.397 29.915 105.581 29.9003C106.219 29.8505 106.856 29.7861 107.487 29.6872C108.225 29.5717 108.957 29.4173 109.686 29.2585C110.547 29.0709 111.405 28.8725 112.257 28.6498C112.86 28.4922 113.472 28.3525 114.049 28.1177C114.503 27.9333 114.962 27.7573 115.412 27.5639C115.514 27.5212 115.609 27.465 115.704 27.4095C115.79 27.3598 115.874 27.3055 115.955 27.2481C116.026 27.1977 116.097 27.1441 116.16 27.0842C116.214 27.0338 116.263 26.9776 116.307 26.9176C116.345 26.8672 116.376 26.8111 116.402 26.753C116.425 26.702 116.443 26.6471 116.455 26.5916C116.466 26.5412 116.472 26.4883 116.472 26.4366C116.472 26.3862 116.465 26.3358 116.456 26.2867C116.446 26.2388 116.432 26.191 116.414 26.1444C116.396 26.0976 116.374 26.0523 116.348 26.0091C116.323 25.9656 116.296 25.9234 116.266 25.8828C116.237 25.842 116.205 25.8028 116.172 25.7654C116.106 25.6965 116.038 25.627 115.967 25.5644C115.905 25.5096 115.838 25.4605 115.771 25.4132C115.705 25.3667 115.637 25.3233 115.568 25.2818C115.098 24.9998 114.631 24.7121 114.158 24.4346L112.177 23.2702C113.38 22.458 114.593 21.6612 115.785 20.8318C116.295 20.4777 116.796 20.1115 117.279 19.7229C117.693 19.3899 118.087 19.0326 118.473 18.669C118.657 18.4961 118.82 18.304 118.986 18.1145C119.062 18.0284 119.132 17.9365 119.198 17.8427C119.259 17.7579 119.32 17.6724 119.368 17.5793C119.523 17.273 119.676 16.9649 119.805 16.6471C119.857 16.5176 119.879 16.3779 119.909 16.2414C119.922 16.1782 119.927 16.1131 119.932 16.0487C119.937 15.9868 119.939 15.9243 119.939 15.8624C119.935 15.8024 119.932 15.7412 119.925 15.6812ZM105.141 7.622C105.812 6.92849 106.485 6.23626 107.168 5.5536C107.293 5.4292 107.431 5.31754 107.564 5.20207C107.61 5.16187 107.66 5.12359 107.709 5.08595C107.747 5.05724 107.784 5.02726 107.825 5.00174C107.854 4.98391 107.884 4.96854 107.916 4.9558C107.949 4.9424 107.983 4.929 108.019 4.92326C108.056 4.91688 108.094 4.91752 108.132 4.91943C108.151 4.92007 108.17 4.92518 108.189 4.93156C108.208 4.9373 108.228 4.94623 108.246 4.95644C108.265 4.96728 108.284 4.98004 108.301 4.99408C108.321 5.01003 108.34 5.02789 108.356 5.04703C108.375 5.06873 108.393 5.09169 108.409 5.11594C108.427 5.14401 108.446 5.17272 108.458 5.20398C108.49 5.2882 108.52 5.37433 108.541 5.46237C108.573 5.58806 108.597 5.71566 108.617 5.84453C108.666 6.15843 108.711 6.47296 108.746 6.78813C108.792 7.19645 108.825 7.60605 108.863 8.01501L109.067 10.1925L106.63 9.63425L104.356 9.26166L103.806 9.21955L103.627 9.21508C104.131 8.68363 104.632 8.14835 105.141 7.622ZM103.613 10.6499L103.622 10.6365L103.634 10.6295L103.653 10.6276L103.683 10.6321L103.768 10.6563L103.988 10.7405L104.288 10.8732C105.062 11.2031 105.836 11.5329 106.611 11.8615C107.124 12.0797 107.638 12.296 108.151 12.5142L109.165 12.9455L109.255 12.9857C109.31 13.7838 109.376 14.5813 109.419 15.3801C109.452 16.004 109.465 16.6293 109.481 17.2539C109.483 17.333 109.476 17.4115 109.471 17.4899C109.468 17.534 109.463 17.5786 109.457 17.6226C109.45 17.6667 109.442 17.7107 109.429 17.7528C109.416 17.7943 109.402 17.8364 109.381 17.8746C109.361 17.9123 109.333 17.9467 109.306 17.9799C109.292 17.9965 109.274 18.0112 109.257 18.0246C109.238 18.0386 109.218 18.0514 109.198 18.0629C109.176 18.0743 109.154 18.0841 109.13 18.0922C109.105 18.1014 109.078 18.1086 109.051 18.1139C109.019 18.1195 108.986 18.1229 108.953 18.1241C108.918 18.1247 108.884 18.1241 108.849 18.1196C108.812 18.115 108.776 18.1079 108.741 18.0986C108.702 18.089 108.664 18.0788 108.629 18.0641C108.55 18.031 108.471 17.9959 108.397 17.9538C108.312 17.9053 108.23 17.852 108.152 17.7943C108.065 17.7305 107.981 17.6622 107.901 17.5914C107.812 17.5135 107.726 17.4344 107.646 17.3496C107.47 17.1626 107.296 16.9725 107.134 16.7741C106.84 16.4162 106.534 16.0646 106.276 15.6806C105.919 15.151 105.554 14.6279 105.208 14.0919C105.001 13.7723 104.789 13.4539 104.616 13.1133L103.834 11.5699L103.665 11.078L103.627 10.9319L103.604 10.7909L103.602 10.6889L103.613 10.6499ZM112.258 24.3293C112.469 24.462 112.681 24.5928 112.888 24.7293C113.157 24.9054 113.426 25.0802 113.686 25.2678C113.873 25.4024 114.052 25.5479 114.229 25.6965C114.307 25.7629 114.381 25.8343 114.451 25.9096C114.508 25.9715 114.558 26.0391 114.609 26.1067C114.612 26.1112 114.613 26.117 114.612 26.1221C114.612 26.1342 114.611 26.1457 114.607 26.1571C114.605 26.1648 114.599 26.1712 114.594 26.1763C114.587 26.1834 114.578 26.1892 114.569 26.1935C114.557 26.199 114.544 26.2028 114.531 26.205C114.512 26.2088 114.493 26.2114 114.474 26.2127C113.446 26.2892 112.417 26.3594 111.39 26.4398L107.375 26.7537L107.25 26.7613L107.307 26.6995L107.56 26.4768C108.081 26.0914 108.585 25.6825 109.122 25.3201L111.396 23.7851C111.682 23.9663 111.97 24.1475 112.258 24.3293ZM115.351 16.4576C115.34 16.4946 115.326 16.5305 115.309 16.5648C115.288 16.6046 115.263 16.642 115.234 16.6765C115.166 16.7575 115.093 16.8366 115.015 16.9087C114.847 17.0612 114.681 17.2175 114.496 17.3483C113.858 17.7987 113.227 18.26 112.581 18.6996C112.136 19.0026 111.677 19.2859 111.224 19.5762L108.586 21.2637C108.212 21.0506 107.839 20.8369 107.465 20.6244L102.687 17.9053C101.608 17.2634 100.523 16.6325 99.451 15.9791C99.2491 15.856 99.0595 15.7131 98.8666 15.5766C98.8051 15.5332 98.7481 15.4834 98.6891 15.4375C98.6705 15.4235 98.65 15.4107 98.6327 15.3954C98.5923 15.3584 98.5513 15.3201 98.5135 15.2793C98.4905 15.2537 98.4712 15.2263 98.452 15.1976C98.4334 15.1676 98.4149 15.1364 98.402 15.1032C98.3886 15.0694 98.3764 15.0336 98.3713 14.9966C98.3653 14.9584 98.3651 14.9195 98.3706 14.8812C98.3764 14.839 98.3879 14.7982 98.4027 14.7587C98.4181 14.7159 98.4373 14.6738 98.461 14.6349C98.5084 14.5545 98.559 14.4747 98.6167 14.4001C98.6831 14.3147 98.7544 14.2331 98.8301 14.1557C99.4471 13.5235 100.074 12.9002 100.694 12.2705L102.366 10.5715L102.446 10.8458L102.649 11.3281L102.662 11.3575C103.105 12.1205 103.52 12.8995 103.989 13.6466C104.528 14.5054 105.106 15.3392 105.684 16.1718C105.956 16.5616 106.239 16.9438 106.538 17.3145C106.797 17.6367 107.066 17.9531 107.357 18.2479C107.613 18.5063 107.893 18.7423 108.177 18.9701C108.318 19.0824 108.477 19.173 108.632 19.2655C108.705 19.3101 108.784 19.3459 108.862 19.381C108.937 19.4135 109.014 19.4422 109.091 19.4671C109.167 19.4913 109.244 19.5111 109.322 19.5271C109.392 19.5417 109.465 19.5532 109.537 19.5596C109.602 19.5653 109.668 19.5666 109.734 19.5641C109.794 19.5628 109.855 19.557 109.915 19.5475C109.971 19.5392 110.027 19.5264 110.081 19.5111C110.132 19.4971 110.182 19.4792 110.231 19.4582C110.277 19.4397 110.321 19.4173 110.365 19.3931C110.406 19.3701 110.448 19.3465 110.486 19.3178C110.555 19.2655 110.624 19.2113 110.687 19.1519C110.741 19.1009 110.79 19.0447 110.835 18.986C110.892 18.9114 110.944 18.8323 110.992 18.7513C111.051 18.653 111.106 18.5516 111.154 18.4476C111.208 18.3315 111.258 18.2134 111.298 18.0922C111.381 17.8396 111.461 17.585 111.524 17.326C111.609 16.9763 111.704 16.6261 111.741 16.2675L111.958 14.1934C112.452 14.4224 112.958 14.6304 113.441 14.8812C113.912 15.1261 114.364 15.4094 114.822 15.6799C114.876 15.7118 114.926 15.7488 114.974 15.7884C115.042 15.8445 115.107 15.9039 115.169 15.967C115.202 16.0002 115.231 16.0378 115.257 16.0761C115.282 16.1138 115.305 16.154 115.322 16.1954C115.338 16.2363 115.349 16.2803 115.357 16.3237C115.361 16.3454 115.36 16.3677 115.359 16.39C115.36 16.4128 115.357 16.4357 115.351 16.4576Z" fill="#EFAB00"/>
</g>
<defs>
<clipPath id="clip0_270_109333">
<rect width="120" height="30" fill="white"/>
</clipPath>
</defs>
</svg>
