<svg viewBox="0 0 281 281" fill="none" xmlns="http://www.w3.org/2000/svg">
<g style="mix-blend-mode:screen">
<path d="M279.346 140.572C279.346 63.8714 217.18 1.68835 140.494 1.6824C63.8078 1.67644 1.64159 63.8499 1.6416 140.551C1.6416 217.251 63.8078 279.435 140.494 279.44C217.18 279.446 279.346 217.273 279.346 140.572Z" fill="#011A4B" fill-opacity="0.6"/>
<path d="M140.5 280.607C63.299 280.607 0.493652 217.788 0.493652 140.571C0.493652 63.3536 63.299 0.535156 140.5 0.535156C217.701 0.535156 280.506 63.3536 280.506 140.571C280.506 217.788 217.701 280.607 140.5 280.607ZM140.5 2.82324C64.5699 2.82324 2.80437 64.6017 2.80437 140.548C2.80437 216.494 64.5699 278.272 140.5 278.272C216.43 278.272 278.196 216.494 278.196 140.548C278.196 64.6017 216.43 2.84636 140.5 2.84636V2.82324Z" fill="url(#paint0_linear_1_4876)"/>
</g>
<path style="mix-blend-mode:multiply" opacity="0.27" d="M146.184 269.976C214.498 269.976 269.877 214.586 269.877 146.258C269.877 77.9298 214.498 22.5391 146.184 22.5391C77.8708 22.5391 22.4917 77.9298 22.4917 146.258C22.4917 214.586 77.8708 269.976 146.184 269.976Z" fill="url(#paint1_radial_1_4876)"/>
<path d="M140.492 258.596C205.668 258.596 258.512 205.752 258.522 140.567C258.531 75.3807 205.703 22.5371 140.527 22.5371C75.3509 22.5371 22.5073 75.3807 22.4977 140.567C22.488 205.752 75.316 258.596 140.492 258.596Z" fill="url(#paint2_radial_1_4876)"/>
<g clip-path="url(#clip0_1_4876)" filter="url(#filter0_d_1_4876)">
<path d="M153.484 105.621L160.524 98.7589C161.026 98.2706 161.381 97.6516 161.549 96.972C161.717 96.2925 161.691 95.5795 161.475 94.9137C161.259 94.248 160.86 93.656 160.325 93.2049C159.79 92.7538 159.139 92.4615 158.446 92.3611L148.714 90.9477L144.364 82.1288C144.018 81.544 143.527 81.0594 142.937 80.7227C142.347 80.3861 141.679 80.209 141 80.209C140.321 80.209 139.653 80.3861 139.064 80.7227C138.474 81.0594 137.982 81.544 137.636 82.1288L133.286 90.9473L123.554 92.3607C122.862 92.4611 122.211 92.7534 121.676 93.2045C121.14 93.6557 120.742 94.2476 120.526 94.9134C120.309 95.5791 120.284 96.2921 120.452 96.9717C120.62 97.6512 120.975 98.2702 121.476 98.7586L128.516 105.621L126.854 115.314C126.735 116.004 126.812 116.713 127.076 117.362C127.339 118.01 127.779 118.572 128.346 118.983C128.912 119.394 129.582 119.639 130.28 119.689C130.978 119.74 131.676 119.594 132.296 119.268L141 114.69L149.705 119.268C150.324 119.594 151.023 119.74 151.721 119.69C152.419 119.639 153.089 119.395 153.655 118.983C154.221 118.572 154.661 118.01 154.925 117.362C155.188 116.714 155.265 116.005 155.147 115.315L153.484 105.621Z" fill="white"/>
<path d="M200.817 105.999C200.601 105.333 200.203 104.741 199.667 104.29C199.132 103.839 198.482 103.547 197.789 103.446L188.058 102.032L183.704 93.2141C183.359 92.629 182.868 92.144 182.278 91.8071C181.688 91.4702 181.021 91.293 180.341 91.293C179.662 91.293 178.995 91.4702 178.405 91.8071C177.815 92.144 177.324 92.629 176.979 93.2141L172.629 102.032L162.899 103.446C162.206 103.546 161.555 103.839 161.02 104.289C160.485 104.74 160.087 105.332 159.87 105.997C159.654 106.663 159.628 107.376 159.796 108.055C159.963 108.734 160.317 109.353 160.818 109.842L167.861 116.704L166.198 126.398C166.079 127.088 166.156 127.797 166.419 128.445C166.683 129.094 167.122 129.655 167.688 130.067C168.254 130.478 168.924 130.723 169.622 130.774C170.32 130.825 171.018 130.679 171.638 130.353L180.341 125.778L189.046 130.353C189.665 130.679 190.363 130.825 191.061 130.775C191.76 130.725 192.43 130.48 192.996 130.069C193.562 129.657 194.002 129.096 194.266 128.447C194.529 127.799 194.606 127.09 194.488 126.4L192.825 116.706L199.866 109.844C200.368 109.356 200.723 108.737 200.891 108.057C201.059 107.378 201.034 106.664 200.817 105.999Z" fill="white"/>
<path d="M119.102 103.445L109.372 102.032L105.022 93.2135C104.713 92.586 104.234 92.0577 103.639 91.6883C103.045 91.3188 102.359 91.123 101.66 91.123C100.96 91.123 100.274 91.3188 99.6797 91.6883C99.0855 92.0577 98.6064 92.586 98.2967 93.2135L93.9422 102.032L84.2117 103.445C83.5191 103.546 82.8683 103.838 82.3331 104.289C81.798 104.74 81.3997 105.332 81.1835 105.998C80.9672 106.664 80.9416 107.377 81.1095 108.056C81.2774 108.736 81.6321 109.355 82.1335 109.843L89.1752 116.706L87.5125 126.4C87.3941 127.089 87.471 127.798 87.7347 128.447C87.9984 129.095 88.4382 129.657 89.0044 130.068C89.5707 130.479 90.2407 130.724 90.9388 130.774C91.6369 130.825 92.3351 130.679 92.9545 130.353L101.659 125.778L110.362 130.353C110.982 130.679 111.68 130.825 112.378 130.774C113.076 130.724 113.746 130.479 114.312 130.068C114.879 129.657 115.319 129.095 115.582 128.447C115.846 127.798 115.923 127.089 115.804 126.4L114.142 116.706L121.184 109.843C121.685 109.355 122.039 108.736 122.207 108.056C122.374 107.377 122.348 106.664 122.132 105.999C121.915 105.333 121.517 104.742 120.982 104.291C120.447 103.84 119.795 103.546 119.102 103.445Z" fill="white"/>
<path d="M178.5 136.287H103.5C100.517 136.29 97.6577 137.477 95.5487 139.586C93.4396 141.695 92.2533 144.554 92.25 147.537V177.537C92.2533 180.52 93.4396 183.379 95.5487 185.488C97.6577 187.598 100.517 188.784 103.5 188.787H128.197L138.349 198.938C138.697 199.287 139.11 199.563 139.565 199.752C140.02 199.94 140.508 200.037 141 200.037C141.492 200.037 141.98 199.94 142.435 199.752C142.89 199.563 143.303 199.287 143.651 198.938L153.803 188.787H178.5C181.483 188.784 184.342 187.598 186.451 185.488C188.56 183.379 189.747 180.52 189.75 177.537V147.537C189.747 144.554 188.56 141.695 186.451 139.586C184.342 137.477 181.483 136.29 178.5 136.287ZM171 173.787H111C110.005 173.787 109.052 173.392 108.348 172.689C107.645 171.986 107.25 171.032 107.25 170.037C107.25 169.043 107.645 168.089 108.348 167.385C109.052 166.682 110.005 166.287 111 166.287H171C171.995 166.287 172.948 166.682 173.652 167.385C174.355 168.089 174.75 169.043 174.75 170.037C174.75 171.032 174.355 171.986 173.652 172.689C172.948 173.392 171.995 173.787 171 173.787ZM171 158.787H111C110.005 158.787 109.052 158.392 108.348 157.689C107.645 156.986 107.25 156.032 107.25 155.037C107.25 154.043 107.645 153.089 108.348 152.385C109.052 151.682 110.005 151.287 111 151.287H171C171.995 151.287 172.948 151.682 173.652 152.385C174.355 153.089 174.75 154.043 174.75 155.037C174.75 156.032 174.355 156.986 173.652 157.689C172.948 158.392 171.995 158.787 171 158.787Z" fill="white"/>
</g>
<defs>
<filter id="filter0_d_1_4876" x="77" y="80.0371" width="128" height="128" filterUnits="userSpaceOnUse" color-interpolation-filters="sRGB">
<feFlood flood-opacity="0" result="BackgroundImageFix"/>
<feColorMatrix in="SourceAlpha" type="matrix" values="0 0 0 0 0 0 0 0 0 0 0 0 0 0 0 0 0 0 127 0" result="hardAlpha"/>
<feOffset dy="4"/>
<feGaussianBlur stdDeviation="2"/>
<feColorMatrix type="matrix" values="0 0 0 0 0 0 0 0 0 0 0 0 0 0 0 0 0 0 0.4 0"/>
<feBlend mode="normal" in2="BackgroundImageFix" result="effect1_dropShadow_1_4876"/>
<feBlend mode="normal" in="SourceGraphic" in2="effect1_dropShadow_1_4876" result="shape"/>
</filter>
<linearGradient id="paint0_linear_1_4876" x1="0.493652" y1="140.571" x2="280.53" y2="140.571" gradientUnits="userSpaceOnUse">
<stop stop-color="#C0CBDE"/>
<stop offset="0.31" stop-color="#011C50"/>
<stop offset="0.64" stop-color="#C0CBDE"/>
<stop offset="1" stop-color="#011C50"/>
</linearGradient>
<radialGradient id="paint1_radial_1_4876" cx="0" cy="0" r="1" gradientUnits="userSpaceOnUse" gradientTransform="translate(146.184 146.258) scale(123.693 123.719)">
<stop stop-color="#130C0E" stop-opacity="0.95"/>
<stop offset="0.78" stop-color="#181214" stop-opacity="0.93"/>
<stop offset="0.82" stop-color="#1A1517" stop-opacity="0.93"/>
<stop offset="0.85" stop-color="#241E20" stop-opacity="0.94"/>
<stop offset="0.88" stop-color="#342F31" stop-opacity="0.96"/>
<stop offset="0.89" stop-color="#3D383A" stop-opacity="0.96"/>
<stop offset="0.91" stop-color="#4E4A4C" stop-opacity="0.97"/>
<stop offset="0.93" stop-color="#7C797A" stop-opacity="0.98"/>
<stop offset="0.97" stop-color="#C6C4C5" stop-opacity="0.99"/>
<stop offset="1" stop-color="white"/>
</radialGradient>
<radialGradient id="paint2_radial_1_4876" cx="0" cy="0" r="1" gradientUnits="userSpaceOnUse" gradientTransform="translate(100.731 97.1799) rotate(22.5042) scale(162.79 162.824)">
<stop stop-color="#D5ECEE"/>
<stop offset="0.21" stop-color="#B8F8FF"/>
<stop offset="0.55" stop-color="#7FECF8"/>
<stop offset="0.68" stop-color="#4DD3E1"/>
<stop offset="0.91" stop-color="#11A2B1"/>
<stop offset="1" stop-color="#088E9C"/>
</radialGradient>
<clipPath id="clip0_1_4876">
<rect width="120" height="120" fill="white" transform="translate(81 80.0371)"/>
</clipPath>
</defs>
</svg>
