<svg viewBox="0 0 281 281" fill="none" xmlns="http://www.w3.org/2000/svg">
<g style="mix-blend-mode:screen">
<path d="M279.346 140.572C279.346 63.8714 217.18 1.68835 140.494 1.6824C63.8078 1.67644 1.64159 63.8499 1.6416 140.551C1.6416 217.251 63.8078 279.435 140.494 279.44C217.18 279.446 279.346 217.273 279.346 140.572Z" fill="#011A4B" fill-opacity="0.6"/>
<path d="M140.5 280.607C63.299 280.607 0.493652 217.788 0.493652 140.571C0.493652 63.3536 63.299 0.535156 140.5 0.535156C217.701 0.535156 280.506 63.3536 280.506 140.571C280.506 217.788 217.701 280.607 140.5 280.607ZM140.5 2.82324C64.5699 2.82324 2.80437 64.6017 2.80437 140.548C2.80437 216.494 64.5699 278.272 140.5 278.272C216.43 278.272 278.196 216.494 278.196 140.548C278.196 64.6017 216.43 2.84636 140.5 2.84636V2.82324Z" fill="url(#paint0_linear_1_4836)"/>
</g>
<path style="mix-blend-mode:multiply" opacity="0.27" d="M146.184 269.976C214.498 269.976 269.877 214.586 269.877 146.258C269.877 77.9298 214.498 22.5391 146.184 22.5391C77.8708 22.5391 22.4917 77.9298 22.4917 146.258C22.4917 214.586 77.8708 269.976 146.184 269.976Z" fill="url(#paint1_radial_1_4836)"/>
<path d="M140.492 258.596C205.668 258.596 258.512 205.752 258.522 140.567C258.531 75.3807 205.703 22.5371 140.527 22.5371C75.3509 22.5371 22.5073 75.3807 22.4977 140.567C22.488 205.752 75.316 258.596 140.492 258.596Z" fill="url(#paint2_radial_1_4836)"/>
<g clip-path="url(#clip0_1_4836)" filter="url(#filter0_d_1_4836)">
<path d="M118.241 117.279H138.931V137.969H118.241V117.279Z" fill="white"/>
<path d="M118.241 142.105H138.931V164.864H118.241V142.105Z" fill="white"/>
<path d="M118.241 90.3828H138.931V113.141H118.241V90.3828Z" fill="white"/>
<path d="M143.069 142.105H163.759V164.864H143.069V142.105Z" fill="white"/>
<path d="M143.069 169.002H163.759V189.692H143.069V169.002Z" fill="white"/>
<path d="M118.241 169.002H138.931V189.694H118.241V169.002Z" fill="white"/>
<path d="M102.797 156.268C103.504 155.821 103.873 154.992 103.73 154.167C103.587 153.342 102.962 152.684 102.145 152.501C101.995 152.468 101.843 152.452 101.69 152.451C101.301 152.452 100.92 152.563 100.591 152.772C99.9529 153.161 99.5739 153.864 99.5999 154.611C99.6259 155.358 100.053 156.033 100.717 156.376C101.381 156.72 102.178 156.679 102.803 156.268H102.797Z" fill="white"/>
<path d="M91.3447 169.002H114.103V189.694H91.3447V169.002Z" fill="white"/>
<path d="M91.3447 164.864H114.103V142.105H91.3447V164.864ZM98.3668 149.279L102.647 146.568C103.49 146.056 104.577 146.209 105.245 146.935C105.913 147.661 105.975 148.757 105.395 149.554C107.572 151.181 108.438 154.035 107.53 156.597C106.623 159.159 104.155 160.833 101.439 160.728C98.7227 160.622 96.3913 158.762 95.6855 156.137C94.9797 153.513 96.0638 150.734 98.3606 149.281L98.3668 149.279Z" fill="white"/>
<path d="M91.3447 117.279H114.103V137.969H91.3447V117.279Z" fill="white"/>
<path d="M91.3447 113.141H114.103V90.3828H91.3447V113.141ZM98.1578 100.121C97.3501 99.3135 97.3501 98.0038 98.1578 97.1959L100.227 95.127C100.819 94.5354 101.708 94.3585 102.481 94.6787C103.254 94.9988 103.758 95.753 103.759 96.5897V104.866C104.901 104.866 105.827 105.792 105.827 106.935C105.827 108.077 104.901 109.004 103.759 109.004H99.6206C98.4779 109.004 97.5516 108.077 97.5516 106.935C97.5516 105.792 98.4779 104.866 99.6206 104.866V100.728C99.0719 100.728 98.5457 100.509 98.1578 100.121Z" fill="white"/>
<path d="M167.896 117.279H190.655V137.969H167.896V117.279Z" fill="white"/>
<path d="M167.896 90.3828H190.655V113.141H167.896V90.3828Z" fill="white"/>
<path d="M167.896 164.864H190.655V142.105H167.896V164.864ZM174.71 151.844C173.902 151.036 173.902 149.727 174.71 148.919L176.779 146.85C177.37 146.258 178.26 146.081 179.033 146.401C179.806 146.721 180.31 147.476 180.31 148.312V156.588C181.453 156.588 182.379 157.515 182.379 158.657C182.379 159.8 181.453 160.726 180.31 160.726H176.172C175.03 160.726 174.103 159.8 174.103 158.657C174.103 157.515 175.03 156.588 176.172 156.588V152.45C175.624 152.45 175.098 152.232 174.71 151.844Z" fill="white"/>
<path d="M196.862 80.0371H85.1379C82.8526 80.0371 81 81.8897 81 84.175V195.899C81 198.184 82.8526 200.037 85.1379 200.037H196.862C199.147 200.037 201 198.184 201 195.899V84.175C201 81.8897 199.147 80.0371 196.862 80.0371ZM194.793 189.692C194.793 191.978 192.94 193.83 190.655 193.83H91.3448C89.0595 193.83 87.2069 191.978 87.2069 189.692V90.3819C87.2069 88.0966 89.0595 86.244 91.3448 86.244H190.655C192.94 86.244 194.793 88.0966 194.793 90.3819V189.692Z" fill="white"/>
<path d="M143.069 113.141H163.759V90.3828H143.069V113.141ZM153.414 94.5207C156.842 94.5207 159.621 97.2997 159.621 100.728V106.935C159.621 108.077 158.694 109.004 157.552 109.004C156.409 109.004 155.483 108.077 155.483 106.935V106.554C154.82 106.799 154.12 106.928 153.414 106.935C149.986 106.935 147.207 104.156 147.207 100.728C147.207 97.2997 149.986 94.5207 153.414 94.5207Z" fill="white"/>
<path d="M153.414 102.796C154.556 102.796 155.483 101.87 155.483 100.727C155.483 99.5845 154.556 98.6582 153.414 98.6582C152.271 98.6582 151.345 99.5845 151.345 100.727C151.345 101.87 152.271 102.796 153.414 102.796Z" fill="white"/>
<path d="M143.069 117.279H163.759V137.969H143.069V117.279Z" fill="white"/>
<path d="M167.896 169.002H190.655V189.692H167.896V169.002Z" fill="white"/>
</g>
<defs>
<filter id="filter0_d_1_4836" x="77" y="80.0371" width="128" height="128" filterUnits="userSpaceOnUse" color-interpolation-filters="sRGB">
<feFlood flood-opacity="0" result="BackgroundImageFix"/>
<feColorMatrix in="SourceAlpha" type="matrix" values="0 0 0 0 0 0 0 0 0 0 0 0 0 0 0 0 0 0 127 0" result="hardAlpha"/>
<feOffset dy="4"/>
<feGaussianBlur stdDeviation="2"/>
<feColorMatrix type="matrix" values="0 0 0 0 0 0 0 0 0 0 0 0 0 0 0 0 0 0 0.4 0"/>
<feBlend mode="normal" in2="BackgroundImageFix" result="effect1_dropShadow_1_4836"/>
<feBlend mode="normal" in="SourceGraphic" in2="effect1_dropShadow_1_4836" result="shape"/>
</filter>
<linearGradient id="paint0_linear_1_4836" x1="0.493652" y1="140.571" x2="280.53" y2="140.571" gradientUnits="userSpaceOnUse">
<stop stop-color="#C0CBDE"/>
<stop offset="0.31" stop-color="#011C50"/>
<stop offset="0.64" stop-color="#C0CBDE"/>
<stop offset="1" stop-color="#011C50"/>
</linearGradient>
<radialGradient id="paint1_radial_1_4836" cx="0" cy="0" r="1" gradientUnits="userSpaceOnUse" gradientTransform="translate(146.184 146.258) scale(123.693 123.719)">
<stop stop-color="#130C0E" stop-opacity="0.95"/>
<stop offset="0.78" stop-color="#181214" stop-opacity="0.93"/>
<stop offset="0.82" stop-color="#1A1517" stop-opacity="0.93"/>
<stop offset="0.85" stop-color="#241E20" stop-opacity="0.94"/>
<stop offset="0.88" stop-color="#342F31" stop-opacity="0.96"/>
<stop offset="0.89" stop-color="#3D383A" stop-opacity="0.96"/>
<stop offset="0.91" stop-color="#4E4A4C" stop-opacity="0.97"/>
<stop offset="0.93" stop-color="#7C797A" stop-opacity="0.98"/>
<stop offset="0.97" stop-color="#C6C4C5" stop-opacity="0.99"/>
<stop offset="1" stop-color="white"/>
</radialGradient>
<radialGradient id="paint2_radial_1_4836" cx="0" cy="0" r="1" gradientUnits="userSpaceOnUse" gradientTransform="translate(100.731 97.1799) rotate(22.5042) scale(162.79 162.824)">
<stop stop-color="#DDE1FC"/>
<stop offset="0.21" stop-color="#AEB7F7"/>
<stop offset="0.55" stop-color="#6174FC"/>
<stop offset="0.68" stop-color="#3E53E9"/>
<stop offset="0.91" stop-color="#3446C4"/>
<stop offset="1" stop-color="#2237C4"/>
</radialGradient>
<clipPath id="clip0_1_4836">
<rect width="120" height="120" fill="white" transform="translate(81 80.0371)"/>
</clipPath>
</defs>
</svg>
