<svg viewBox="0 0 128 126" fill="none" xmlns="http://www.w3.org/2000/svg">
<path d="M0.46967 119.933C0.176777 120.225 0.176777 120.7 0.46967 120.993L5.24264 125.766C5.53553 126.059 6.01041 126.059 6.3033 125.766C6.59619 125.473 6.59619 124.998 6.3033 124.706L2.06066 120.463L6.3033 116.22C6.59619 115.927 6.59619 115.452 6.3033 115.16C6.01041 114.867 5.53553 114.867 5.24264 115.16L0.46967 119.933ZM126.26 0.83909C122.944 20.654 112.687 50.4025 92.7161 75.1797C72.7619 99.936 43.1295 119.713 1 119.713V121.213C43.6705 121.213 73.7047 101.156 93.8839 76.1211C114.046 51.1066 124.389 21.1051 127.74 1.08669L126.26 0.83909Z" fill="white"/>
</svg>
