<svg width="343" height="76" viewBox="0 0 343 76" fill="none" xmlns="http://www.w3.org/2000/svg">
<path d="M338.07 37.8922C338.07 38.4483 337.762 39.0662 337.208 39.3752L291.854 70.6406C290.745 71.2585 289.328 70.4552 289.328 69.1577L289.328 55.3784L6.59216 55.3784C5.60622 55.3784 4.9284 54.5751 4.9284 53.7101C4.9284 53.4629 4.99001 53.2158 5.05163 53.0304L11.5219 38.5719C11.6452 38.3248 11.6451 38.1394 11.6451 37.8923C11.6451 37.6451 11.5835 37.3979 11.5219 37.2126L5.05163 22.7541C4.92839 22.5069 4.9284 22.2598 4.9284 22.0744C4.9284 21.2094 5.66784 20.4061 6.59216 20.4061L289.328 20.4061L289.328 6.6268C289.328 5.32924 290.745 4.526 291.854 5.14388L337.208 36.4093C337.824 36.7183 338.07 37.3361 338.07 37.8922ZM343 37.8922C343 35.5443 341.706 33.3199 339.672 32.1459L294.319 0.880483C292.286 -0.293497 289.759 -0.293497 287.726 0.880483C285.692 2.05446 284.398 4.27884 284.398 6.6268L284.398 15.463L6.59216 15.4631C2.9565 15.4631 -0.00134358 18.4289 -0.00134374 22.0744C-0.00134378 23.0012 0.183554 23.9281 0.553283 24.7931L6.40729 37.8923L0.553281 50.9914C0.183553 51.8564 -0.00134508 52.7833 -0.00134512 53.7101C-0.00134528 57.3556 2.95649 60.3214 6.59216 60.3214L284.398 60.3214L284.398 69.1577C284.398 71.5056 285.692 73.73 287.726 74.904C289.759 76.078 292.286 76.078 294.319 74.904L339.672 43.6386C341.768 42.4646 343 40.2402 343 37.8922Z" fill="white"/>
<path d="M338.07 37.8922C338.07 38.4483 337.762 39.0662 337.208 39.3752L291.854 70.6406C290.745 71.2585 289.328 70.4552 289.328 69.1577L289.328 55.3784L6.59216 55.3784C5.60622 55.3784 4.9284 54.5751 4.9284 53.7101C4.9284 53.4629 4.99001 53.2158 5.05163 53.0304L11.5219 38.5719C11.6452 38.3248 11.6451 38.1394 11.6451 37.8923C11.6451 37.6451 11.5835 37.3979 11.5219 37.2126L5.05163 22.7541C4.92839 22.5069 4.9284 22.2598 4.9284 22.0744C4.9284 21.2094 5.66784 20.4061 6.59216 20.4061L289.328 20.4061L289.328 6.6268C289.328 5.32924 290.745 4.526 291.854 5.14388L337.208 36.4093C337.824 36.7183 338.07 37.3361 338.07 37.8922ZM343 37.8922C343 35.5443 341.706 33.3199 339.672 32.1459L294.319 0.880483C292.286 -0.293497 289.759 -0.293497 287.726 0.880483C285.692 2.05446 284.398 4.27884 284.398 6.6268L284.398 15.463L6.59216 15.4631C2.9565 15.4631 -0.00134358 18.4289 -0.00134374 22.0744C-0.00134378 23.0012 0.183554 23.9281 0.553283 24.7931L6.40729 37.8923L0.553281 50.9914C0.183553 51.8564 -0.00134508 52.7833 -0.00134512 53.7101C-0.00134528 57.3556 2.95649 60.3214 6.59216 60.3214L284.398 60.3214L284.398 69.1577C284.398 71.5056 285.692 73.73 287.726 74.904C289.759 76.078 292.286 76.078 294.319 74.904L339.672 43.6386C341.768 42.4646 343 40.2402 343 37.8922Z" fill="#00215F" fill-opacity="0.05"/>
</svg>
