<svg viewBox="0 0 1141 147" fill="none" xmlns="http://www.w3.org/2000/svg">
<path d="M3 104.436C3 103.246 3.23742 102.174 3.71228 101.103L15.9399 73.9627L3.71228 46.8224C3.23743 45.7511 3 44.6797 3 43.4894C3 39.085 6.5614 35.514 10.9539 35.514L1032.85 35.514L1032.85 13.7293C1032.85 10.8725 1034.39 8.25367 1036.89 6.82523C1039.38 5.39679 1042.35 5.39679 1044.84 6.82523L1132.22 67.0586C1134.71 68.487 1136.25 71.1058 1136.25 74.0817C1136.25 76.9386 1134.71 79.6765 1132.22 81.1049L1044.84 141.338C1042.35 142.767 1039.38 142.767 1036.89 141.338C1034.39 139.91 1032.85 137.291 1032.85 134.434L1032.85 112.65L10.9539 112.65C6.68017 112.531 3 108.84 3 104.436Z" fill="white" fill-opacity="0.05"/>
<path d="M1131.5 73.9629C1131.5 75.0342 1130.91 76.2246 1129.84 76.8198L1042.47 137.053C1040.33 138.243 1037.6 136.696 1037.6 134.196L1037.6 107.65L13.2025 107.65C11.3031 107.65 9.99719 106.103 9.99719 104.436C9.99719 103.96 10.1158 103.484 10.2346 103.127L22.6997 75.2723C22.9371 74.7962 22.9371 74.439 22.9371 73.9629C22.9371 73.4868 22.8185 73.0106 22.6997 72.6535L10.2346 44.799C9.99719 44.3228 9.99719 43.8467 9.99719 43.4896C9.99719 41.8231 11.4218 40.2756 13.2025 40.2756L1037.6 40.2756L1037.6 13.7295C1037.6 11.2298 1040.33 9.68229 1042.47 10.8727L1129.84 71.106C1131.03 71.7012 1131.5 72.8916 1131.5 73.9629ZM1141 73.9629C1141 69.4395 1138.51 65.1542 1134.59 62.8925L1047.22 2.65915C1043.3 0.397464 1038.43 0.397463 1034.51 2.65915C1030.6 4.92085 1028.1 9.20614 1028.1 13.7295L1028.1 30.7527L13.2025 30.7527C6.19836 30.7527 0.499998 36.4664 0.499998 43.4896C0.499998 45.2751 0.856199 47.0607 1.56848 48.7272L12.8463 73.9629L1.56848 99.1986C0.856197 100.865 0.499996 102.651 0.499995 104.436C0.499995 111.459 6.19836 117.173 13.2025 117.173L1028.1 117.173L1028.1 134.196C1028.1 138.72 1030.6 143.005 1034.51 145.267C1038.43 147.528 1043.3 147.528 1047.22 145.267L1134.59 85.0333C1138.63 82.7716 1141 78.4863 1141 73.9629Z" fill="white"/>
<path d="M1131.5 73.9629C1131.5 75.0342 1130.91 76.2246 1129.84 76.8198L1042.47 137.053C1040.33 138.243 1037.6 136.696 1037.6 134.196L1037.6 107.65L13.2025 107.65C11.3031 107.65 9.99719 106.103 9.99719 104.436C9.99719 103.96 10.1158 103.484 10.2346 103.127L22.6997 75.2723C22.9371 74.7962 22.9371 74.439 22.9371 73.9629C22.9371 73.4868 22.8185 73.0106 22.6997 72.6535L10.2346 44.799C9.99719 44.3228 9.99719 43.8467 9.99719 43.4896C9.99719 41.8231 11.4218 40.2756 13.2025 40.2756L1037.6 40.2756L1037.6 13.7295C1037.6 11.2298 1040.33 9.68229 1042.47 10.8727L1129.84 71.106C1131.03 71.7012 1131.5 72.8916 1131.5 73.9629ZM1141 73.9629C1141 69.4395 1138.51 65.1542 1134.59 62.8925L1047.22 2.65915C1043.3 0.397464 1038.43 0.397463 1034.51 2.65915C1030.6 4.92085 1028.1 9.20614 1028.1 13.7295L1028.1 30.7527L13.2025 30.7527C6.19836 30.7527 0.499998 36.4664 0.499998 43.4896C0.499998 45.2751 0.856199 47.0607 1.56848 48.7272L12.8463 73.9629L1.56848 99.1986C0.856197 100.865 0.499996 102.651 0.499995 104.436C0.499995 111.459 6.19836 117.173 13.2025 117.173L1028.1 117.173L1028.1 134.196C1028.1 138.72 1030.6 143.005 1034.51 145.267C1038.43 147.528 1043.3 147.528 1047.22 145.267L1134.59 85.0333C1138.63 82.7716 1141 78.4863 1141 73.9629Z" fill="#00215F" fill-opacity="0.05"/>
</svg>
