<svg viewBox="0 0 200 201" fill="none" xmlns="http://www.w3.org/2000/svg">
<mask id="mask0_1_5548" style="mask-type:alpha" maskUnits="userSpaceOnUse" x="0" y="0" width="200" height="201">
<path d="M100 200.963C155.228 200.963 200 156.191 200 100.963C200 45.7344 155.228 0.962891 100 0.962891C44.7715 0.962891 0 45.7344 0 100.963C0 156.191 44.7715 200.963 100 200.963Z" fill="url(#paint0_linear_1_5548)"/>
</mask>
<g mask="url(#mask0_1_5548)">
<rect x="-292" y="0.962891" width="1339.53" height="200" fill="url(#paint1_linear_1_5548)"/>
<path d="M199.5 100.963C199.5 155.915 154.952 200.463 100 200.463C45.0477 200.463 0.5 155.915 0.5 100.963C0.5 46.0106 45.0477 1.46289 100 1.46289C154.952 1.46289 199.5 46.0106 199.5 100.963Z" stroke="white" stroke-opacity="0.5"/>
</g>
<g opacity="0.9" filter="url(#filter0_d_1_5548)">
<path d="M100 170.265C138.275 170.265 169.302 139.237 169.302 100.962C169.302 62.6879 138.275 31.6602 100 31.6602C61.7255 31.6602 30.6978 62.6879 30.6978 100.962C30.6978 139.237 61.7255 170.265 100 170.265Z" fill="url(#paint2_linear_1_5548)"/>
<path d="M168.802 100.962C168.802 138.961 137.999 169.765 100 169.765C62.0016 169.765 31.1978 138.961 31.1978 100.962C31.1978 62.964 62.0016 32.1602 100 32.1602C137.999 32.1602 168.802 62.964 168.802 100.962Z" stroke="white"/>
</g>
<path fill-rule="evenodd" clip-rule="evenodd" d="M91.0488 93.7982L91.0446 93.8175C86.7831 94.0403 84.6214 84.8228 89.8052 86.7487C90.6503 82.9948 91.5883 80.3514 92.6197 78.8175C98.6832 86.3073 104.414 90.1607 109.813 90.3779C110.007 89.2515 110.138 88.0422 110.195 86.7487C115.379 84.8228 113.217 94.0403 108.956 93.8175L108.952 93.7988C105.284 104.515 94.7199 104.513 91.0488 93.7982ZM100 135.386C90.4687 135.386 82.2902 133.063 80.5393 129.855L81.5418 117.929C81.5932 117.303 81.1274 116.753 80.501 116.702C79.8745 116.65 79.3249 117.116 79.2731 117.742L78.2346 130.098L78.3422 130.1C75.6687 130.062 73.1068 128.81 71.4365 126.622C72.5954 120.42 73.5793 113.344 77.8924 109.248C80.3185 106.944 84.2438 105.829 87.9338 104.965V113.107C86.5929 113.195 85.381 113.779 84.4811 114.677L84.4788 114.679L84.4763 114.682C83.4996 115.66 82.8948 117.007 82.8948 118.487V122.186C82.8948 122.815 83.4045 123.325 84.0334 123.325C84.6623 123.325 85.1721 122.815 85.1721 122.186V118.487C85.1721 117.627 85.5203 116.849 86.0824 116.287L86.0868 116.283C86.6485 115.721 87.427 115.373 88.2871 115.373H89.8583C90.7181 115.373 91.4969 115.721 92.0584 116.283V116.287C92.623 116.852 92.9731 117.631 92.9731 118.487V122.094C92.9731 122.722 93.4831 123.233 94.1119 123.233C94.7406 123.233 95.2507 122.722 95.2507 122.094V118.487C95.2507 117.002 94.6452 115.653 93.6689 114.677L93.6664 114.679C92.7663 113.78 91.5533 113.195 90.2113 113.107V104.445C90.8223 104.305 91.4151 104.167 91.9807 104.027L100 126.611V135.386ZM108.019 104.027C108.585 104.168 109.178 104.305 109.788 104.444V113.775C109.517 113.906 109.272 114.081 109.061 114.291L109.056 114.296C108.578 114.775 108.281 115.435 108.281 116.163C108.281 116.89 108.577 117.551 109.056 118.03L109.061 118.034C109.539 118.512 110.2 118.809 110.927 118.809C111.655 118.809 112.315 118.513 112.794 118.034L112.799 118.03C113.277 117.551 113.574 116.89 113.574 116.163C113.574 115.432 113.277 114.77 112.799 114.291H112.794C112.583 114.081 112.337 113.906 112.066 113.775V104.965C115.756 105.829 119.679 106.945 122.108 109.248C126.421 113.344 127.405 120.42 128.563 126.622C126.916 128.78 124.402 130.027 121.769 130.098L120.73 117.742C120.679 117.116 120.129 116.65 119.503 116.702C118.876 116.753 118.41 117.303 118.462 117.929L119.465 129.856L119.467 129.857L119.461 129.856C117.852 132.804 110.809 135.005 102.277 135.342V126.219L100.184 120.322L108.019 104.027ZM111.065 102.391C116.178 99.9731 119.048 96.0014 118.316 90.4074C117.217 80.897 110.336 67.0436 100 67.0527C89.664 67.0436 82.7829 80.897 81.684 90.4074C80.9485 96.0262 83.955 99.9486 89.1551 102.34L90.2114 102.092V102.107C90.6201 102.013 91.0285 101.916 91.4356 101.815L92.0869 101.655L92.2118 101.496C92.3252 101.353 92.3924 100.998 92.4319 100.634C94.4142 102.73 97.0252 104.115 100.004 104.114C102.948 104.114 105.578 102.746 107.569 100.638C107.609 101.003 107.676 101.358 107.789 101.498L107.916 101.654L108.57 101.817C108.975 101.918 109.382 102.014 109.789 102.108V102.092L111.065 102.391Z" fill="#00215F"/>
<defs>
<filter id="filter0_d_1_5548" x="25.6978" y="26.6602" width="158.604" height="158.605" filterUnits="userSpaceOnUse" color-interpolation-filters="sRGB">
<feFlood flood-opacity="0" result="BackgroundImageFix"/>
<feColorMatrix in="SourceAlpha" type="matrix" values="0 0 0 0 0 0 0 0 0 0 0 0 0 0 0 0 0 0 127 0" result="hardAlpha"/>
<feOffset dx="5" dy="5"/>
<feGaussianBlur stdDeviation="5"/>
<feComposite in2="hardAlpha" operator="out"/>
<feColorMatrix type="matrix" values="0 0 0 0 0 0 0 0 0 0 0 0 0 0 0 0 0 0 0.3 0"/>
<feBlend mode="normal" in2="BackgroundImageFix" result="effect1_dropShadow_1_5548"/>
<feBlend mode="normal" in="SourceGraphic" in2="effect1_dropShadow_1_5548" result="shape"/>
</filter>
<linearGradient id="paint0_linear_1_5548" x1="23.3686" y1="165.276" x2="176.599" y2="36.6938" gradientUnits="userSpaceOnUse">
<stop stop-color="#FBC6EB"/>
<stop offset="1" stop-color="#4331ED"/>
</linearGradient>
<linearGradient id="paint1_linear_1_5548" x1="-292" y1="100.963" x2="1047.53" y2="100.963" gradientUnits="userSpaceOnUse">
<stop stop-color="#F599FC"/>
<stop offset="0.25" stop-color="#7D76FE"/>
<stop offset="0.54" stop-color="#6174FC"/>
<stop offset="0.775" stop-color="#619EFD"/>
<stop offset="1" stop-color="#7FECF8"/>
</linearGradient>
<linearGradient id="paint2_linear_1_5548" x1="30.7387" y1="100.931" x2="169.335" y2="100.931" gradientUnits="userSpaceOnUse">
<stop stop-color="#F8F8F8"/>
<stop offset="1" stop-color="#B2B3DF"/>
</linearGradient>
</defs>
</svg>
