<svg viewBox="0 0 200 201" fill="none" xmlns="http://www.w3.org/2000/svg">
<mask id="mask0_1_5659" style="mask-type:alpha" maskUnits="userSpaceOnUse" x="0" y="0" width="200" height="201">
<path d="M100 200.963C155.228 200.963 200 156.191 200 100.963C200 45.7344 155.228 0.962891 100 0.962891C44.7715 0.962891 0 45.7344 0 100.963C0 156.191 44.7715 200.963 100 200.963Z" fill="url(#paint0_linear_1_5659)"/>
</mask>
<g mask="url(#mask0_1_5659)">
<rect x="-1139" y="0.962891" width="1339.53" height="200" fill="url(#paint1_linear_1_5659)"/>
<path d="M199.5 100.963C199.5 155.915 154.952 200.463 100 200.463C45.0477 200.463 0.5 155.915 0.5 100.963C0.5 46.0106 45.0477 1.46289 100 1.46289C154.952 1.46289 199.5 46.0106 199.5 100.963Z" stroke="white" stroke-opacity="0.5"/>
</g>
<g opacity="0.9" filter="url(#filter0_d_1_5659)">
<path d="M100 170.265C138.275 170.265 169.302 139.237 169.302 100.962C169.302 62.6879 138.275 31.6602 100 31.6602C61.7255 31.6602 30.6978 62.6879 30.6978 100.962C30.6978 139.237 61.7255 170.265 100 170.265Z" fill="url(#paint2_linear_1_5659)"/>
<path d="M168.802 100.962C168.802 138.961 137.999 169.765 100 169.765C62.0016 169.765 31.1978 138.961 31.1978 100.962C31.1978 62.964 62.0016 32.1602 100 32.1602C137.999 32.1602 168.802 62.964 168.802 100.962Z" stroke="white"/>
</g>

<path d="M71.7979 106.989H104.173C106.18 106.989 107.807 105.363 107.807 103.356V80.359C107.807 78.3514 106.18 76.7148 104.173 76.7148H71.7979C69.7906 76.7148 68.1641 78.3514 68.1641 80.359V103.356C68.1641 105.363 69.7906 106.989 71.7979 106.989ZM72.5906 81.1411H103.38V102.563H72.5906V81.1411Z" fill="#00215F"/>
<path d="M120.654 101.039C120.654 103.207 122.217 105.001 124.284 105.376V120.375C124.284 122.473 122.578 124.18 120.48 124.18C118.382 124.18 116.675 122.473 116.675 120.375V117.467C116.675 114.778 114.487 112.59 111.798 112.59H108.259C107.819 111.998 107.12 111.61 106.323 111.61H95.557V108.533H80.4142V111.61H69.6453C68.3073 111.61 67.2261 112.691 67.2261 114.029V118.559C67.2261 119.897 68.3073 120.988 69.6453 120.988H106.323C107.662 120.988 108.742 119.897 108.742 118.559V114.134H111.798C113.636 114.134 115.131 115.63 115.131 117.467V120.375C115.131 123.324 117.531 125.724 120.48 125.724C123.429 125.724 125.828 123.324 125.828 120.375V105.38C127.91 105.024 129.497 103.223 129.497 101.039V93.0098H120.654V101.039ZM72.873 117.067H70.4714C70.0451 117.067 69.6993 116.721 69.6993 116.295C69.6993 115.868 70.0451 115.523 70.4714 115.523H72.873C73.2993 115.523 73.6451 115.868 73.6451 116.295C73.6451 116.721 73.2993 117.067 72.873 117.067ZM78.5991 117.067H76.1975C75.7713 117.067 75.4254 116.721 75.4254 116.295C75.4254 115.868 75.7713 115.523 76.1975 115.523H78.5991C79.0254 115.523 79.3712 115.868 79.3712 116.295C79.3712 116.721 79.0254 117.067 78.5991 117.067ZM84.3252 117.067H81.9236C81.4974 117.067 81.1515 116.721 81.1515 116.295C81.1515 115.868 81.4974 115.523 81.9236 115.523H84.3252C84.7515 115.523 85.0973 115.868 85.0973 116.295C85.0973 116.721 84.7515 117.067 84.3252 117.067Z" fill="#00215F"/>
<path d="M130.27 86.4453H120.14C118.754 86.4453 117.636 87.5742 117.636 88.9495V88.96C117.636 90.3453 118.754 91.4642 120.14 91.4642H130.27C131.655 91.4642 132.774 90.3453 132.774 88.96V88.9495C132.774 87.5742 131.655 86.4453 130.27 86.4453Z" fill="#00215F"/>
<path d="M93.3481 85.5762C93.1556 85.16 92.6328 85.0263 92.2599 85.2927C88.9135 87.6832 85.0693 85.9994 83.5415 85.1439C83.1691 84.9353 82.6976 85.0992 82.5227 85.4882L77.7943 96.0025C77.639 96.3483 77.7709 96.766 78.1024 96.95C86.4968 101.601 95.375 98.0729 97.804 96.9344C98.1689 96.7635 98.32 96.3317 98.1511 95.9663L93.3481 85.5762Z" fill="#00215F"/>
<path d="M130.267 84.8977C130.339 84.8977 130.411 84.8977 130.484 84.9077V84.8977C130.484 81.9843 128.116 79.627 125.203 79.627C122.29 79.627 119.932 81.9843 119.932 84.8977V84.9077C120.004 84.8977 120.066 84.8977 120.138 84.8977H130.267Z" fill="#00215F"/>
<defs>
<filter id="filter0_d_1_5659" x="25.6978" y="26.6602" width="158.604" height="158.605" filterUnits="userSpaceOnUse" color-interpolation-filters="sRGB">
<feFlood flood-opacity="0" result="BackgroundImageFix"/>
<feColorMatrix in="SourceAlpha" type="matrix" values="0 0 0 0 0 0 0 0 0 0 0 0 0 0 0 0 0 0 127 0" result="hardAlpha"/>
<feOffset dx="5" dy="5"/>
<feGaussianBlur stdDeviation="5"/>
<feComposite in2="hardAlpha" operator="out"/>
<feColorMatrix type="matrix" values="0 0 0 0 0 0 0 0 0 0 0 0 0 0 0 0 0 0 0.3 0"/>
<feBlend mode="normal" in2="BackgroundImageFix" result="effect1_dropShadow_1_5659"/>
<feBlend mode="normal" in="SourceGraphic" in2="effect1_dropShadow_1_5659" result="shape"/>
</filter>
<linearGradient id="paint0_linear_1_5659" x1="23.3686" y1="165.276" x2="176.599" y2="36.6938" gradientUnits="userSpaceOnUse">
<stop stop-color="#FBC6EB"/>
<stop offset="1" stop-color="#4331ED"/>
</linearGradient>
<linearGradient id="paint1_linear_1_5659" x1="-1139" y1="100.963" x2="200.535" y2="100.963" gradientUnits="userSpaceOnUse">
<stop stop-color="#F599FC"/>
<stop offset="0.25" stop-color="#7D76FE"/>
<stop offset="0.54" stop-color="#6174FC"/>
<stop offset="0.775" stop-color="#619EFD"/>
<stop offset="1" stop-color="#7FECF8"/>
</linearGradient>
<linearGradient id="paint2_linear_1_5659" x1="30.7387" y1="100.931" x2="169.335" y2="100.931" gradientUnits="userSpaceOnUse">
<stop stop-color="#F8F8F8"/>
<stop offset="1" stop-color="#C8DEE1"/>
</linearGradient>
</defs>
</svg>
