<svg viewBox="0 0 200 201" fill="none" xmlns="http://www.w3.org/2000/svg">
<mask id="mask0_1_5562" style="mask-type:alpha" maskUnits="userSpaceOnUse" x="0" y="0" width="200" height="201">
<path d="M100 200.963C155.228 200.963 200 156.191 200 100.963C200 45.7344 155.228 0.962891 100 0.962891C44.7715 0.962891 0 45.7344 0 100.963C0 156.191 44.7715 200.963 100 200.963Z" fill="url(#paint0_linear_1_5562)"/>
</mask>
<g mask="url(#mask0_1_5562)">
<rect x="-584" y="0.962891" width="1339.53" height="200" fill="url(#paint1_linear_1_5562)"/>
<path d="M199.5 100.963C199.5 155.915 154.952 200.463 100 200.463C45.0477 200.463 0.5 155.915 0.5 100.963C0.5 46.0106 45.0477 1.46289 100 1.46289C154.952 1.46289 199.5 46.0106 199.5 100.963Z" stroke="white" stroke-opacity="0.5"/>
</g>
<g opacity="0.9" filter="url(#filter0_d_1_5562)">
<path d="M100 170.265C138.275 170.265 169.302 139.237 169.302 100.962C169.302 62.6879 138.275 31.6602 100 31.6602C61.7255 31.6602 30.6978 62.6879 30.6978 100.962C30.6978 139.237 61.7255 170.265 100 170.265Z" fill="url(#paint2_linear_1_5562)"/>
<path d="M168.802 100.962C168.802 138.961 137.999 169.765 100 169.765C62.0016 169.765 31.1978 138.961 31.1978 100.962C31.1978 62.964 62.0016 32.1602 100 32.1602C137.999 32.1602 168.802 62.964 168.802 100.962Z" stroke="white"/>
</g>
<path d="M132.949 70.457H116.406C115.273 70.457 114.355 71.3743 114.355 72.5078V76.6094C114.355 77.7429 115.273 78.6602 116.406 78.6602H118.457V82.7617H130.898V78.6602H132.949C134.083 78.6602 135 77.7429 135 76.6094V72.5078C135 71.3743 134.083 70.457 132.949 70.457Z" fill="#00215F"/>
<path d="M124.609 115.574C128.002 115.574 130.898 112.814 130.898 109.422V95.0664H132.949C134.083 95.0664 135 94.1492 135 93.0156C135 91.8821 134.083 90.9648 132.949 90.9648H130.898V86.8633H118.457V90.9648H106.152V86.8633H93.8477V90.9648H81.543V86.8633H69.1016V90.9648H67.0508C65.9172 90.9648 65 91.8821 65 93.0156C65 94.1492 65.9172 95.0664 67.0508 95.0664H69.1016V109.422C69.1016 112.814 71.9981 115.574 75.3906 115.574C78.7832 115.574 81.543 112.814 81.543 109.422V95.0664H85.6445V123.777H67.0508C65.9172 123.777 65 124.695 65 125.828V129.93C65 131.063 65.9172 131.98 67.0508 131.98H132.949C134.083 131.98 135 131.063 135 129.93V125.828C135 124.695 134.083 123.777 132.949 123.777H114.355V95.0664H118.457V109.422C118.457 112.814 121.217 115.574 124.609 115.574ZM110.254 123.777H89.7461V95.0664H93.8477V109.422C93.8477 112.814 96.6075 115.574 100 115.574C103.393 115.574 106.152 112.814 106.152 109.422V95.0664H110.254V123.777Z" fill="#00215F"/>
<path d="M106.152 82.7617V78.6602H108.203C109.337 78.6602 110.254 77.7429 110.254 76.6094V72.5078C110.254 71.3743 109.337 70.457 108.203 70.457H91.7969C90.6633 70.457 89.7461 71.3743 89.7461 72.5078V76.6094C89.7461 77.7429 90.6633 78.6602 91.7969 78.6602H93.8477V82.7617H106.152Z" fill="#00215F"/>
<path d="M67.0508 78.6602H69.1016V82.7617H81.543V78.6602H83.5938C84.7273 78.6602 85.6445 77.7429 85.6445 76.6094V72.5078C85.6445 71.3743 84.7273 70.457 83.5938 70.457H67.0508C65.9172 70.457 65 71.3743 65 72.5078V76.6094C65 77.7429 65.9172 78.6602 67.0508 78.6602Z" fill="#00215F"/>
<defs>
<filter id="filter0_d_1_5562" x="25.6978" y="26.6602" width="158.604" height="158.605" filterUnits="userSpaceOnUse" color-interpolation-filters="sRGB">
<feFlood flood-opacity="0" result="BackgroundImageFix"/>
<feColorMatrix in="SourceAlpha" type="matrix" values="0 0 0 0 0 0 0 0 0 0 0 0 0 0 0 0 0 0 127 0" result="hardAlpha"/>
<feOffset dx="5" dy="5"/>
<feGaussianBlur stdDeviation="5"/>
<feComposite in2="hardAlpha" operator="out"/>
<feColorMatrix type="matrix" values="0 0 0 0 0 0 0 0 0 0 0 0 0 0 0 0 0 0 0.3 0"/>
<feBlend mode="normal" in2="BackgroundImageFix" result="effect1_dropShadow_1_5562"/>
<feBlend mode="normal" in="SourceGraphic" in2="effect1_dropShadow_1_5562" result="shape"/>
</filter>
<linearGradient id="paint0_linear_1_5562" x1="23.3686" y1="165.276" x2="176.599" y2="36.6938" gradientUnits="userSpaceOnUse">
<stop stop-color="#FBC6EB"/>
<stop offset="1" stop-color="#4331ED"/>
</linearGradient>
<linearGradient id="paint1_linear_1_5562" x1="-584" y1="100.963" x2="755.535" y2="100.963" gradientUnits="userSpaceOnUse">
<stop stop-color="#F599FC"/>
<stop offset="0.25" stop-color="#7D76FE"/>
<stop offset="0.54" stop-color="#6174FC"/>
<stop offset="0.775" stop-color="#619EFD"/>
<stop offset="1" stop-color="#7FECF8"/>
</linearGradient>
<linearGradient id="paint2_linear_1_5562" x1="30.7387" y1="100.931" x2="169.335" y2="100.931" gradientUnits="userSpaceOnUse">
<stop stop-color="#F8F8F8"/>
<stop offset="1" stop-color="#BFC4E0"/>
</linearGradient>
</defs>
</svg>
