<svg viewBox="0 0 200 201" fill="none" xmlns="http://www.w3.org/2000/svg">
<mask id="mask0_1_8316" style="mask-type:alpha" maskUnits="userSpaceOnUse" x="0" y="0" width="200" height="201">
<path d="M100 200.039C155.228 200.039 200 155.268 200 100.039C200 44.8106 155.228 0.0390625 100 0.0390625C44.7715 0.0390625 0 44.8106 0 100.039C0 155.268 44.7715 200.039 100 200.039Z" fill="url(#paint0_linear_1_8316)"/>
</mask>
<g mask="url(#mask0_1_8316)">
<rect x="-495" y="0.0390625" width="698" height="200" fill="url(#paint1_linear_1_8316)"/>
<path d="M199.5 100.039C199.5 154.991 154.952 199.539 100 199.539C45.0477 199.539 0.5 154.991 0.5 100.039C0.5 45.0867 45.0477 0.539062 100 0.539062C154.952 0.539062 199.5 45.0867 199.5 100.039Z" stroke="white" stroke-opacity="0.5"/>
</g>
<g opacity="0.9" filter="url(#filter0_d_1_8316)">
<path d="M100 169.341C138.275 169.341 169.302 138.313 169.302 100.039C169.302 61.7641 138.275 30.7363 100 30.7363C61.7255 30.7363 30.6978 61.7641 30.6978 100.039C30.6978 138.313 61.7255 169.341 100 169.341Z" fill="url(#paint2_linear_1_8316)"/>
<path d="M168.802 100.039C168.802 138.037 137.999 168.841 100 168.841C62.0016 168.841 31.1978 138.037 31.1978 100.039C31.1978 62.0402 62.0016 31.2363 100 31.2363C137.999 31.2363 168.802 62.0402 168.802 100.039Z" stroke="white"/>
</g>
<g clip-path="url(#clip0_1_8316)">
<path d="M130.898 107.969C129.883 107.969 128.909 108.372 128.192 109.09C127.474 109.808 127.07 110.782 127.07 111.797V127.656C127.07 128.672 127.474 129.645 128.192 130.363C128.909 131.081 129.883 131.484 130.898 131.484C131.914 131.484 132.887 131.081 133.605 130.363C134.323 129.645 134.727 128.672 134.727 127.656V111.797C134.727 110.782 134.323 109.808 133.605 109.09C132.887 108.372 131.914 107.969 130.898 107.969Z" fill="#00215F"/>
<path d="M119.414 104.688C118.399 104.688 117.425 105.091 116.707 105.809C115.989 106.527 115.586 107.5 115.586 108.516V130.938C115.586 131.953 115.989 132.926 116.707 133.644C117.425 134.362 118.399 134.766 119.414 134.766C120.429 134.766 121.403 134.362 122.121 133.644C122.839 132.926 123.242 131.953 123.242 130.938V108.516C123.242 107.5 122.839 106.527 122.121 105.809C121.403 105.091 120.429 104.688 119.414 104.688Z" fill="#00215F"/>
<path d="M69.1016 107.969C68.0863 107.969 67.1126 108.372 66.3947 109.09C65.6768 109.808 65.2734 110.782 65.2734 111.797V127.656C65.2734 128.672 65.6768 129.645 66.3947 130.363C67.1126 131.081 68.0863 131.484 69.1016 131.484C70.1168 131.484 71.0905 131.081 71.8085 130.363C72.5264 129.645 72.9297 128.672 72.9297 127.656V111.797C72.9297 110.782 72.5264 109.808 71.8085 109.09C71.0905 108.372 70.1168 107.969 69.1016 107.969Z" fill="#00215F"/>
<path d="M88.2422 115.898H111.758V123.555H88.2422V115.898Z" fill="#00215F"/>
<path d="M80.5859 104.688C79.5707 104.688 78.597 105.091 77.879 105.809C77.1611 106.527 76.7578 107.5 76.7578 108.516V130.938C76.7578 131.953 77.1611 132.926 77.879 133.644C78.597 134.362 79.5707 134.766 80.5859 134.766C81.6012 134.766 82.5749 134.362 83.2928 133.644C84.0107 132.926 84.4141 131.953 84.4141 130.938V108.516C84.4141 107.5 84.0107 106.527 83.2928 105.809C82.5749 105.091 81.6012 104.688 80.5859 104.688Z" fill="#00215F"/>
<path d="M103.838 78.4768C103.148 79.8114 102.26 81.0335 101.203 82.1015C99.3989 83.8531 97.2066 85.1539 94.8046 85.8979V86.914C94.8046 88.437 94.1996 89.8975 93.1228 90.9744C92.0459 92.0512 90.5854 92.6562 89.0624 92.6562C87.5395 92.6562 86.079 92.0512 85.0021 90.9744C83.9252 89.8975 83.3203 88.437 83.3203 86.914V77.1425C81.668 76.7925 79.9644 76.7598 78.2999 77.0462C69.3421 78.6267 63.6798 89.1322 65.6781 100.467C65.9206 101.845 66.2728 103.201 66.7313 104.523C67.8655 104.15 69.0718 104.05 70.2521 104.23C71.4325 104.41 72.5537 104.866 73.5246 105.561C74.208 103.931 75.4347 102.587 76.9964 101.758C78.5581 100.929 80.3586 100.666 82.0921 101.014C83.8256 101.362 85.3853 102.299 86.5064 103.666C87.6274 105.033 88.2407 106.746 88.2421 108.515V112.07H107.145C109.902 108.736 111.73 104.733 112.447 100.467C114.126 90.9434 110.391 82.0272 103.838 78.4768Z" fill="#00215F"/>
<path d="M82.6094 68.8664C83.9907 69.7005 85.1339 70.8763 85.9289 72.2805C86.7239 73.6847 87.1439 75.27 87.1484 76.8836V86.9133C87.1484 87.4209 87.3501 87.9078 87.709 88.2667C88.068 88.6257 88.5548 88.8273 89.0625 88.8273C89.5701 88.8273 90.057 88.6257 90.4159 88.2667C90.7749 87.9078 90.9765 87.4209 90.9765 86.9133V82.8905C93.7817 82.5192 96.4059 81.2978 98.4961 79.3905C100.36 77.3539 101.567 74.8034 101.961 72.0711C102.004 71.8135 101.985 71.5495 101.905 71.3008C101.825 71.0522 101.687 70.8261 101.503 70.6415C101.318 70.4569 101.092 70.319 100.844 70.2393C100.595 70.1596 100.331 70.1404 100.073 70.1833C97.3409 70.5772 94.7905 71.7846 92.7539 73.6483C92.0277 74.3845 91.4108 75.221 90.9219 76.1322C90.7985 73.9916 90.1566 71.9132 89.0515 70.0758C87.9464 68.2385 86.4112 66.6973 84.5781 65.5851C84.1438 65.3412 83.6314 65.2761 83.1499 65.4038C82.6684 65.5315 82.2556 65.842 81.9993 66.2691C81.743 66.6963 81.6634 67.2066 81.7773 67.6916C81.8912 68.1765 82.1897 68.598 82.6094 68.8664Z" fill="#00215F"/>
</g>
<defs>
<filter id="filter0_d_1_8316" x="25.6978" y="25.7363" width="158.604" height="158.605" filterUnits="userSpaceOnUse" color-interpolation-filters="sRGB">
<feFlood flood-opacity="0" result="BackgroundImageFix"/>
<feColorMatrix in="SourceAlpha" type="matrix" values="0 0 0 0 0 0 0 0 0 0 0 0 0 0 0 0 0 0 127 0" result="hardAlpha"/>
<feOffset dx="5" dy="5"/>
<feGaussianBlur stdDeviation="5"/>
<feComposite in2="hardAlpha" operator="out"/>
<feColorMatrix type="matrix" values="0 0 0 0 0 0 0 0 0 0 0 0 0 0 0 0 0 0 0.3 0"/>
<feBlend mode="normal" in2="BackgroundImageFix" result="effect1_dropShadow_1_8316"/>
<feBlend mode="normal" in="SourceGraphic" in2="effect1_dropShadow_1_8316" result="shape"/>
</filter>
<linearGradient id="paint0_linear_1_8316" x1="23.3686" y1="164.352" x2="176.599" y2="35.77" gradientUnits="userSpaceOnUse">
<stop stop-color="#FBC6EB"/>
<stop offset="1" stop-color="#4331ED"/>
</linearGradient>
<linearGradient id="paint1_linear_1_8316" x1="-495" y1="100.039" x2="203" y2="100.039" gradientUnits="userSpaceOnUse">
<stop stop-color="#F599FC"/>
<stop offset="0.25" stop-color="#7D76FE"/>
<stop offset="0.54" stop-color="#6174FC"/>
<stop offset="0.775" stop-color="#619EFD"/>
<stop offset="1" stop-color="#7FECF8"/>
</linearGradient>
<linearGradient id="paint2_linear_1_8316" x1="30.7387" y1="100.007" x2="169.335" y2="100.007" gradientUnits="userSpaceOnUse">
<stop stop-color="#F8F8F8"/>
<stop offset="1" stop-color="#CCBDE3"/>
</linearGradient>
<clipPath id="clip0_1_8316">
<rect width="70" height="70" fill="white" transform="translate(65 65.0391)"/>
</clipPath>
</defs>
</svg>
